<svg width="130" height="11" viewBox="0 0 130 11" fill="none" xmlns="http://www.w3.org/2000/svg">
<path fill-rule="evenodd" clip-rule="evenodd" d="M1.02848 8.12984V5.08725H3.96492C5.59894 5.08725 6.43037 5.62392 6.43037 6.56863V6.59524C6.43037 7.53995 5.57011 8.12984 4.15715 8.12984H1.02848ZM1.02848 4.24455V1.27736H3.85438C5.18563 1.27736 5.93055 1.84064 5.93055 2.68334V2.70995C5.93055 3.70788 5.04626 4.24455 3.76787 4.24455H1.02848ZM0 8.99916H4.12832C6.15163 8.99916 7.50691 8.12984 7.50691 6.64846V6.62185C7.50691 5.44651 6.62261 4.85662 5.51243 4.55058C6.23333 4.27116 6.98306 3.68127 6.98306 2.55471V2.5281C6.98306 1.99143 6.76199 1.53017 6.3727 1.17091C5.84405 0.683031 5.01742 0.403609 3.96011 0.403609H0V8.99916Z" fill="#B7B7B7"/>
<path fill-rule="evenodd" clip-rule="evenodd" d="M11.3613 8.38709C10.4482 8.38709 9.64556 7.89921 9.64556 7.10973V7.08312C9.64556 6.31582 10.3665 5.80576 11.6689 5.80576C12.5003 5.80576 13.1635 5.93439 13.6633 6.08519V6.67508C13.6633 7.66857 12.6349 8.38709 11.3613 8.38709ZM11.169 9.12778C12.3898 9.12778 13.1635 8.61772 13.6633 8.05444V8.99916H14.663V5.11386C14.663 4.31995 14.4131 3.70788 13.9421 3.24661C13.4423 2.81196 12.6973 2.55471 11.7265 2.55471C10.7029 2.55471 9.98198 2.78535 9.23225 3.09138L9.53502 3.85868C10.1742 3.60144 10.8086 3.42403 11.6112 3.42403C12.9136 3.42403 13.6633 4.01392 13.6633 5.13604V5.31788C13.0241 5.16265 12.4186 5.06064 11.5583 5.06064C9.81377 5.06064 8.62189 5.77472 8.62189 7.13191V7.15852C8.61709 8.46249 9.89547 9.12778 11.169 9.12778Z" fill="#B7B7B7"/>
<path fill-rule="evenodd" clip-rule="evenodd" d="M20.1994 9.15439C21.5019 9.15439 22.3045 8.64433 22.9965 7.92582L22.3573 7.36254C21.8046 7.89921 21.1366 8.30725 20.2523 8.30725C18.8105 8.30725 17.7292 7.20731 17.7292 5.82794V5.80133C17.7292 4.44414 18.7817 3.34863 20.1946 3.34863C21.1078 3.34863 21.7181 3.78328 22.2708 4.31995L22.9629 3.65466C22.2997 3.01598 21.4923 2.5281 20.1946 2.5281C18.2002 2.5281 16.6767 4.03609 16.6767 5.82794V5.85455C16.6815 7.64196 18.205 9.15439 20.1994 9.15439Z" fill="#B7B7B7"/>
<path fill-rule="evenodd" clip-rule="evenodd" d="M24.4095 8.99916H25.4379V7.33593L26.8509 6.03196L29.2875 8.99916H30.5323L27.543 5.36667L30.4217 2.65672H29.1481L25.4379 6.21381V0.0487878H24.4095V8.99916Z" fill="#B7B7B7"/>
<path fill-rule="evenodd" clip-rule="evenodd" d="M32.3345 5.44651C32.5027 4.21794 33.387 3.32645 34.5789 3.32645C35.9342 3.32645 36.6551 4.29777 36.7656 5.44651H32.3345ZM32.3345 6.21381H37.7941C37.8229 6.05857 37.8229 5.95656 37.8229 5.88116C37.8229 4.01392 36.631 2.53254 34.6077 2.53254C32.6949 2.53254 31.3108 3.99174 31.3108 5.83238C31.3108 7.80163 32.8632 9.15439 34.7471 9.15439C36.0495 9.15439 36.8809 8.66651 37.573 7.95243L36.9338 7.44238C36.3811 7.97904 35.7131 8.3383 34.7711 8.3383C33.5552 8.33387 32.5027 7.53995 32.3345 6.21381Z" fill="#B7B7B7"/>
<path fill-rule="evenodd" clip-rule="evenodd" d="M42.7778 8.28508C41.4754 8.28508 40.3653 7.34037 40.3653 5.83238V5.80576C40.3653 4.27116 41.4466 3.37524 42.7778 3.37524C44.0514 3.37524 45.2721 4.34656 45.2721 5.80576V5.83238C45.2721 7.28714 44.0562 8.28508 42.7778 8.28508ZM42.5856 9.12778C43.8592 9.12778 44.6618 8.4891 45.2433 7.7218V8.99916H46.2429V0.0487878H45.2433V3.85868C44.6906 3.1446 43.888 2.5281 42.5856 2.5281C40.9516 2.5281 39.3176 3.75667 39.3176 5.82794V5.85455C39.3176 7.92582 40.9516 9.12778 42.5856 9.12778Z" fill="#B7B7B7"/>
<path fill-rule="evenodd" clip-rule="evenodd" d="M55.8308 8.28508C54.5573 8.28508 53.3365 7.31375 53.3365 5.83238V5.80576C53.3365 4.37317 54.5573 3.37524 55.8308 3.37524C57.1332 3.37524 58.2434 4.31995 58.2434 5.82794V5.85455C58.2386 7.38915 57.1573 8.28508 55.8308 8.28508ZM55.9942 9.12778C57.6571 9.12778 59.2911 7.89921 59.2911 5.82794V5.80133C59.2911 3.73006 57.6571 2.5281 55.9942 2.5281C54.7495 2.5281 53.9181 3.16678 53.3606 3.93408V0.0487878H52.3369V8.99916H53.3606V7.77059C53.8892 8.4891 54.7207 9.12778 55.9942 9.12778Z" fill="#B7B7B7"/>
<path fill-rule="evenodd" clip-rule="evenodd" d="M62.0642 10.995C63.0878 10.995 63.7559 10.5338 64.3374 9.20318L67.221 2.65672H66.1396L63.9241 7.948L61.425 2.65672H60.2908L63.4194 8.97254C63.0061 9.86847 62.6168 10.1745 62.0065 10.1745C61.5643 10.1745 61.2568 10.0991 60.9251 9.91726L60.5935 10.6846C61.0645 10.893 61.4826 10.995 62.0642 10.995Z" fill="#B7B7B7"/>
<path fill-rule="evenodd" clip-rule="evenodd" d="M82.8692 6.44444C82.5904 6.82588 82.1771 7.13634 81.6773 7.34037C80.6536 7.7218 79.5723 7.51778 78.7697 6.8037C77.9959 6.08962 77.77 5.09169 78.217 4.14254C78.6063 3.27323 79.4377 2.70995 80.4325 2.63455H80.6536C81.0429 2.63455 81.3745 2.35513 81.3745 1.99587V0.66529C81.3745 0.306033 81.0429 0.0266114 80.6536 0.0266114C78.3804 0.0266114 76.4436 1.20196 75.5833 3.1446C74.699 5.08725 75.17 7.18513 76.7752 8.66651C78.3804 10.1479 80.6824 10.5604 82.7875 9.73984C84.3927 9.12778 85.5317 7.92582 85.9738 6.44001H87.2762V9.63783C87.2762 9.99709 87.6078 10.3031 87.9971 10.3031H95.6146C96.0039 10.3031 96.3355 9.99709 96.3355 9.63783V8.33387C96.3355 7.97461 96.0039 7.66857 95.6146 7.66857H90.131V6.44001H94.0382C94.4275 6.44001 94.7591 6.16058 94.7591 5.77472V4.49736C94.7591 4.11593 94.4275 3.83207 94.0382 3.83207H90.131V2.70551H100.19V9.66444C100.19 10.0237 100.521 10.3297 100.911 10.3297H102.324C102.713 10.3297 103.045 10.0237 103.045 9.66444V2.70995H106.149C106.563 2.70995 106.899 2.43053 106.899 2.04466V0.767301C106.899 0.385868 106.567 0.102011 106.149 0.102011H88.0019C87.6126 0.102011 87.281 0.381433 87.281 0.767301V3.83651H80.8795C80.4662 3.83651 80.1586 4.11593 80.1586 4.5018V5.77915C80.1586 6.16058 80.4614 6.44444 80.8795 6.44444H82.8692ZM110.854 5.08725C110.854 5.01185 110.883 4.95863 110.883 4.88323V0.74069C110.883 0.359257 110.551 0.0753996 110.162 0.0753996H108.692C108.302 0.0753996 107.971 0.354821 107.971 0.74069V4.88323C107.971 4.95863 108 5.03846 108 5.08725C108 6.9545 109.023 8.53789 110.768 9.46042C112.512 10.4051 114.536 10.4051 116.28 9.46042C117.583 8.74634 118.467 7.66858 118.827 6.39122H120.211V9.43381C120.211 9.81524 120.543 10.0991 120.932 10.0991H122.345C122.735 10.0991 123.066 9.81968 123.066 9.43381V6.39122H126.945C127.055 6.39122 127.166 6.36461 127.276 6.31582C128.218 6.13841 129.021 5.60174 129.521 4.78122C130.16 3.78328 130.16 2.60794 129.521 1.58339C128.992 0.789477 128.218 0.25281 127.276 0.0753996C127.166 0.0221764 127.055 0 126.945 0H122.432C122.374 0 122.321 -2.36274e-07 122.264 0.0266114H120.932C120.543 0.0266114 120.211 0.306033 120.211 0.691901V3.80989H118.967V0.767301C118.967 0.385868 118.664 0.102011 118.275 0.102011H116.891C116.477 0.102011 116.17 0.381433 116.17 0.767301V5.06064C116.17 5.95656 115.699 6.74604 114.838 7.1807C114.007 7.64196 113.036 7.64196 112.181 7.20731C111.349 6.75048 110.854 5.98317 110.854 5.08725ZM123.071 2.58132H126.507V2.63455C126.728 2.63455 126.921 2.73656 127.036 2.91397C127.175 3.09138 127.175 3.2954 127.036 3.47725C126.925 3.65466 126.733 3.75667 126.507 3.75667V3.80989H123.071V2.58132Z" fill="#B7B7B7"/>
</svg>
