<svg width="60" height="60" viewBox="0 0 60 60" fill="none" xmlns="http://www.w3.org/2000/svg">
<rect width="60" height="60" fill="#111214"/>
<path d="M29.7032 8C16.8399 8 7 17.7706 7 30.6402C7 40.9304 13.4734 49.9009 22.7198 53C23.8667 53 24.3242 52.3154 24.3242 51.7123C24.3242 51.137 24.2964 47.9637 24.2964 46.0151C24.2964 46.0151 17.8044 47.407 16.4411 43.2501C16.4411 43.2501 15.3839 40.5499 13.8629 39.854C13.8629 39.854 11.7391 38.3973 14.0113 38.4251C14.0113 38.4251 16.3206 38.6107 17.5911 40.819C19.6222 44.4006 23.0258 43.3707 24.352 42.7583C24.5653 41.2737 25.1681 40.2437 25.8359 39.6313C20.6516 39.0561 15.421 38.3045 15.421 29.3783C15.421 26.8266 16.1258 25.5462 17.6097 23.9131C17.3686 23.31 16.5802 20.8233 17.8508 17.6128C19.7891 17.0097 24.25 20.1181 24.25 20.1181C26.1048 19.5985 28.0988 19.3294 30.0742 19.3294C32.0496 19.3294 34.0436 19.5985 35.8984 20.1181C35.8984 20.1181 40.3593 17.0004 42.2976 17.6128C43.5681 20.8325 42.7798 23.31 42.5387 23.9131C44.0226 25.5554 44.9315 26.8359 44.9315 29.3783C44.9315 38.3323 39.469 39.0468 34.2847 39.6313C35.1379 40.3644 35.8613 41.7562 35.8613 43.9367C35.8613 47.0636 35.8335 50.9329 35.8335 51.6937C35.8335 52.2969 36.1333 53 37.4379 53C46.7121 49.9194 53 40.9304 53 30.6402C53 17.7706 42.5665 8 29.7032 8Z" fill="#B5B5B5"/>
</svg>
