<svg width="98" height="15" viewBox="0 0 98 15" fill="none" xmlns="http://www.w3.org/2000/svg">
<path fill-rule="evenodd" clip-rule="evenodd" d="M90.0302 10.7449C88.1468 10.7449 86.9522 9.20377 86.9522 7.5V7.45719C86.9522 5.77483 88.125 4.25514 89.9866 4.25514C91.8701 4.25514 93.0647 5.79623 93.0647 7.5V7.54281C93.0647 9.22517 91.8919 10.7449 90.0302 10.7449ZM89.9866 15C94.5078 15 98 11.6695 98 7.5V7.45719C98 3.28767 94.547 0 90.0302 0C85.5091 0 82.0125 3.33048 82.0125 7.5V7.54281C82.0125 11.7123 85.4655 15 89.9866 15Z" fill="#F4F4F4"/>
<path fill-rule="evenodd" clip-rule="evenodd" d="M57.5278 14.7945H62.4239V4.47776H66.7358V0.410983H53.216V4.47776H57.5278V14.7945Z" fill="#F4F4F4"/>
<path fill-rule="evenodd" clip-rule="evenodd" d="M72.4906 7.25174V4.43924H74.6269C75.7561 4.43924 76.4885 4.88872 76.4885 5.81338V5.85619C76.4885 6.73804 75.7779 7.25174 74.6051 7.25174H72.4906ZM67.5945 14.7945H72.4906V10.685H73.5369L76.3011 14.7945H81.886L78.4766 9.90584C80.2554 9.06252 81.3628 7.60276 81.3628 5.50516V5.46663C81.3628 3.98547 80.9051 2.91954 80.0244 2.05482C78.9998 1.04883 77.3474 0.410983 74.7533 0.410983H67.5945V14.7945Z" fill="#F4F4F4"/>
<path d="M38.4229 0.30809H33.5268V14.6916H38.4229V0.30809Z" fill="#F4F4F4"/>
<path fill-rule="evenodd" clip-rule="evenodd" d="M46.7943 14.9574C50.7268 14.9574 53.2599 13.1081 53.2599 10.0901V10.0473C53.2599 7.14916 50.7486 6.08324 47.0036 5.40259C45.4558 5.11577 45.0547 4.87177 45.0547 4.47793V4.4394C45.0547 4.08838 45.3904 3.84437 46.1229 3.84437C47.4831 3.84437 49.1355 4.27245 50.5176 5.26132L52.9024 2.01218C51.2108 0.697966 49.1181 0.0430002 46.2929 0.0430002C42.2514 0.0430002 40.0758 2.15773 40.0758 4.88889V4.9317C40.0758 7.97108 42.962 8.89574 46.2493 9.55499C47.8188 9.8632 48.281 10.0901 48.281 10.501V10.5396C48.281 10.9334 47.9017 11.156 47.0254 11.156C45.3076 11.156 43.4852 10.6637 41.8982 9.47365L39.2823 12.5344C41.144 14.1355 43.8209 14.9574 46.7943 14.9574Z" fill="#F4F4F4"/>
<path fill-rule="evenodd" clip-rule="evenodd" d="M5.10099 10.7879C8.20518 10.7879 10.2674 9.41803 10.2674 5.93344V0.381214H6.73592V6.03618C6.73592 7.27334 6.06887 7.76991 5.13151 7.76991C4.19851 7.76991 3.53146 7.23053 3.53146 5.96341V0.381214H0V6.00621C0 9.38806 2.00116 10.7879 5.10099 10.7879Z" fill="#F4F4F4"/>
<path fill-rule="evenodd" clip-rule="evenodd" d="M90.0302 10.7449C88.1468 10.7449 86.9522 9.20377 86.9522 7.5V7.45719C86.9522 5.77483 88.125 4.25514 89.9866 4.25514C91.8701 4.25514 93.0647 5.79623 93.0647 7.5V7.54281C93.0647 9.22517 91.8919 10.7449 90.0302 10.7449ZM89.9866 15C94.5078 15 98 11.6695 98 7.5V7.45719C98 3.28767 94.547 0 90.0302 0C85.5091 0 82.0125 3.33048 82.0125 7.5V7.54281C82.0125 11.7123 85.4655 15 89.9866 15Z" fill="#F4F4F4"/>
<path fill-rule="evenodd" clip-rule="evenodd" d="M57.5278 14.7945H62.4239V4.47776H66.7358V0.410983H53.216V4.47776H57.5278V14.7945Z" fill="#F4F4F4"/>
<path fill-rule="evenodd" clip-rule="evenodd" d="M72.4906 7.25174V4.43924H74.6269C75.7561 4.43924 76.4885 4.88872 76.4885 5.81338V5.85619C76.4885 6.73804 75.7779 7.25174 74.6051 7.25174H72.4906ZM67.5945 14.7945H72.4906V10.685H73.5369L76.3011 14.7945H81.886L78.4766 9.90584C80.2554 9.06252 81.3628 7.60276 81.3628 5.50516V5.46663C81.3628 3.98547 80.9051 2.91954 80.0244 2.05482C78.9998 1.04883 77.3474 0.410983 74.7533 0.410983H67.5945V14.7945Z" fill="#F4F4F4"/>
<path d="M38.4229 0.30809H33.5268V14.6916H38.4229V0.30809Z" fill="#F4F4F4"/>
<path fill-rule="evenodd" clip-rule="evenodd" d="M46.7943 14.9574C50.7268 14.9574 53.2599 13.1081 53.2599 10.0901V10.0473C53.2599 7.14916 50.7486 6.08324 47.0036 5.40259C45.4558 5.11577 45.0547 4.87177 45.0547 4.47793V4.4394C45.0547 4.08838 45.3904 3.84437 46.1229 3.84437C47.4831 3.84437 49.1355 4.27245 50.5176 5.26132L52.9024 2.01218C51.2108 0.697966 49.1181 0.0430002 46.2929 0.0430002C42.2514 0.0430002 40.0758 2.15773 40.0758 4.88889V4.9317C40.0758 7.97108 42.962 8.89574 46.2493 9.55499C47.8188 9.8632 48.281 10.0901 48.281 10.501V10.5396C48.281 10.9334 47.9017 11.156 47.0254 11.156C45.3076 11.156 43.4852 10.6637 41.8982 9.47365L39.2823 12.5344C41.144 14.1355 43.8209 14.9574 46.7943 14.9574Z" fill="#F4F4F4"/>
<path fill-rule="evenodd" clip-rule="evenodd" d="M5.10099 10.7879C8.20518 10.7879 10.2674 9.41803 10.2674 5.93344V0.381214H6.73592V6.03618C6.73592 7.27334 6.06887 7.76991 5.13151 7.76991C4.19851 7.76991 3.53146 7.23053 3.53146 5.96341V0.381214H0V6.00621C0 9.38806 2.00116 10.7879 5.10099 10.7879Z" fill="#F4F4F4"/>
<path fill-rule="evenodd" clip-rule="evenodd" d="M90.0302 10.7449C88.1468 10.7449 86.9522 9.20377 86.9522 7.5V7.45719C86.9522 5.77483 88.125 4.25514 89.9866 4.25514C91.8701 4.25514 93.0647 5.79623 93.0647 7.5V7.54281C93.0647 9.22517 91.8919 10.7449 90.0302 10.7449ZM89.9866 15C94.5078 15 98 11.6695 98 7.5V7.45719C98 3.28767 94.547 0 90.0302 0C85.5091 0 82.0125 3.33048 82.0125 7.5V7.54281C82.0125 11.7123 85.4655 15 89.9866 15Z" fill="#F4F4F4"/>
<path fill-rule="evenodd" clip-rule="evenodd" d="M57.5278 14.7945H62.4239V4.47776H66.7358V0.410983H53.216V4.47776H57.5278V14.7945Z" fill="#F4F4F4"/>
<path fill-rule="evenodd" clip-rule="evenodd" d="M72.4906 7.25174V4.43924H74.6269C75.7561 4.43924 76.4885 4.88872 76.4885 5.81338V5.85619C76.4885 6.73804 75.7779 7.25174 74.6051 7.25174H72.4906ZM67.5945 14.7945H72.4906V10.685H73.5369L76.3011 14.7945H81.886L78.4766 9.90584C80.2554 9.06252 81.3628 7.60276 81.3628 5.50516V5.46663C81.3628 3.98547 80.9051 2.91954 80.0244 2.05482C78.9998 1.04883 77.3474 0.410983 74.7533 0.410983H67.5945V14.7945Z" fill="#F4F4F4"/>
<path d="M38.4229 0.30809H33.5268V14.6916H38.4229V0.30809Z" fill="#F4F4F4"/>
<path fill-rule="evenodd" clip-rule="evenodd" d="M46.7943 14.9574C50.7268 14.9574 53.2599 13.1081 53.2599 10.0901V10.0473C53.2599 7.14916 50.7486 6.08324 47.0036 5.40259C45.4558 5.11577 45.0547 4.87177 45.0547 4.47793V4.4394C45.0547 4.08838 45.3904 3.84437 46.1229 3.84437C47.4831 3.84437 49.1355 4.27245 50.5176 5.26132L52.9024 2.01218C51.2108 0.697966 49.1181 0.0430002 46.2929 0.0430002C42.2514 0.0430002 40.0758 2.15773 40.0758 4.88889V4.9317C40.0758 7.97108 42.962 8.89574 46.2493 9.55499C47.8188 9.8632 48.281 10.0901 48.281 10.501V10.5396C48.281 10.9334 47.9017 11.156 47.0254 11.156C45.3076 11.156 43.4852 10.6637 41.8982 9.47365L39.2823 12.5344C41.144 14.1355 43.8209 14.9574 46.7943 14.9574Z" fill="#F4F4F4"/>
<path fill-rule="evenodd" clip-rule="evenodd" d="M5.10099 10.7879C8.20518 10.7879 10.2674 9.41803 10.2674 5.93344V0.381214H6.73592V6.03618C6.73592 7.27334 6.06887 7.76991 5.13151 7.76991C4.19851 7.76991 3.53146 7.23053 3.53146 5.96341V0.381214H0V6.00621C0 9.38806 2.00116 10.7879 5.10099 10.7879Z" fill="#F4F4F4"/>
<path fill-rule="evenodd" clip-rule="evenodd" d="M23.098 10.4793L23.1024 4.49901H23.9177C26.1586 4.49901 27.6017 5.40227 27.6017 7.47847V7.52127C27.6017 9.59747 26.1586 10.5007 23.9177 10.5007H23.1242V14.6916H23.6474C29.568 14.6916 32.5414 11.6694 32.5414 7.41853V7.37573C32.5414 3.12487 29.6334 0.30809 23.813 0.30809H17.8619V4.81151L14.1648 0.30809H10.9167V10.5093H14.3609V5.80466L18.215 10.5093L23.098 10.4793Z" fill="#F4F4F4"/>
</svg>
