<svg width="130" height="130" viewBox="0 0 130 130" fill="none" xmlns="http://www.w3.org/2000/svg">
<path d="M65 48.88C61.8118 48.88 58.6951 49.8254 56.0442 51.5967C53.3933 53.368 51.3271 55.8856 50.1071 58.8311C48.887 61.7767 48.5677 65.0179 49.1897 68.1449C49.8117 71.2718 51.347 74.1441 53.6014 76.3986C55.8559 78.653 58.7282 80.1883 61.8551 80.8103C64.9821 81.4323 68.2233 81.113 71.1689 79.8929C74.1144 78.6729 76.632 76.6067 78.4033 73.9558C80.1746 71.3049 81.12 68.1882 81.12 65C81.12 62.8831 80.703 60.7869 79.8929 58.8311C79.0828 56.8754 77.8954 55.0983 76.3986 53.6014C74.9017 52.1046 73.1246 50.9172 71.1689 50.1071C69.2131 49.297 67.1169 48.88 65 48.88ZM129.545 32.955C129.511 27.9354 128.586 22.9617 126.815 18.265C125.51 14.8282 123.492 11.7071 120.892 9.1077C118.293 6.5083 115.172 4.48966 111.735 3.185C107.038 1.41351 102.065 0.489196 97.045 0.455C88.66 -4.35859e-07 86.19 0 65 0C43.81 0 41.34 -4.35859e-07 32.955 0.455C27.9354 0.489196 22.9617 1.41351 18.265 3.185C14.8282 4.48966 11.7071 6.5083 9.1077 9.1077C6.5083 11.7071 4.48966 14.8282 3.185 18.265C1.41351 22.9617 0.489196 27.9354 0.455 32.955C-4.35859e-07 41.34 0 43.81 0 65C0 86.19 -4.35859e-07 88.66 0.455 97.045C0.524965 102.082 1.44803 107.071 3.185 111.8C4.48388 115.221 6.50084 118.324 9.1 120.9C11.6883 123.515 14.816 125.534 18.265 126.815C22.9617 128.586 27.9354 129.511 32.955 129.545C41.34 130 43.81 130 65 130C86.19 130 88.66 130 97.045 129.545C102.065 129.511 107.038 128.586 111.735 126.815C115.184 125.534 118.312 123.515 120.9 120.9C123.499 118.324 125.516 115.221 126.815 111.8C128.585 107.08 129.509 102.086 129.545 97.045C130 88.66 130 86.19 130 65C130 43.81 130 41.34 129.545 32.955ZM113.035 84.955C112.826 88.9662 111.97 92.9172 110.5 96.655C109.238 99.773 107.362 102.605 104.984 104.984C102.605 107.362 99.773 109.238 96.655 110.5C92.8818 111.888 88.9088 112.657 84.89 112.775H45.11C41.0912 112.657 37.1182 111.888 33.345 110.5C30.1217 109.302 27.2108 107.391 24.83 104.91C22.4748 102.578 20.656 99.7611 19.5 96.655C18.1061 92.8858 17.3589 88.9081 17.29 84.89V65V45.11C17.3589 41.0919 18.1061 37.1143 19.5 33.345C20.6978 30.1217 22.6088 27.2108 25.09 24.83C27.4322 22.4876 30.2462 20.6706 33.345 19.5C37.1182 18.1116 41.0912 17.3434 45.11 17.225H84.89C88.9088 17.3434 92.8818 18.1116 96.655 19.5C99.8783 20.6978 102.789 22.6088 105.17 25.09C107.525 27.4219 109.344 30.2389 110.5 33.345C111.888 37.1182 112.657 41.0912 112.775 45.11V65C112.775 78.39 113.23 79.755 113.035 84.89V84.955ZM102.635 36.595C101.861 34.4954 100.641 32.5887 99.0586 31.0064C97.4763 29.4241 95.5696 28.2039 93.47 27.43C90.5871 26.4307 87.5507 25.9466 84.5 26H45.5C42.4337 26.03 39.3969 26.6021 36.53 27.69C34.4625 28.4288 32.576 29.5991 30.9958 31.1233C29.4156 32.6475 28.1779 34.4905 27.365 36.53C26.421 39.4249 25.9599 42.4554 26 45.5V84.5C26.0644 87.5628 26.6355 90.5938 27.69 93.47C28.4639 95.5696 29.6841 97.4763 31.2664 99.0586C32.8487 100.641 34.7554 101.861 36.855 102.635C39.6283 103.655 42.5467 104.225 45.5 104.325H84.5C87.5663 104.295 90.6031 103.723 93.47 102.635C95.5696 101.861 97.4763 100.641 99.0586 99.0586C100.641 97.4763 101.861 95.5696 102.635 93.47C103.723 90.6031 104.295 87.5663 104.325 84.5V65V45.5C104.327 42.4307 103.754 39.3882 102.635 36.53V36.595ZM65 89.83C61.7423 89.83 58.5167 89.1873 55.5078 87.9387C52.4989 86.6901 49.766 84.8601 47.4655 82.5535C45.165 80.247 43.3422 77.5093 42.1014 74.4971C40.8607 71.485 40.2264 68.2577 40.235 65C40.235 60.0863 41.6929 55.2831 44.4242 51.1985C47.1554 47.1138 51.0372 43.9313 55.578 42.0539C60.1189 40.1765 65.1147 39.6886 69.933 40.652C74.7514 41.6153 79.1755 43.9866 82.6455 47.4656C86.1154 50.9447 88.4751 55.375 89.4258 60.1959C90.3765 65.0167 89.8755 70.0112 87.9862 74.5472C86.0969 79.0831 82.9043 82.9565 78.8125 85.677C74.7207 88.3976 69.9137 89.8429 65 89.83ZM91 45.045C89.5631 44.8929 88.2334 44.2144 87.2669 43.1403C86.3005 42.0662 85.7658 40.6724 85.7658 39.2275C85.7658 37.7826 86.3005 36.3888 87.2669 35.3147C88.2334 34.2406 89.5631 33.5621 91 33.41C92.4369 33.5621 93.7666 34.2406 94.7331 35.3147C95.6995 36.3888 96.2342 37.7826 96.2342 39.2275C96.2342 40.6724 95.6995 42.0662 94.7331 43.1403C93.7666 44.2144 92.4369 44.8929 91 45.045Z" fill="black"/>
</svg>
