<svg width="12" height="16" viewBox="0 0 12 16" fill="none" xmlns="http://www.w3.org/2000/svg">
<path fill-rule="evenodd" clip-rule="evenodd" d="M1.33306e-07 2V15.5C-6.32605e-05 15.5868 0.0224847 15.6722 0.0654247 15.7476C0.108365 15.8231 0.170217 15.8861 0.244892 15.9304C0.319567 15.9747 0.404491 15.9988 0.491305 16.0003C0.578119 16.0018 0.66383 15.9807 0.74 15.939L6 13.069L11.26 15.939C11.3362 15.9807 11.4219 16.0018 11.5087 16.0003C11.5955 15.9988 11.6804 15.9747 11.7551 15.9304C11.8298 15.8861 11.8916 15.8231 11.9346 15.7476C11.9775 15.6722 12.0001 15.5868 12 15.5V2C12 1.46957 11.7893 0.960859 11.4142 0.585786C11.0391 0.210714 10.5304 0 10 0H2C1.46957 0 0.960859 0.210714 0.585787 0.585786C0.210714 0.960859 1.33306e-07 1.46957 1.33306e-07 2ZM6.16667 7.54944C6.11734 7.58241 6.05933 7.6 6 7.6C5.92043 7.6 5.84413 7.56839 5.78787 7.51213C5.73161 7.45587 5.7 7.37957 5.7 7.3C5.7 7.24067 5.71759 7.18266 5.75056 7.13333C5.78352 7.08399 5.83038 7.04554 5.88519 7.02284C5.94001 7.00013 6.00033 6.99419 6.05853 7.00576C6.11672 7.01734 6.17018 7.04591 6.21213 7.08787C6.25409 7.12982 6.28266 7.18328 6.29424 7.24147C6.30581 7.29967 6.29987 7.35999 6.27716 7.41481C6.25446 7.46962 6.21601 7.51648 6.16667 7.54944ZM7.66667 7.54944C7.61734 7.58241 7.55933 7.6 7.5 7.6C7.42044 7.6 7.34413 7.56839 7.28787 7.51213C7.23161 7.45587 7.2 7.37957 7.2 7.3C7.2 7.24067 7.21759 7.18266 7.25056 7.13333C7.28352 7.08399 7.33038 7.04554 7.3852 7.02284C7.44001 7.00013 7.50033 6.99419 7.55853 7.00576C7.61672 7.01734 7.67018 7.04591 7.71213 7.08787C7.75409 7.12982 7.78266 7.18328 7.79424 7.24147C7.80581 7.29967 7.79987 7.35999 7.77716 7.41481C7.75446 7.46962 7.71601 7.51648 7.66667 7.54944ZM6.16667 8.74944C6.11734 8.78241 6.05933 8.8 6 8.8C5.92043 8.8 5.84413 8.76839 5.78787 8.71213C5.73161 8.65587 5.7 8.57957 5.7 8.5C5.7 8.44067 5.71759 8.38266 5.75056 8.33333C5.78352 8.28399 5.83038 8.24554 5.88519 8.22284C5.94001 8.20013 6.00033 8.19419 6.05853 8.20576C6.11672 8.21734 6.17018 8.24591 6.21213 8.28787C6.25409 8.32982 6.28266 8.38328 6.29424 8.44147C6.30581 8.49967 6.29987 8.55999 6.27716 8.61481C6.25446 8.66962 6.21601 8.71648 6.16667 8.74944ZM7.66667 8.74944C7.61734 8.78241 7.55933 8.8 7.5 8.8C7.42044 8.8 7.34413 8.76839 7.28787 8.71213C7.23161 8.65587 7.2 8.57957 7.2 8.5C7.2 8.44067 7.21759 8.38266 7.25056 8.33333C7.28352 8.28399 7.33038 8.24554 7.3852 8.22284C7.44001 8.20013 7.50033 8.19419 7.55853 8.20576C7.61672 8.21734 7.67018 8.24591 7.71213 8.28787C7.75409 8.32982 7.78266 8.38328 7.79424 8.44147C7.80581 8.49967 7.79987 8.55999 7.77716 8.61481C7.75446 8.66962 7.71601 8.71648 7.66667 8.74944ZM4.66667 7.54944C4.61734 7.58241 4.55933 7.6 4.5 7.6C4.42043 7.6 4.34413 7.56839 4.28787 7.51213C4.23161 7.45587 4.2 7.37957 4.2 7.3C4.2 7.24067 4.21759 7.18266 4.25056 7.13333C4.28352 7.08399 4.33038 7.04554 4.3852 7.02284C4.44001 7.00013 4.50033 6.99419 4.55853 7.00576C4.61672 7.01734 4.67018 7.04591 4.71213 7.08787C4.75409 7.12982 4.78266 7.18328 4.79424 7.24147C4.80581 7.29967 4.79987 7.35999 4.77716 7.41481C4.75446 7.46962 4.71601 7.51648 4.66667 7.54944ZM7.8 4.6H8.1C8.3387 4.6 8.56761 4.69482 8.7364 4.8636C8.90518 5.03239 9 5.26131 9 5.5V9.1C9 9.3387 8.90518 9.56761 8.7364 9.7364C8.56761 9.90518 8.3387 10 8.1 10H3.9C3.66131 10 3.43239 9.90518 3.2636 9.7364C3.09482 9.56761 3 9.3387 3 9.1V5.5C3 5.26131 3.09482 5.03239 3.2636 4.8636C3.43239 4.69482 3.66131 4.6 3.9 4.6H4.2V4.3C4.2 4.22044 4.23161 4.14413 4.28787 4.08787C4.34413 4.03161 4.42043 4 4.5 4C4.57957 4 4.65587 4.03161 4.71213 4.08787C4.76839 4.14413 4.8 4.22044 4.8 4.3V4.6H7.2V4.3C7.2 4.22044 7.23161 4.14413 7.28787 4.08787C7.34413 4.03161 7.42044 4 7.5 4C7.57957 4 7.65587 4.03161 7.71213 4.08787C7.76839 4.14413 7.8 4.22044 7.8 4.3V4.6ZM8.31213 9.31213C8.36839 9.25587 8.4 9.17957 8.4 9.1V6.4H3.6V9.1C3.6 9.17957 3.63161 9.25587 3.68787 9.31213C3.74413 9.36839 3.82044 9.4 3.9 9.4H8.1C8.17957 9.4 8.25587 9.36839 8.31213 9.31213ZM3.6 5.8H8.4V5.5C8.4 5.42043 8.36839 5.34413 8.31213 5.28787C8.25587 5.23161 8.17957 5.2 8.1 5.2H3.9C3.82044 5.2 3.74413 5.23161 3.68787 5.28787C3.63161 5.34413 3.6 5.42043 3.6 5.5V5.8ZM4.66667 8.74944C4.61734 8.78241 4.55933 8.8 4.5 8.8C4.42043 8.8 4.34413 8.76839 4.28787 8.71213C4.23161 8.65587 4.2 8.57957 4.2 8.5C4.2 8.44067 4.21759 8.38266 4.25056 8.33333C4.28352 8.28399 4.33038 8.24554 4.3852 8.22284C4.44001 8.20013 4.50033 8.19419 4.55853 8.20576C4.61672 8.21734 4.67018 8.24591 4.71213 8.28787C4.75409 8.32982 4.78266 8.38328 4.79424 8.44147C4.80581 8.49967 4.79987 8.55999 4.77716 8.61481C4.75446 8.66962 4.71601 8.71648 4.66667 8.74944Z" fill="white"/>
</svg>
