<svg width="20" height="20" viewBox="0 0 20 20" fill="none" xmlns="http://www.w3.org/2000/svg">
<path d="M4.21621 12.6436C4.21621 13.8061 3.27746 14.7457 2.11592 14.7457C0.954369 14.7457 0.015625 13.8061 0.015625 12.6436C0.015625 11.4812 0.954369 10.5417 2.11599 10.5417H4.21613V12.6437L4.21621 12.6436ZM5.26639 12.6436C5.26639 11.4812 6.20513 10.5417 7.36668 10.5417C8.52823 10.5417 9.46697 11.4812 9.46697 12.6437V17.8986C9.46697 19.061 8.52823 20.0006 7.3666 20.0006C6.20521 20.0006 5.26639 19.061 5.26639 17.8986V12.6437V12.6436Z" fill="#999999"/>
<path d="M7.36695 4.20392C6.20541 4.20392 5.26658 3.26443 5.26658 2.10196C5.26658 0.939491 6.20549 0 7.36695 0C8.52842 0 9.46724 0.939491 9.46724 2.10196V4.204H7.36687L7.36695 4.20392ZM7.36695 5.27085C8.5285 5.27085 9.46724 6.21034 9.46724 7.37281C9.46724 8.53528 8.5285 9.47477 7.36687 9.47477H2.10037C0.938744 9.47477 0 8.53528 0 7.37273C0 6.21042 0.938744 5.27085 2.10029 5.27085H7.36687H7.36695Z" fill="#999999"/>
<path d="M15.782 7.37281C15.782 6.21034 16.7208 5.27077 17.8822 5.27077C19.0438 5.27077 19.9826 6.21034 19.9826 7.37281C19.9826 8.53528 19.0438 9.47477 17.8822 9.47477H15.782V7.37273V7.37281ZM14.7318 7.37281C14.7318 8.53528 13.793 9.47477 12.6315 9.47477C11.47 9.47477 10.5312 8.53528 10.5312 7.37273V2.10204C10.5312 0.939491 11.47 0 12.6315 0C13.7929 0 14.7318 0.939491 14.7318 2.10196V7.37273L14.7318 7.37281Z" fill="#999999"/>
<path d="M12.6315 15.7967C13.793 15.7967 14.7318 16.7362 14.7318 17.8986C14.7318 19.061 13.793 20.0006 12.6315 20.0006C11.47 20.0006 10.5312 19.061 10.5312 17.8986V15.7967H12.6315H12.6315ZM12.6315 14.7457C11.47 14.7457 10.5312 13.8061 10.5312 12.6436C10.5312 11.4812 11.47 10.5417 12.6315 10.5417H17.8981C19.0597 10.5417 19.9985 11.4812 19.9985 12.6437C19.9985 13.8061 19.0597 14.7457 17.8981 14.7457H12.6315H12.6315Z" fill="#999999"/>
</svg>
