<svg width="182" height="23" viewBox="0 0 182 23" fill="none" xmlns="http://www.w3.org/2000/svg">
<rect width="182" height="23" fill="#EEEEEE"/>
<path fill-rule="evenodd" clip-rule="evenodd" d="M6.36366 15.8306V11.403H10.2571C12.4237 11.403 13.526 12.184 13.526 13.5587V13.5974C13.526 14.9722 12.3854 15.8306 10.512 15.8306H6.36366ZM6.36366 10.1767V5.85887H10.1105C11.8756 5.85887 12.8633 6.67856 12.8633 7.90485V7.94357C12.8633 9.39576 11.6908 10.1767 9.99583 10.1767H6.36366ZM5 17.0956H10.4737C13.1565 17.0956 14.9534 15.8306 14.9534 13.6749V13.6362C14.9534 11.9258 13.7809 11.0674 12.3089 10.6221C13.2648 10.2154 14.2589 9.35704 14.2589 7.71768V7.67895C14.2589 6.898 13.9657 6.22676 13.4496 5.70397C12.7486 4.99401 11.6526 4.5874 10.2507 4.5874H5V17.0956Z" fill="#666666"/>
<path fill-rule="evenodd" clip-rule="evenodd" d="M20.0658 16.205C18.8551 16.205 17.7909 15.4951 17.7909 14.3462V14.3075C17.7909 13.1909 18.7467 12.4487 20.4736 12.4487C21.576 12.4487 22.4554 12.6359 23.1181 12.8553V13.7137C23.1181 15.1594 21.7544 16.205 20.0658 16.205ZM19.8109 17.2829C21.4294 17.2829 22.4554 16.5406 23.1181 15.7209V17.0957H24.4435V11.4418C24.4435 10.2865 24.1122 9.39586 23.4877 8.72462C22.825 8.09212 21.8373 7.71777 20.5501 7.71777C19.1928 7.71777 18.237 8.05339 17.2429 8.49873L17.6443 9.6153C18.4918 9.24096 19.333 8.98279 20.3971 8.98279C22.124 8.98279 23.1181 9.8412 23.1181 11.4741V11.7387C22.2706 11.5128 21.4677 11.3644 20.327 11.3644C18.0139 11.3644 16.4336 12.4035 16.4336 14.3785V14.4172C16.4272 16.3147 18.1223 17.2829 19.8109 17.2829Z" fill="#666666"/>
<path fill-rule="evenodd" clip-rule="evenodd" d="M31.7841 17.3212C33.511 17.3212 34.5752 16.579 35.4928 15.5334L34.6453 14.7138C33.9125 15.4947 33.0267 16.0885 31.8542 16.0885C29.9426 16.0885 28.5088 14.4879 28.5088 12.4806V12.4419C28.5088 10.4669 29.9043 8.87273 31.7778 8.87273C32.9885 8.87273 33.7978 9.50524 34.5306 10.2862L35.4482 9.31807C34.5688 8.38867 33.4983 7.67871 31.7778 7.67871C29.1333 7.67871 27.1133 9.87313 27.1133 12.4806V12.5193C27.1197 15.1204 29.1396 17.3212 31.7841 17.3212Z" fill="#666666"/>
<path fill-rule="evenodd" clip-rule="evenodd" d="M37.3652 17.0953H38.7289V14.675L40.6023 12.7775L43.833 17.0953H45.4835L41.5199 11.8094L45.3369 7.86586H43.6483L38.7289 13.0421V4.0708H37.3652V17.0953Z" fill="#666666"/>
<path fill-rule="evenodd" clip-rule="evenodd" d="M47.8729 11.9259C48.0959 10.1381 49.2684 8.84084 50.8487 8.84084C52.6457 8.84084 53.6015 10.2543 53.7481 11.9259H47.8729ZM47.8729 13.0425H55.1118C55.15 12.8166 55.15 12.6682 55.15 12.5584C55.15 9.84124 53.5697 7.68555 50.887 7.68555C48.3508 7.68555 46.5156 9.80897 46.5156 12.4875C46.5156 15.3531 48.5739 17.3216 51.0718 17.3216C52.7986 17.3216 53.901 16.6117 54.8186 15.5725L53.9711 14.8303C53.2383 15.6113 52.3526 16.1341 51.1036 16.1341C49.4915 16.1276 48.0959 14.9723 47.8729 13.0425Z" fill="#666666"/>
<path fill-rule="evenodd" clip-rule="evenodd" d="M61.7189 16.0562C59.992 16.0562 58.52 14.6815 58.52 12.487V12.4483C58.52 10.2152 59.9538 8.91143 61.7189 8.91143C63.4075 8.91143 65.0261 10.3249 65.0261 12.4483V12.487C65.0261 14.604 63.4139 16.0562 61.7189 16.0562ZM61.464 17.2825C63.1526 17.2825 64.2168 16.3531 64.9878 15.2365V17.0953H66.3132V4.0708H64.9878V9.61493C64.255 8.57581 63.1909 7.67868 61.464 7.67868C59.2974 7.67868 57.1309 9.46649 57.1309 12.4806V12.5193C57.1309 15.5334 59.2974 17.2825 61.464 17.2825Z" fill="#666666"/>
<path fill-rule="evenodd" clip-rule="evenodd" d="M79.0252 16.0562C77.3366 16.0562 75.718 14.6427 75.718 12.487V12.4483C75.718 10.3636 77.3366 8.91143 79.0252 8.91143C80.7521 8.91143 82.224 10.2862 82.224 12.4806V12.5193C82.2177 14.7525 80.7839 16.0562 79.0252 16.0562ZM79.2418 17.2825C81.4466 17.2825 83.6132 15.4947 83.6132 12.4806V12.4419C83.6132 9.42776 81.4466 7.67868 79.2418 7.67868C77.5914 7.67868 76.489 8.60808 75.7499 9.72466V4.0708H74.3926V17.0953H75.7499V15.3075C76.4508 16.3531 77.5532 17.2825 79.2418 17.2825Z" fill="#666666"/>
<path fill-rule="evenodd" clip-rule="evenodd" d="M87.2908 20.0001C88.6481 20.0001 89.5338 19.3288 90.3049 17.3926L94.1282 7.86621H92.6945L89.7569 15.566L86.4433 7.86621H84.9395L89.0878 17.057C88.5398 18.3607 88.0236 18.806 87.2143 18.806C86.6281 18.806 86.2203 18.6963 85.7806 18.4317L85.3409 19.5483C85.9654 19.8516 86.5198 20.0001 87.2908 20.0001Z" fill="#666666"/>
<path fill-rule="evenodd" clip-rule="evenodd" d="M114.878 13.3779C114.508 13.933 113.96 14.3848 113.297 14.6817C111.94 15.2367 110.506 14.9398 109.442 13.9007C108.416 12.8616 108.117 11.4094 108.709 10.0282C109.225 8.76318 110.328 7.9435 111.647 7.83378H111.94C112.456 7.83378 112.896 7.42717 112.896 6.90438V4.96813C112.896 4.44534 112.456 4.03872 111.94 4.03872C108.926 4.03872 106.358 5.74908 105.217 8.57601C104.045 11.4029 104.669 14.4558 106.798 16.6115C108.926 18.7671 111.978 19.3674 114.769 18.1734C116.898 17.2827 118.408 15.5336 118.994 13.3715H120.721V16.1274V16.6115V18.0249C120.721 18.5477 121.161 18.993 121.677 18.993H131.777C132.293 18.993 132.733 18.5477 132.733 18.0249V16.1274C132.733 15.6046 132.293 15.1593 131.777 15.1593H124.506V13.3715H129.687C130.203 13.3715 130.642 12.9648 130.642 12.4033V10.5445C130.642 9.98947 130.203 9.57641 129.687 9.57641H124.506V7.93705H137.843V18.0636C137.843 18.5864 138.283 19.0318 138.799 19.0318H140.672C141.188 19.0318 141.628 18.5864 141.628 18.0636V7.9435H145.745C146.293 7.9435 146.739 7.53689 146.739 6.97537V5.11657C146.739 4.56151 146.299 4.14845 145.745 4.14845H140.672H138.799H121.683C121.167 4.14845 120.727 4.55506 120.727 5.11657V6.97537V7.05282V7.09155V9.58286H112.239C111.691 9.58286 111.284 9.98947 111.284 10.551V12.4098C111.284 12.9648 111.685 13.3779 112.239 13.3779H114.878ZM151.983 11.4029C151.983 11.2932 152.021 11.2158 152.021 11.106V5.07785C152.021 4.52279 151.582 4.10972 151.065 4.10972H149.116C148.599 4.10972 148.16 4.51633 148.16 5.07785V11.106C148.16 11.2158 148.198 11.3319 148.198 11.4029C148.198 14.1201 149.555 16.4243 151.868 17.7668C154.181 19.1415 156.864 19.1415 159.177 17.7668C160.904 16.7276 162.077 15.1593 162.555 13.3005H164.39V17.728C164.39 18.2831 164.829 18.6962 165.346 18.6962H167.219C167.735 18.6962 168.175 18.2895 168.175 17.728V13.3005H172.731H173.317C173.464 13.3005 173.61 13.2617 173.757 13.1907C175.006 12.9326 176.07 12.1516 176.733 10.9576C177.58 9.50541 177.58 7.79505 176.733 6.30414C176.032 5.14884 175.006 4.36789 173.757 4.10972C173.61 4.03227 173.464 4 173.317 4H172.731H167.334C167.257 4 167.187 4 167.111 4.03872H165.346C164.829 4.03872 164.39 4.44534 164.39 5.00685V9.54414H162.739V5.11657C162.739 4.56151 162.338 4.14845 161.822 4.14845H159.987C159.439 4.14845 159.031 4.55506 159.031 5.11657V10.4348V10.4735V11.3642C159.031 12.668 158.406 13.8168 157.266 14.4493C156.163 15.1205 154.876 15.1205 153.742 14.488C152.639 13.8233 151.983 12.7067 151.983 11.4029ZM168.181 7.75633H172.737V7.83378C173.031 7.83378 173.285 7.98223 173.438 8.24039C173.623 8.49856 173.623 8.79545 173.438 9.06007C173.292 9.31824 173.037 9.46668 172.737 9.46668V9.54414H168.181V7.75633Z" fill="#666666"/>
</svg>
