<?xml version="1.0" encoding="utf-8"?>
<!-- Generator: Adobe Illustrator 25.1.0, SVG Export Plug-In . SVG Version: 6.00 Build 0)  -->
<svg version="1.1" id="Camada_1" xmlns="http://www.w3.org/2000/svg" xmlns:xlink="http://www.w3.org/1999/xlink" x="0px" y="0px"
	 viewBox="0 0 295.98 42.53" style="enable-background:new 0 0 295.98 42.53;" xml:space="preserve">
<style type="text/css">
	.st0{fill-rule:evenodd;clip-rule:evenodd;fill:#79797C;}
</style>
<path class="st0" d="M15.57,26.34v-6.86h6.11c3.4,0,5.13,1.21,5.13,3.34v0.06c0,2.13-1.79,3.46-4.73,3.46H15.57z M15.57,17.58v-6.69
	h5.88c2.77,0,4.32,1.27,4.32,3.17v0.06c0,2.25-1.84,3.46-4.5,3.46H15.57z M13.43,28.3h8.59c4.21,0,7.03-1.96,7.03-5.3v-0.06
	c0-2.65-1.84-3.98-4.15-4.67c1.5-0.63,3.06-1.96,3.06-4.5v-0.06c0-1.21-0.46-2.25-1.27-3.06c-1.1-1.1-2.82-1.73-5.02-1.73h-8.24
	V28.3z"/>
<path class="st0" d="M37.07,26.92c-1.9,0-3.57-1.1-3.57-2.88v-0.06c0-1.73,1.5-2.88,4.21-2.88c1.73,0,3.11,0.29,4.15,0.63v1.33
	C41.86,25.3,39.72,26.92,37.07,26.92z M36.67,28.59c2.54,0,4.15-1.15,5.19-2.42v2.13h2.08v-8.76c0-1.79-0.52-3.17-1.5-4.21
	c-1.04-0.98-2.59-1.56-4.61-1.56c-2.13,0-3.63,0.52-5.19,1.21l0.63,1.73c1.33-0.58,2.65-0.98,4.32-0.98c2.71,0,4.27,1.33,4.27,3.86
	V20c-1.33-0.35-2.59-0.58-4.38-0.58c-3.63,0-6.11,1.61-6.11,4.67v0.06C31.36,27.09,34.02,28.59,36.67,28.59z"/>
<path class="st0" d="M55.46,28.65c2.71,0,4.38-1.15,5.82-2.77l-1.33-1.27c-1.15,1.21-2.54,2.13-4.38,2.13c-3,0-5.25-2.48-5.25-5.59
	v-0.06c0-3.06,2.19-5.53,5.13-5.53c1.9,0,3.17,0.98,4.32,2.19l1.44-1.5c-1.38-1.44-3.06-2.54-5.76-2.54c-4.15,0-7.32,3.4-7.32,7.44
	v0.06C48.14,25.24,51.31,28.65,55.46,28.65z"/>
<polygon class="st0" points="64.22,28.3 66.36,28.3 66.36,24.55 69.3,21.61 74.37,28.3 76.96,28.3 70.74,20.11 76.73,14 74.08,14 
	66.36,22.02 66.36,8.12 64.22,8.12 "/>
<path class="st0" d="M80.71,20.29c0.35-2.77,2.19-4.78,4.67-4.78c2.82,0,4.32,2.19,4.55,4.78H80.71z M80.71,22.02h11.36
	c0.06-0.35,0.06-0.58,0.06-0.75c0-4.21-2.48-7.55-6.69-7.55c-3.98,0-6.86,3.29-6.86,7.44c0,4.44,3.23,7.49,7.15,7.49
	c2.71,0,4.44-1.1,5.88-2.71l-1.33-1.15c-1.15,1.21-2.54,2.02-4.5,2.02C83.25,26.8,81.06,25.01,80.71,22.02z"/>
<path class="st0" d="M102.44,26.69c-2.71,0-5.02-2.13-5.02-5.53v-0.06c0-3.46,2.25-5.48,5.02-5.48c2.65,0,5.19,2.19,5.19,5.48v0.06
	C107.63,24.44,105.1,26.69,102.44,26.69z M102.04,28.59c2.65,0,4.32-1.44,5.53-3.17v2.88h2.08V8.12h-2.08v8.59
	c-1.15-1.61-2.82-3-5.53-3c-3.4,0-6.8,2.77-6.8,7.44v0.06C95.24,25.88,98.64,28.59,102.04,28.59z"/>
<path class="st0" d="M129.6,26.69c-2.65,0-5.19-2.19-5.19-5.53v-0.06c0-3.23,2.54-5.48,5.19-5.48c2.71,0,5.02,2.13,5.02,5.53v0.06
	C134.61,24.67,132.36,26.69,129.6,26.69z M129.94,28.59c3.46,0,6.86-2.77,6.86-7.44v-0.06c0-4.67-3.4-7.38-6.86-7.38
	c-2.59,0-4.32,1.44-5.48,3.17V8.12h-2.13V28.3h2.13v-2.77C125.56,27.15,127.29,28.59,129.94,28.59z"/>
<path class="st0" d="M142.57,32.8c2.13,0,3.52-1.04,4.73-4.04l6-14.76h-2.25l-4.61,11.93L141.24,14h-2.36l6.51,14.24
	c-0.86,2.02-1.67,2.71-2.94,2.71c-0.92,0-1.56-0.17-2.25-0.58l-0.69,1.73C140.49,32.57,141.36,32.8,142.57,32.8z"/>
<path class="st0" d="M185.86,22.54c-0.58,0.86-1.44,1.56-2.48,2.02c-2.13,0.86-4.38,0.4-6.05-1.21c-1.61-1.61-2.08-3.86-1.15-6
	c0.81-1.96,2.54-3.23,4.61-3.4h0.46c0.81,0,1.5-0.63,1.5-1.44v-3c0-0.81-0.69-1.44-1.5-1.44l0,0c-4.73,0-8.76,2.65-10.55,7.03
	c-1.84,4.38-0.86,9.11,2.48,12.45s8.13,4.27,12.51,2.42c3.34-1.38,5.71-4.09,6.63-7.44h2.71v4.27v0.75v2.19c0,0.81,0.69,1.5,1.5,1.5
	h15.85c0.81,0,1.5-0.69,1.5-1.5V26.8c0-0.81-0.69-1.5-1.5-1.5h-11.41v-2.77h8.13c0.81,0,1.5-0.63,1.5-1.5v-2.88
	c0-0.86-0.69-1.5-1.5-1.5h-8.13v-2.54h20.93V29.8c0,0.81,0.69,1.5,1.5,1.5h2.94c0.81,0,1.5-0.69,1.5-1.5V14.12h6.46
	c0.86,0,1.56-0.63,1.56-1.5V9.74c0-0.86-0.69-1.5-1.56-1.5h-7.96h-2.94h-26.86c-0.81,0-1.5,0.63-1.5,1.5v2.88v0.12v0.06v3.86h-13.32
	c-0.86,0-1.5,0.63-1.5,1.5v2.88c0,0.86,0.63,1.5,1.5,1.5H185.86z M244.09,19.48c0-0.17,0.06-0.29,0.06-0.46V9.68
	c0-0.86-0.69-1.5-1.5-1.5h-3.06c-0.81,0-1.5,0.63-1.5,1.5v9.34c0,0.17,0.06,0.35,0.06,0.46c0,4.21,2.13,7.78,5.76,9.86
	c3.63,2.13,7.84,2.13,11.47,0c2.71-1.61,4.55-4.04,5.3-6.92h2.88v6.86c0,0.86,0.69,1.5,1.5,1.5h2.94c0.81,0,1.5-0.63,1.5-1.5v-6.86
	h7.15h0.92c0.23,0,0.46-0.06,0.69-0.17c1.96-0.4,3.63-1.61,4.67-3.46c1.33-2.25,1.33-4.9,0-7.21c-1.1-1.79-2.71-3-4.67-3.4
	c-0.23-0.12-0.46-0.17-0.69-0.17h-0.92l0,0h-8.47c-0.12,0-0.23,0-0.35,0.06h-2.77c-0.81,0-1.5,0.63-1.5,1.5v7.03h-2.59V9.74
	c0-0.86-0.63-1.5-1.44-1.5h-2.88c-0.86,0-1.5,0.63-1.5,1.5v8.24v0.06l0,0v1.38c0,2.02-0.98,3.8-2.77,4.78
	c-1.73,1.04-3.75,1.04-5.53,0.06C245.12,23.23,244.09,21.5,244.09,19.48L244.09,19.48z M269.51,13.83h7.15v0.12
	c0.46,0,0.86,0.23,1.1,0.63c0.29,0.4,0.29,0.86,0,1.27c-0.23,0.4-0.63,0.63-1.1,0.63v0.12h-7.15V13.83z"/>
</svg>
