<svg width="26" height="26" viewBox="0 0 26 26" fill="none" xmlns="http://www.w3.org/2000/svg">
<rect width="26" height="26" fill="#EEEEEE"/>
<path d="M13.0042 0C7.57686 0 5.98956 0.00560047 5.68102 0.0312026C4.56723 0.12381 3.87416 0.299225 3.1191 0.675257C2.53721 0.964282 2.0783 1.29931 1.62538 1.76895C0.800538 2.62542 0.300632 3.67911 0.119666 4.93162C0.0316829 5.53967 0.00608774 5.66368 0.000888722 8.76954C-0.0011109 9.80483 0.000888722 11.1673 0.000888722 12.9949C0.000888722 18.4194 0.0068876 20.0055 0.0328827 20.3135C0.122866 21.3976 0.292834 22.0797 0.652766 22.8257C1.34064 24.2539 2.65439 25.3259 4.2021 25.726C4.738 25.864 5.32989 25.94 6.08974 25.976C6.41168 25.99 9.69307 26 12.9764 26C16.2598 26 19.5432 25.996 19.8572 25.98C20.737 25.9386 21.2479 25.87 21.8128 25.724C23.3705 25.3219 24.6603 24.2659 25.3621 22.8177C25.7151 22.0897 25.894 21.3816 25.975 20.3541C25.9926 20.1301 26 16.5584 26 12.9915C26 9.424 25.992 5.8589 25.9744 5.63488C25.8924 4.59079 25.7135 3.88873 25.3491 3.14667C25.0502 2.53922 24.7182 2.08558 24.2363 1.62174C23.3763 0.800068 22.3245 0.300025 21.0711 0.11921C20.4638 0.0314027 20.3429 0.00540046 17.2354 0H13.0042Z" fill="url(#paint0_radial)"/>
<path d="M13.0042 0C7.57686 0 5.98956 0.00560047 5.68102 0.0312026C4.56723 0.12381 3.87416 0.299225 3.1191 0.675257C2.53721 0.964282 2.0783 1.29931 1.62538 1.76895C0.800538 2.62542 0.300632 3.67911 0.119666 4.93162C0.0316829 5.53967 0.00608774 5.66368 0.000888722 8.76954C-0.0011109 9.80483 0.000888722 11.1673 0.000888722 12.9949C0.000888722 18.4194 0.0068876 20.0055 0.0328827 20.3135C0.122866 21.3976 0.292834 22.0797 0.652766 22.8257C1.34064 24.2539 2.65439 25.3259 4.2021 25.726C4.738 25.864 5.32989 25.94 6.08974 25.976C6.41168 25.99 9.69307 26 12.9764 26C16.2598 26 19.5432 25.996 19.8572 25.98C20.737 25.9386 21.2479 25.87 21.8128 25.724C23.3705 25.3219 24.6603 24.2659 25.3621 22.8177C25.7151 22.0897 25.894 21.3816 25.975 20.3541C25.9926 20.1301 26 16.5584 26 12.9915C26 9.424 25.992 5.8589 25.9744 5.63488C25.8924 4.59079 25.7135 3.88873 25.3491 3.14667C25.0502 2.53922 24.7182 2.08558 24.2363 1.62174C23.3763 0.800068 22.3245 0.300025 21.0711 0.11921C20.4638 0.0314027 20.3429 0.00540046 17.2354 0H13.0042Z" fill="url(#paint1_radial)"/>
<path d="M12.9974 3.40039C10.3907 3.40039 10.0636 3.41179 9.03978 3.4584C8.01797 3.5052 7.3205 3.66701 6.71021 3.90443C6.07893 4.14965 5.54343 4.47768 5.00993 5.01153C4.47603 5.54517 4.1481 6.08082 3.90214 6.71207C3.66419 7.32272 3.50222 8.02058 3.45623 9.04227C3.41044 10.0664 3.39844 10.3938 3.39844 13.0012C3.39844 15.6086 3.41004 15.9349 3.45643 16.9589C3.50342 17.981 3.66519 18.6787 3.90234 19.2891C4.1477 19.9206 4.47563 20.4562 5.00933 20.9899C5.54263 21.5239 6.07813 21.8528 6.70901 22.098C7.3197 22.3354 8.01737 22.4972 9.03898 22.544C10.0628 22.5906 10.3897 22.602 12.9962 22.602C15.6031 22.602 15.9293 22.5906 16.9531 22.544C17.9749 22.4972 18.6732 22.3354 19.2838 22.098C19.9149 21.8528 20.4496 21.5239 20.9829 20.9899C21.5168 20.4562 21.8448 19.9206 22.0907 19.2893C22.3267 18.6787 22.4886 17.9808 22.5366 16.9591C22.5826 15.9351 22.5946 15.6086 22.5946 13.0012C22.5946 10.3938 22.5826 10.0666 22.5366 9.04247C22.4886 8.02038 22.3267 7.32272 22.0907 6.71227C21.8448 6.08082 21.5168 5.54517 20.9829 5.01153C20.449 4.47748 19.9151 4.14945 19.2833 3.90443C18.6714 3.66701 17.9735 3.5052 16.9517 3.4584C15.9279 3.41179 15.6019 3.40039 12.9944 3.40039H12.9974ZM12.1364 5.13054C12.3919 5.13014 12.6771 5.13054 12.9974 5.13054C15.5602 5.13054 15.8639 5.13974 16.8759 5.18574C17.8117 5.22855 18.3196 5.38496 18.658 5.51637C19.1059 5.69038 19.4252 5.8984 19.761 6.23443C20.0969 6.57046 20.3049 6.89049 20.4792 7.33852C20.6106 7.67655 20.7672 8.1846 20.8098 9.12067C20.8558 10.1328 20.8658 10.4368 20.8658 12.999C20.8658 15.5612 20.8558 15.8652 20.8098 16.8773C20.767 17.8134 20.6106 18.3215 20.4792 18.6595C20.3053 19.1075 20.0969 19.4265 19.761 19.7624C19.425 20.0984 19.1061 20.3064 18.658 20.4804C18.32 20.6124 17.8117 20.7685 16.8759 20.8113C15.8641 20.8573 15.5602 20.8673 12.9974 20.8673C10.4345 20.8673 10.1308 20.8573 9.11896 20.8113C8.18314 20.7681 7.67523 20.6116 7.3367 20.4802C6.88878 20.3062 6.56884 20.0982 6.2329 19.7622C5.89697 19.4261 5.68901 19.1069 5.51464 18.6587C5.38326 18.3207 5.22669 17.8126 5.1841 16.8765C5.13811 15.8644 5.12891 15.5604 5.12891 12.9966C5.12891 10.4328 5.13811 10.1304 5.1841 9.11828C5.22689 8.1822 5.38326 7.67415 5.51464 7.33572C5.68861 6.88769 5.89697 6.56766 6.2329 6.23163C6.56884 5.8956 6.88878 5.68758 7.3367 5.51317C7.67503 5.38116 8.18314 5.22515 9.11896 5.18214C10.0044 5.14214 10.3475 5.13014 12.1364 5.12814V5.13054ZM18.1209 6.72467C17.485 6.72467 16.9691 7.24012 16.9691 7.87637C16.9691 8.51242 17.485 9.02847 18.1209 9.02847C18.7567 9.02847 19.2727 8.51242 19.2727 7.87637C19.2727 7.24032 18.7567 6.72427 18.1209 6.72427V6.72467ZM12.9974 8.07079C10.2753 8.07079 8.06836 10.2784 8.06836 13.0012C8.06836 15.724 10.2753 17.9306 12.9974 17.9306C15.7195 17.9306 17.9257 15.724 17.9257 13.0012C17.9257 10.2784 15.7193 8.07079 12.9972 8.07079H12.9974ZM12.9974 9.80093C14.7643 9.80093 16.1968 11.2337 16.1968 13.0012C16.1968 14.7686 14.7643 16.2015 12.9974 16.2015C11.2304 16.2015 9.79803 14.7686 9.79803 13.0012C9.79803 11.2337 11.2304 9.80093 12.9974 9.80093Z" fill="white"/>
<defs>
<radialGradient id="paint0_radial" cx="0" cy="0" r="1" gradientUnits="userSpaceOnUse" gradientTransform="translate(6.90628 28.0025) rotate(-90) scale(25.7679 23.9662)">
<stop stop-color="#FFDD55"/>
<stop offset="0.1" stop-color="#FFDD55"/>
<stop offset="0.5" stop-color="#FF543E"/>
<stop offset="1" stop-color="#C837AB"/>
</radialGradient>
<radialGradient id="paint1_radial" cx="0" cy="0" r="1" gradientUnits="userSpaceOnUse" gradientTransform="translate(-4.35514 1.873) rotate(78.6806) scale(11.5184 47.4792)">
<stop stop-color="#3771C8"/>
<stop offset="0.128" stop-color="#3771C8"/>
<stop offset="1" stop-color="#6600FF" stop-opacity="0"/>
</radialGradient>
</defs>
</svg>
