<svg width="20" height="20" viewBox="0 0 20 20" fill="none" xmlns="http://www.w3.org/2000/svg">
<path d="M10.0033 0C5.82836 0 4.60736 0.00430806 4.37002 0.024002C3.51325 0.0952388 2.98012 0.230173 2.39931 0.519429C1.9517 0.741755 1.59869 0.999469 1.25029 1.36073C0.615799 2.01956 0.231256 2.83009 0.0920511 3.79355C0.0243715 4.26128 0.00468288 4.35668 0.000683632 6.7458C-0.00085454 7.54218 0.000683632 8.59027 0.000683632 9.99608C0.000683632 14.1687 0.00529815 15.3888 0.0252944 15.6258C0.0945121 16.4597 0.225257 16.9844 0.502128 17.5583C1.03126 18.6568 2.04184 19.4815 3.23238 19.7892C3.64461 19.8954 4.09991 19.9538 4.68442 19.9815C4.93206 19.9923 7.4562 20 9.98188 20C12.5076 20 15.0332 19.9969 15.2747 19.9846C15.9515 19.9528 16.3445 19.9 16.7791 19.7877C17.9773 19.4784 18.9694 18.666 19.5093 17.5521C19.7808 16.9921 19.9185 16.4474 19.9808 15.657C19.9943 15.4847 20 12.7372 20 9.99346C20 7.24923 19.9938 4.50684 19.9803 4.33452C19.9172 3.53138 19.7796 2.99133 19.4993 2.42051C19.2694 1.95324 19.014 1.60429 18.6433 1.24749C17.9818 0.615437 17.1727 0.230789 16.2086 0.0917001C15.7414 0.0241559 15.6484 0.0041542 13.258 0H10.0033Z" fill="#999999"/>
<path d="M10.0033 0C5.82836 0 4.60736 0.00430806 4.37002 0.024002C3.51325 0.0952388 2.98012 0.230173 2.39931 0.519429C1.9517 0.741755 1.59869 0.999469 1.25029 1.36073C0.615799 2.01956 0.231256 2.83009 0.0920511 3.79355C0.0243715 4.26128 0.00468288 4.35668 0.000683632 6.7458C-0.00085454 7.54218 0.000683632 8.59027 0.000683632 9.99608C0.000683632 14.1687 0.00529815 15.3888 0.0252944 15.6258C0.0945121 16.4597 0.225257 16.9844 0.502128 17.5583C1.03126 18.6568 2.04184 19.4815 3.23238 19.7892C3.64461 19.8954 4.09991 19.9538 4.68442 19.9815C4.93206 19.9923 7.4562 20 9.98188 20C12.5076 20 15.0332 19.9969 15.2747 19.9846C15.9515 19.9528 16.3445 19.9 16.7791 19.7877C17.9773 19.4784 18.9694 18.666 19.5093 17.5521C19.7808 16.9921 19.9185 16.4474 19.9808 15.657C19.9943 15.4847 20 12.7372 20 9.99346C20 7.24923 19.9938 4.50684 19.9803 4.33452C19.9172 3.53138 19.7796 2.99133 19.4993 2.42051C19.2694 1.95324 19.014 1.60429 18.6433 1.24749C17.9818 0.615437 17.1727 0.230789 16.2086 0.0917001C15.7414 0.0241559 15.6484 0.0041542 13.258 0H10.0033Z" fill="#999999"/>
<path d="M9.99908 2.61572C7.99391 2.61572 7.74227 2.62449 6.95473 2.66034C6.16872 2.69635 5.63221 2.82082 5.16276 3.00345C4.67715 3.19208 4.26523 3.44441 3.85485 3.85506C3.44416 4.26555 3.1919 4.67759 3.0027 5.16317C2.81966 5.6329 2.69507 6.16972 2.65969 6.95563C2.62446 7.74339 2.61523 7.99525 2.61523 10.001C2.61523 12.0067 2.62416 12.2576 2.65984 13.0454C2.69599 13.8316 2.82043 14.3683 3.00285 14.8378C3.19159 15.3236 3.44385 15.7356 3.85439 16.1461C4.26462 16.5569 4.67654 16.8098 5.16183 16.9985C5.63159 17.1811 6.16826 17.3056 6.95411 17.3416C7.74165 17.3774 7.99315 17.3862 9.99815 17.3862C12.0035 17.3862 12.2543 17.3774 13.0419 17.3416C13.8279 17.3056 14.365 17.1811 14.8348 16.9985C15.3202 16.8098 15.7315 16.5569 16.1418 16.1461C16.5525 15.7356 16.8047 15.3236 16.9939 14.838C17.1754 14.3683 17.3 13.8314 17.3369 13.0455C17.3723 12.2578 17.3815 12.0067 17.3815 10.001C17.3815 7.99525 17.3723 7.74354 17.3369 6.95578C17.3 6.16956 17.1754 5.6329 16.9939 5.16332C16.8047 4.67759 16.5525 4.26555 16.1418 3.85506C15.7311 3.44425 15.3204 3.19193 14.8343 3.00345C14.3636 2.82082 13.8268 2.69635 13.0408 2.66034C12.2533 2.62449 12.0025 2.61572 9.99677 2.61572H9.99908ZM9.33674 3.9466C9.53332 3.9463 9.75266 3.9466 9.99908 3.9466C11.9704 3.9466 12.204 3.95368 12.9825 3.98907C13.7024 4.022 14.0931 4.14231 14.3533 4.2434C14.6979 4.37726 14.9435 4.53727 15.2018 4.79575C15.4602 5.05424 15.6202 5.30041 15.7543 5.64506C15.8554 5.90508 15.9758 6.29588 16.0086 7.01594C16.0439 7.79447 16.0516 8.02833 16.0516 9.99927C16.0516 11.9702 16.0439 12.2041 16.0086 12.9826C15.9756 13.7027 15.8554 14.0935 15.7543 14.3535C15.6205 14.6981 15.4602 14.9435 15.2018 15.2019C14.9434 15.4603 14.698 15.6204 14.3533 15.7542C14.0934 15.8558 13.7024 15.9758 12.9825 16.0087C12.2042 16.0441 11.9704 16.0518 9.99908 16.0518C8.0276 16.0518 7.79395 16.0441 7.01564 16.0087C6.29577 15.9755 5.90508 15.8552 5.64466 15.7541C5.30011 15.6202 5.05401 15.4602 4.79559 15.2017C4.53718 14.9432 4.37721 14.6977 4.24308 14.3529C4.14202 14.0928 4.02159 13.702 3.98882 12.982C3.95344 12.2035 3.94637 11.9696 3.94637 9.99742C3.94637 8.02526 3.95344 7.79262 3.98882 7.0141C4.02174 6.29403 4.14202 5.90323 4.24308 5.6429C4.3769 5.29826 4.53718 5.05208 4.79559 4.7936C5.05401 4.53512 5.30011 4.3751 5.64466 4.24094C5.90492 4.13939 6.29577 4.01938 7.01564 3.9863C7.69674 3.95553 7.96069 3.9463 9.33674 3.94476V3.9466ZM13.9402 5.17286C13.451 5.17286 13.0542 5.56936 13.0542 6.05878C13.0542 6.54806 13.451 6.94501 13.9402 6.94501C14.4293 6.94501 14.8262 6.54806 14.8262 6.05878C14.8262 5.56951 14.4293 5.17255 13.9402 5.17255V5.17286ZM9.99908 6.20833C7.90516 6.20833 6.20748 7.90648 6.20748 10.001C6.20748 12.0954 7.90516 13.7928 9.99908 13.7928C12.093 13.7928 13.7901 12.0954 13.7901 10.001C13.7901 7.90648 12.0928 6.20833 9.99892 6.20833H9.99908ZM9.99908 7.53922C11.3582 7.53922 12.4602 8.64131 12.4602 10.001C12.4602 11.3605 11.3582 12.4627 9.99908 12.4627C8.63979 12.4627 7.538 11.3605 7.538 10.001C7.538 8.64131 8.63979 7.53922 9.99908 7.53922Z" fill="#EEEEEE"/>
</svg>
