<svg width="26" height="26" viewBox="0 0 26 26" fill="none" xmlns="http://www.w3.org/2000/svg">
<rect width="26" height="25.9999" fill="#EEEEEE"/>
<path d="M5.48207 16.4362C5.48207 17.9474 4.26174 19.1688 2.75178 19.1688C1.24181 19.1688 0.0214844 17.9474 0.0214844 16.4362C0.0214844 14.9252 1.24181 13.7039 2.75188 13.7039H5.48197V16.4363L5.48207 16.4362ZM6.84726 16.4362C6.84726 14.9252 8.06759 13.7039 9.57755 13.7039C11.0875 13.7039 12.3078 14.9252 12.3078 16.4363V23.2674C12.3078 24.7786 11.0875 26 9.57745 26C8.06769 26 6.84726 24.7786 6.84726 23.2674V16.4363V16.4362Z" fill="#E01E5A"/>
<path d="M9.57674 5.46493C8.06678 5.46493 6.84634 4.24363 6.84634 2.73246C6.84634 1.2213 8.06688 0 9.57674 0C11.0866 0 12.307 1.2213 12.307 2.73246V5.46503H9.57664L9.57674 5.46493ZM9.57674 6.85189C11.0867 6.85189 12.307 8.07319 12.307 9.58436C12.307 11.0955 11.0867 12.3168 9.57664 12.3168H2.73039C1.22033 12.3168 0 11.0955 0 9.58425C0 8.07329 1.22033 6.85189 2.73029 6.85189H9.57664H9.57674Z" fill="#36C5F0"/>
<path d="M20.5191 9.58436C20.5191 8.07319 21.7395 6.85179 23.2493 6.85179C24.7593 6.85179 25.9797 8.07319 25.9797 9.58436C25.9797 11.0955 24.7593 12.3168 23.2493 12.3168H20.5191V9.58425V9.58436ZM19.1539 9.58436C19.1539 11.0955 17.9335 12.3168 16.4235 12.3168C14.9137 12.3168 13.6934 11.0955 13.6934 9.58425V2.73257C13.6934 1.2213 14.9137 0 16.4235 0C17.9334 0 19.1538 1.2213 19.1538 2.73246V9.58425L19.1539 9.58436Z" fill="#2EB67D"/>
<path d="M16.4235 20.5351C17.9335 20.5351 19.1539 21.7564 19.1539 23.2674C19.1539 24.7786 17.9335 26 16.4235 26C14.9137 26 13.6934 24.7786 13.6934 23.2674V20.5351H16.4237H16.4235ZM16.4235 19.1688C14.9137 19.1688 13.6934 17.9474 13.6934 16.4362C13.6934 14.9252 14.9137 13.7039 16.4237 13.7039H23.27C24.78 13.7039 26.0004 14.9252 26.0004 16.4363C26.0004 17.9474 24.78 19.1688 23.27 19.1688H16.4237H16.4235Z" fill="#ECB22E"/>
</svg>
