<svg width="28" height="24" viewBox="0 0 28 24" fill="none" xmlns="http://www.w3.org/2000/svg">
<rect width="28" height="24" fill="#EEEEEE"/>
<path d="M28 2.84106C26.9697 3.32292 25.8626 3.64858 24.7006 3.79508C25.8868 3.04525 26.7975 1.85786 27.2264 0.443094C26.0988 1.14884 24.8651 1.64609 23.5786 1.91335C22.5307 0.735876 21.0378 0 19.3855 0C16.213 0 13.6408 2.71278 13.6408 6.05866C13.6408 6.53359 13.6917 6.99595 13.7896 7.43951C9.01534 7.18676 4.78253 4.77471 1.94917 1.10906C1.4548 2.0039 1.17152 3.04479 1.17152 4.155C1.17152 6.25708 2.18575 8.11148 3.72706 9.19804C2.81482 9.16791 1.92265 8.90804 1.12503 8.44013C1.1247 8.46551 1.1247 8.49089 1.1247 8.51639C1.1247 11.4519 3.10483 13.9008 5.73267 14.4574C4.88675 14.7 3.99944 14.7355 3.13852 14.5612C3.86947 16.9683 5.99102 18.7199 8.50467 18.7689C6.53866 20.3939 4.06164 21.3625 1.37036 21.3625C0.906609 21.3625 0.449422 21.3338 0 21.2779C2.5422 22.997 5.56172 24 8.80578 24C19.3722 24 25.1501 14.7677 25.1501 6.76131C25.1501 6.49852 25.1447 6.23724 25.1335 5.97745C26.2581 5.11997 27.2288 4.05789 28 2.84106Z" fill="#55ACEE"/>
</svg>
