<svg width="96" height="94" viewBox="0 0 96 94" fill="none" xmlns="http://www.w3.org/2000/svg">
<path fill-rule="evenodd" clip-rule="evenodd" d="M48 0L86.493 18.6179L96 60.4518L69.362 94H26.638L0 60.4518L9.50699 18.6179L48 0ZM78.4857 53.9314C76.1329 53.0345 73.6859 52.5954 71.3157 54.1495C70.3819 54.7618 69.8156 55.1331 69.2592 55.5177C68.4034 56.1092 67.5698 56.7326 65.4545 58.3148C63.2533 58.9762 62.6016 56.7807 62.5195 54.1273C57.2553 53.5647 52.5897 56.1393 50.9772 58.4447C49.9963 59.8476 49.2569 61.3578 48.6478 62.6019C47.7476 64.4405 47.1319 65.6979 46.4419 65.1688C46.0627 64.8779 47.2974 61.0481 49.5043 57.7757C51.0793 55.4391 52.98 53.8926 55.0167 53.209C56.725 52.6349 58.9509 52.2069 62.5484 52.107C62.6155 50.7969 62.7576 49.5182 62.8669 48.5349C62.9126 48.1233 62.9527 47.7626 62.979 47.474C62.9936 47.314 65.0158 31.0591 65.4679 28.32C65.9977 25.0962 64.904 22.9582 62.6777 22.5947C60.286 22.2068 58.75 25.3967 58.4826 27.0499C58.4037 27.5367 58.2873 28.2284 58.1456 29.0704L58.1452 29.0728C57.5445 32.6415 56.4901 38.9057 55.916 43.6975C55.916 43.6975 55.8042 44.2647 55.6584 44.3713C54.6181 45.1325 53.9521 43.7993 53.9521 43.7993C53.7063 40.0817 53.6777 30.4498 53.664 25.848L53.664 25.8451C53.6611 24.8975 53.6589 24.1635 53.6556 23.7388C53.607 19.4435 52.2945 17.4123 50.0439 17.4074C47.0787 17.4026 46.1891 19.9429 46.2329 24.1363C46.2413 24.8608 46.2802 26.1608 46.3297 27.8159C46.4515 31.8866 46.6375 38.1049 46.5926 43.1885C45.5086 45.1276 44.1961 43.4551 44.1961 43.4551C43.7463 39.9072 43.3218 35.7817 42.969 32.3535C42.647 29.224 42.3847 26.675 42.2177 25.6779C41.6489 22.2844 40.4969 20.7282 38.2462 20.9124C35.9081 21.1015 35.0866 23.0116 35.49 26.9723L35.5463 27.5236C35.9009 30.9973 36.9205 40.9863 37.4296 45.2488C36.8462 47.9394 34.9796 46.4269 34.9796 46.4269C33.7255 39.8871 32.9963 36.3723 32.5734 34.7289C31.6839 31.253 30.5998 30.1767 28.4221 30.7682C26.0111 31.4275 25.9333 33.5945 26.4194 36.7456C26.4682 37.0634 26.565 37.6534 26.695 38.4459C27.4317 42.9383 29.2349 53.9343 29.4332 58.755C29.8026 67.4618 33.706 74.8112 38.115 76.6583C44.3128 79.2567 52.7904 79.247 59.8388 75.3687C60.951 74.7557 62.3669 73.1476 63.6124 71.733C64.2775 70.9777 64.8943 70.2771 65.3901 69.813C65.4477 69.7569 65.7899 69.3587 66.2743 68.7951C67.6289 67.2189 70.0955 64.3489 70.5574 64.0489C72.1664 63.0066 73.7851 62.037 74.9906 61.3923C76.2885 60.699 77.5913 59.8991 78.16 59.4725C81.237 57.1698 80.6537 54.7604 78.4857 53.9314Z" fill="#F2C76E"/>
</svg>
