<svg width="20" height="20" viewBox="0 0 20 20" fill="none" xmlns="http://www.w3.org/2000/svg">
<path fill-rule="evenodd" clip-rule="evenodd" d="M11.2899 18.8889H8.75694L8.05333 16.7368C7.58426 16.5965 7.11519 16.4093 6.69303 16.1754L4.62911 17.2047L2.84665 15.4269L3.8786 13.3684C3.64407 12.9473 3.45644 12.4795 3.31572 12.0117L1.11108 11.2631V8.73682L3.26881 8.03506C3.40953 7.56722 3.59716 7.09939 3.83169 6.67834L2.79974 4.61986L4.58221 2.84208L6.64612 3.87132C7.06828 3.6374 7.53735 3.45027 8.00642 3.30991L8.75694 1.11108H11.2899L11.9935 3.26313C12.4626 3.40348 12.9317 3.59062 13.3538 3.82453L15.4177 2.79529L17.2002 4.57307L16.1683 6.63155C16.4028 7.0526 16.5904 7.52044 16.7311 7.98828L18.8889 8.69003V11.2163L16.7311 11.9181C16.5904 12.3859 16.4028 12.8538 16.1683 13.2748L17.2002 15.3333L15.4177 17.1111L13.3538 16.0818C12.9317 16.3158 12.4626 16.5029 11.9935 16.6432L11.2899 18.8889ZM10 15C12.7614 15 15 12.7614 15 10C15 7.23858 12.7614 5 10 5C7.23858 5 5 7.23858 5 10C5 12.7614 7.23858 15 10 15Z" fill="white"/>
</svg>
