<svg width="20" height="20" viewBox="0 0 20 20" fill="none" xmlns="http://www.w3.org/2000/svg">
<path d="M14 14.2225L11.7775 12L14 9.7775L12.2225 8L10 10.2225L7.7775 8L6 9.7775L8.2225 12L6 14.2225L7.7775 16L10 13.7775L12.2225 16L14 14.2225Z" fill="#6C6C6C"/>
<path fill-rule="evenodd" clip-rule="evenodd" d="M19 4.6H14.5V1.9C14.5 1.66131 14.4052 1.43239 14.2364 1.2636C14.0676 1.09482 13.8387 1 13.6 1H6.4C6.1613 1 5.93239 1.09482 5.7636 1.2636C5.59482 1.43239 5.5 1.66131 5.5 1.9V4.6H1V6.4H2.8V18.1C2.8 18.3387 2.89482 18.5676 3.0636 18.7364C3.23239 18.9052 3.4613 19 3.7 19H16.3C16.5387 19 16.7676 18.9052 16.9364 18.7364C17.1052 18.5676 17.2 18.3387 17.2 18.1V6.4H19V4.6ZM4.6 6.4H15.4V17.2H4.6V6.4ZM7.3 4.6V2.8H12.7V4.6H7.3Z" fill="#6C6C6C"/>
</svg>
