<svg width="20" height="20" viewBox="0 0 20 20" fill="none" xmlns="http://www.w3.org/2000/svg">
<path d="M10.1765 14.1176V15.8798C13.3823 15.7876 15.9525 13.1904 15.9525 10C15.9525 8.5274 15.4049 7.18118 14.5 6.14934L16.3399 4.65493C17.5829 6.09342 18.3334 7.9601 18.3334 10C18.3334 14.49 14.6974 18.1407 10.1765 18.2335V20L6.60507 17.0588L10.1765 14.1176Z" fill="white"/>
<path d="M10.0001 5.88235L13.5715 2.94118L10.0001 0V1.76471C5.39771 1.76471 1.66675 5.45177 1.66675 10C1.66675 12.0392 2.41673 13.9053 3.65899 15.3436L5.5 13.8505C4.5952 12.8187 4.0477 11.4725 4.0477 10C4.0477 6.75127 6.71267 4.11765 10.0001 4.11765V5.88235Z" fill="white"/>
</svg>
