<svg width="150" height="13" viewBox="0 0 150 13" fill="none" xmlns="http://www.w3.org/2000/svg">
<path fill-rule="evenodd" clip-rule="evenodd" d="M1.1867 9.61234V6.01493H4.5749C6.46032 6.01493 7.41966 6.64946 7.41966 7.76644V7.7979C7.41966 8.91488 6.42705 9.61234 4.79672 9.61234H1.1867ZM1.1867 5.01856V1.51029H4.44736C5.98342 1.51029 6.84295 2.17628 6.84295 3.17265V3.20411C6.84295 4.38403 5.8226 5.01856 4.34754 5.01856H1.1867ZM0 10.6402H4.76345C7.09803 10.6402 8.66182 9.61234 8.66182 7.86083V7.82937C8.66182 6.43969 7.64148 5.74223 6.3605 5.3804C7.1923 5.05002 8.05738 4.35256 8.05738 3.02057V2.98911C8.05738 2.35458 7.80229 1.8092 7.35312 1.38443C6.74313 0.807583 5.78933 0.477208 4.56936 0.477208H0V10.6402Z" fill="#B7B7B7"/>
<path fill-rule="evenodd" clip-rule="evenodd" d="M13.1092 9.9165C12.0556 9.9165 11.1295 9.33965 11.1295 8.40621V8.37475C11.1295 7.46753 11.9613 6.86446 13.4641 6.86446C14.4234 6.86446 15.1887 7.01654 15.7654 7.19484V7.89229C15.7654 9.06696 14.5787 9.9165 13.1092 9.9165ZM12.8874 10.7923C14.2959 10.7923 15.1887 10.1892 15.7654 9.52319V10.6402H16.9188V6.04639C16.9188 5.10771 16.6305 4.38403 16.087 3.83864C15.5103 3.32473 14.6508 3.02057 13.5306 3.02057C12.3495 3.02057 11.5177 3.29326 10.6526 3.6551L11.002 4.56232C11.7395 4.25817 12.4715 4.04841 13.3975 4.04841C14.9003 4.04841 15.7654 4.74587 15.7654 6.07261V6.28762C15.0279 6.10407 14.3292 5.98346 13.3365 5.98346C11.3236 5.98346 9.94834 6.82775 9.94834 8.43243V8.4639C9.94279 10.0056 11.4178 10.7923 12.8874 10.7923Z" fill="#B7B7B7"/>
<path fill-rule="evenodd" clip-rule="evenodd" d="M23.3071 10.8237C24.8098 10.8237 25.7359 10.2207 26.5344 9.37112L25.7969 8.70512C25.1592 9.33965 24.3884 9.82211 23.3681 9.82211C21.7045 9.82211 20.4568 8.52158 20.4568 6.89068V6.85922C20.4568 5.25454 21.6712 3.95926 23.3015 3.95926C24.3551 3.95926 25.0594 4.47317 25.6971 5.1077L26.4956 4.3211C25.7304 3.56595 24.7988 2.98911 23.3015 2.98911C21.0002 2.98911 19.2423 4.77209 19.2423 6.89068V6.92215C19.2479 9.0355 21.0057 10.8237 23.3071 10.8237Z" fill="#B7B7B7"/>
<path fill-rule="evenodd" clip-rule="evenodd" d="M28.1648 10.6402H29.3515V8.67366L30.9818 7.13191L33.7933 10.6402H35.2295L31.7803 6.3453L35.102 3.14119H33.6325L29.3515 7.34691V0.0576844H28.1648V10.6402Z" fill="#B7B7B7"/>
<path fill-rule="evenodd" clip-rule="evenodd" d="M37.309 6.43969C37.5031 4.98709 38.5235 3.93304 39.8987 3.93304C41.4625 3.93304 42.2943 5.08148 42.4218 6.43969H37.309ZM37.309 7.34691H43.6085C43.6418 7.16337 43.6418 7.04276 43.6418 6.95361C43.6418 4.74587 42.2666 2.99435 39.932 2.99435C37.7249 2.99435 36.1279 4.71964 36.1279 6.89593C36.1279 9.22428 37.919 10.8237 40.0928 10.8237C41.5956 10.8237 42.5549 10.2469 43.3535 9.40258L42.6159 8.79952C41.9782 9.43405 41.2074 9.85881 40.1205 9.85881C38.7175 9.85357 37.5031 8.91489 37.309 7.34691Z" fill="#B7B7B7"/>
<path fill-rule="evenodd" clip-rule="evenodd" d="M49.3591 9.79589C47.8563 9.79589 46.5753 8.6789 46.5753 6.89593V6.86446C46.5753 5.05002 47.823 3.99072 49.3591 3.99072C50.8286 3.99072 52.2371 5.13917 52.2371 6.86446V6.89593C52.2371 8.61597 50.8341 9.79589 49.3591 9.79589ZM49.1372 10.7923C50.6068 10.7923 51.5328 10.0371 52.2038 9.12989V10.6402H53.3572V0.0576844H52.2038V4.56232C51.5661 3.71803 50.64 2.98911 49.1372 2.98911C47.2518 2.98911 45.3664 4.44171 45.3664 6.89068V6.92215C45.3664 9.37112 47.2518 10.7923 49.1372 10.7923Z" fill="#B7B7B7"/>
<path fill-rule="evenodd" clip-rule="evenodd" d="M64.4202 9.79589C62.9507 9.79589 61.5422 8.64744 61.5422 6.89593V6.86446C61.5422 5.17063 62.9507 3.99072 64.4202 3.99072C65.923 3.99072 67.2039 5.1077 67.2039 6.89068V6.92215C67.1984 8.73659 65.9507 9.79589 64.4202 9.79589ZM64.6087 10.7923C66.5274 10.7923 68.4128 9.33965 68.4128 6.89068V6.85922C68.4128 4.41025 66.5274 2.98911 64.6087 2.98911C63.1725 2.98911 62.2131 3.74425 61.5699 4.65147V0.0576844H60.3887V10.6402H61.5699V9.18758C62.1799 10.0371 63.1392 10.7923 64.6087 10.7923Z" fill="#B7B7B7"/>
<path fill-rule="evenodd" clip-rule="evenodd" d="M71.6125 13C72.7937 13 73.5644 12.4546 74.2354 10.8814L77.5626 3.14119H76.3149L73.7585 9.39734L70.875 3.14119H69.5663L73.1763 10.6087C72.6994 11.668 72.2502 12.0299 71.5459 12.0299C71.0358 12.0299 70.6809 11.9407 70.2982 11.7257L69.9156 12.6329C70.4591 12.8794 70.9415 13 71.6125 13Z" fill="#B7B7B7"/>
<path fill-rule="evenodd" clip-rule="evenodd" d="M95.6183 7.61961C95.2966 8.07059 94.8197 8.43768 94.243 8.6789C93.0619 9.12989 91.8142 8.88866 90.8881 8.04437C89.9953 7.20008 89.7347 6.02017 90.2504 4.89794C90.6995 3.87011 91.6589 3.20411 92.8068 3.11497H93.0619C93.511 3.11497 93.8937 2.78459 93.8937 2.35982V0.786608C93.8937 0.361839 93.511 0.031464 93.0619 0.031464C90.4389 0.031464 88.2041 1.42114 87.2115 3.71803C86.1912 6.01493 86.7346 8.49536 88.5868 10.2469C90.4389 11.9984 93.0951 12.4861 95.524 11.5159C97.3761 10.7923 98.6904 9.37112 99.2006 7.61436H100.703V11.3953C100.703 11.8201 101.086 12.1819 101.535 12.1819H110.325C110.774 12.1819 111.156 11.8201 111.156 11.3953V9.85357C111.156 9.4288 110.774 9.06696 110.325 9.06696H103.997V7.61436H108.506C108.955 7.61436 109.337 7.28399 109.337 6.82775V5.31747C109.337 4.86648 108.955 4.53086 108.506 4.53086H103.997V3.19887H115.604V11.4268C115.604 11.8516 115.986 12.2134 116.435 12.2134H118.066C118.515 12.2134 118.898 11.8516 118.898 11.4268V3.20411H122.48C122.957 3.20411 123.345 2.87374 123.345 2.41751V0.90722C123.345 0.456232 122.962 0.120613 122.48 0.120613H101.541C101.092 0.120613 100.709 0.450988 100.709 0.90722V4.5361H93.3225C92.8456 4.5361 92.4907 4.86648 92.4907 5.32271V6.833C92.4907 7.28399 92.8401 7.61961 93.3225 7.61961H95.6183ZM127.909 6.01493C127.909 5.92578 127.942 5.86285 127.942 5.7737V0.875756C127.942 0.424768 127.559 0.0891489 127.11 0.0891489H125.413C124.964 0.0891489 124.582 0.419524 124.582 0.875756V5.7737C124.582 5.86285 124.615 5.95724 124.615 6.01493C124.615 8.22267 125.796 10.0948 127.809 11.1856C129.822 12.3025 132.156 12.3025 134.169 11.1856C135.672 10.3413 136.693 9.06696 137.108 7.55668H138.706V11.1541C138.706 11.6051 139.088 11.9407 139.537 11.9407H141.168C141.617 11.9407 141.999 11.6103 141.999 11.1541V7.55668H146.475C146.602 7.55668 146.73 7.52521 146.857 7.46753C147.944 7.25777 148.87 6.62324 149.447 5.65309C150.184 4.47318 150.184 3.0835 149.447 1.87213C148.837 0.933441 147.944 0.298911 146.857 0.0891489C146.73 0.0262203 146.602 0 146.475 0H141.267C141.201 0 141.14 -2.79359e-07 141.073 0.031464H139.537C139.088 0.031464 138.706 0.361839 138.706 0.818072V4.50464H137.269V0.90722C137.269 0.456232 136.92 0.120613 136.471 0.120613H134.874C134.397 0.120613 134.042 0.450988 134.042 0.90722V5.98346C134.042 7.04276 133.498 7.9762 132.506 8.49012C131.547 9.0355 130.426 9.0355 129.439 8.52158C128.48 7.98144 127.909 7.07422 127.909 6.01493ZM142.005 3.05204H145.97V3.11497C146.225 3.11497 146.447 3.23558 146.58 3.44534C146.741 3.6551 146.741 3.89633 146.58 4.11134C146.452 4.3211 146.231 4.44171 145.97 4.44171V4.50464H142.005V3.05204Z" fill="#B7B7B7"/>
</svg>
