<svg width="76" height="76" viewBox="0 0 76 76" fill="none" xmlns="http://www.w3.org/2000/svg">
<path d="M47.4273 35.0685C47.4645 35.9905 47.5453 37.9888 47.2472 38.3786C47.1073 38.5615 46.7462 38.8601 46.3594 39.1798C45.814 39.6307 45.2176 40.1238 45.119 40.3941C45.0475 40.581 45.0707 40.8396 45.0955 41.1155C45.1291 41.4904 45.1657 41.8972 44.9714 42.1996C44.6343 42.7244 43.9389 43.3753 43.9389 43.3753C43.3911 42.1156 42.2321 41.0029 41.7474 40.751C41.2839 40.499 39.4295 40.499 39.4295 40.499C39.6557 40.3761 39.9866 40.2488 40.331 40.1163C41.0454 39.8413 41.8175 39.5442 41.8317 39.2184C41.8739 38.7355 40.1038 37.035 40.1038 37.035C40.1038 37.035 40.5042 38.5466 39.9985 39.0504C39.4927 39.5543 38.102 40.1211 38.102 40.1211C38.102 40.1211 36.7112 39.5543 36.2055 39.0504C35.6998 38.5466 36.1002 37.035 36.1002 37.035C36.1002 37.035 34.3512 38.7355 34.3723 39.2184C34.386 39.5205 35.1122 39.8047 35.8075 40.0768C36.1751 40.2206 36.534 40.3611 36.7745 40.499C36.7745 40.499 34.9412 40.499 34.4566 40.751C33.9719 41.0029 32.7919 42.1156 32.2651 43.3753C32.2651 43.3753 31.5697 42.7244 31.2325 42.1996C31.0383 41.8972 31.0749 41.4904 31.1085 41.1155C31.1333 40.8396 31.1565 40.581 31.085 40.3941C30.9876 40.1391 30.404 39.6526 29.8638 39.2022C29.4698 38.8737 29.099 38.5646 28.9568 38.3786C28.6589 37.9706 28.7393 35.9895 28.7766 35.07C28.7816 34.9487 28.7857 34.8459 28.7882 34.7676C28.7882 34.7676 33.3397 36.2792 38.102 36.2792C42.8432 36.2792 47.4158 34.7676 47.4158 34.7676C47.4182 34.8454 47.4224 34.9477 47.4273 35.0685Z" fill="#D7D7D7"/>
<path d="M36.0438 42.9213C36.6328 42.8566 37.4122 42.7708 38.102 42.2835C38.7986 42.7545 39.5688 42.845 40.1521 42.9135C40.5569 42.9611 40.8718 42.9981 41.0099 43.1443C41.9581 44.11 42.1267 45.7476 42.1267 45.7476C42.1057 45.7251 42.0846 45.7023 42.0633 45.6794C41.5283 45.1042 40.8877 44.4153 39.9352 44.173C38.9448 43.9211 38.102 43.5642 38.102 43.5642C38.102 43.5642 37.2591 43.9211 36.2687 44.173C35.2783 44.4249 34.604 45.1597 34.0772 45.7476C34.0772 45.7476 34.2458 44.131 35.194 43.1443C35.3305 42.9998 35.6431 42.9654 36.0438 42.9213Z" fill="#D7D7D7"/>
<path fill-rule="evenodd" clip-rule="evenodd" d="M66.6331 24.6058C66.886 24.5639 67.0757 24.7948 66.9703 25.0257C65.4742 28.3008 60.2905 31.7649 53.0628 33.8853C52.8521 35.8588 53.0628 38.3152 54.6643 40.6665C57.7023 45.1059 57.4101 48.3912 57.1332 51.5028C57.0933 51.9522 57.0536 52.3981 57.0243 52.8432C56.7925 56.3703 60.2483 58.4907 60.2483 58.4907C54.7907 59.4145 52.7678 55.6355 52.7678 55.6355C53.1628 57.8986 52.735 59.302 52.3532 60.5543C52.0019 61.7068 51.6896 62.7313 52.0935 64.1802C52.9364 67.2034 55.2964 67.2873 55.2964 67.2873C49.2488 70.4575 46.2144 64.2642 46.2144 64.2642C38.7128 69.7227 43.0958 76 43.0958 76C32.328 75.916 33.0023 67.4553 33.0023 67.4553C31.3166 70.7304 28.7879 71.7381 28.7879 71.7381C28.7879 71.7381 29.5189 68.6999 28.0211 65.4551C26.842 66.3249 24.9332 67.1153 22.0965 66.6351C22.0965 66.6351 24.9533 64.8822 25.2978 61.9129C20.7177 57.8069 21.9606 52.2134 21.9606 52.2134C19.3688 54.9007 21.8764 59.9183 21.8764 59.9183C13.7847 54.2289 17.662 46.6079 20.3592 42.9129C23.0564 39.2389 23.3725 33.7384 23.3725 33.7384C19.2824 32.3278 16.9032 31.1628 15.417 30.4351C15.1114 30.2855 14.8437 30.1544 14.6065 30.0434C12.4361 29.0356 10.2868 29.2456 9.29641 29.4345C9.08569 29.4765 8.91712 29.2456 9.04355 29.0566C13.3001 22.8843 22.8667 21.3727 23.3303 21.3097C23.225 20.9948 23.0564 20.6169 22.8246 20.239C22.2135 19.3153 21.9606 17.7197 26.0697 15.2214C30.1787 12.723 32.602 11.1275 32.602 11.1275C32.602 11.1275 28.7037 12.2402 26.765 12.912C26.765 12.912 29.7573 7.3275 29.9469 5.73193C30.1102 4.18645 31.341 3.46823 32.8543 2.58521C32.9034 2.55659 32.9527 2.5278 33.0023 2.4988L33.1004 2.44148C34.6911 1.51147 37.2756 0.000468636 38.0807 0.000468636C38.3125 -0.0415201 43.6858 2.75073 44.5498 3.27559C45.3769 3.77809 45.586 4.29984 46.1941 5.81734C46.2211 5.88484 46.2489 5.95432 46.2777 6.02585C46.952 7.70539 49.6281 13.2689 49.6281 13.2689C48.5745 12.912 43.8755 9.59488 43.7069 9.27997C43.5383 8.96505 42.9272 6.76065 42.9272 6.76065C42.9272 6.76065 42.6744 8.77611 42.6954 9.61588C42.7376 10.4557 45.8984 12.849 46.8255 13.4159C47.7527 13.9617 50.4288 15.7042 52.241 16.9009C54.0743 18.0976 53.695 19.8611 53.0839 20.5539C52.8942 20.7639 52.7889 21.0158 52.7257 21.2677C56.2868 22.1495 58.7944 23.1572 60.1219 23.7451C62.9666 25.0047 65.5585 24.7948 66.6331 24.6058ZM38.1017 43.5637C38.1017 43.5637 38.9446 43.9206 39.935 44.1726C40.9254 44.4245 41.5997 45.1593 42.1265 45.7471C42.1265 45.7471 41.9579 44.1306 41.0097 43.1438C40.8732 42.9994 40.5606 42.965 40.1599 42.9209C39.5709 42.8561 38.7915 42.7704 38.1017 42.2831C37.4051 42.7541 36.635 42.8446 36.0516 42.9131C35.6468 42.9607 35.3319 42.9977 35.1938 43.1438C34.2456 44.1096 34.077 45.7471 34.077 45.7471C34.098 45.7246 34.1191 45.7019 34.1404 45.679C34.6754 45.1037 35.316 44.4148 36.2685 44.1726C37.2589 43.9206 38.1017 43.5637 38.1017 43.5637ZM46.3399 39.2017C46.7339 38.8733 47.1048 38.5641 47.247 38.3781C47.5841 37.9163 47.4577 35.4389 47.4155 34.7671C47.4155 34.7671 42.864 36.2787 38.1017 36.2787C33.3606 36.2787 28.7879 34.7671 28.7879 34.7671C28.7855 34.8449 28.7814 34.9472 28.7765 35.068C28.7392 35.99 28.6584 37.9883 28.9565 38.3781C29.0987 38.5641 29.4696 38.8733 29.8636 39.2017C30.4037 39.6521 30.9873 40.1387 31.0848 40.3936C31.1563 40.5805 31.133 40.8391 31.1083 41.115C31.0746 41.4899 31.0381 41.8968 31.2323 42.1991C31.5694 42.724 32.2648 43.3748 32.2648 43.3748C32.8127 42.1151 33.9716 41.0024 34.4563 40.7505C34.9199 40.4986 36.7742 40.4986 36.7742 40.4986C36.548 40.3757 36.2171 40.2483 35.8728 40.1158C35.1584 39.8409 34.3862 39.5437 34.372 39.2179C34.3299 38.735 36.0999 37.0345 36.0999 37.0345C36.0999 37.0345 35.6995 38.5461 36.2053 39.0499C36.711 39.5538 38.1017 40.1207 38.1017 40.1207C38.1017 40.1207 39.4925 39.5538 39.9982 39.0499C40.504 38.5461 40.1036 37.0345 40.1036 37.0345C40.1036 37.0345 41.8525 38.735 41.8315 39.2179C41.8177 39.5201 41.0915 39.8042 40.3962 40.0763C40.0287 40.2202 39.6698 40.3606 39.4293 40.4986C39.4293 40.4986 41.2625 40.4986 41.7472 40.7505C42.2318 41.0024 43.4119 42.1151 43.9387 43.3748C43.9387 43.3748 44.634 42.724 44.9712 42.1991C45.1654 41.8968 45.1289 41.4899 45.0952 41.115C45.0704 40.8391 45.0472 40.5805 45.1187 40.3936C45.2162 40.1387 45.7998 39.6521 46.3399 39.2017Z" fill="#22262B"/>
</svg>
