<svg width="76" height="76" viewBox="0 0 76 76" fill="none" xmlns="http://www.w3.org/2000/svg">
<path d="M42.3291 25.9747C42.3291 28.6312 40.1755 30.7848 37.5189 30.7848C34.8624 30.7848 32.7088 28.6312 32.7088 25.9747C32.7088 23.3181 34.8624 21.1646 37.5189 21.1646C40.1755 21.1646 42.3291 23.3181 42.3291 25.9747Z" fill="#D7D7D7"/>
<path d="M27.8987 44.2532C27.8987 46.9097 25.7451 49.0633 23.0886 49.0633C20.432 49.0633 18.2784 46.9097 18.2784 44.2532C18.2784 41.5966 20.432 39.443 23.0886 39.443C25.7451 39.443 27.8987 41.5966 27.8987 44.2532Z" fill="#D7D7D7"/>
<path d="M51.9493 53.8734C54.6059 53.8734 56.7595 51.7198 56.7595 49.0633C56.7595 46.4067 54.6059 44.2532 51.9493 44.2532C49.2928 44.2532 47.1392 46.4067 47.1392 49.0633C47.1392 51.7198 49.2928 53.8734 51.9493 53.8734Z" fill="#D7D7D7"/>
<path fill-rule="evenodd" clip-rule="evenodd" d="M23.0886 16.3544C22.5573 16.3544 22.1266 16.7851 22.1266 17.3165V39.443C22.1266 39.4752 22.1282 39.507 22.1312 39.5383C19.9333 39.9822 18.2785 41.9244 18.2785 44.2532C18.2785 46.5819 19.9333 48.5241 22.1312 48.968C22.1282 48.9994 22.1266 49.0311 22.1266 49.0633V58.6835C22.1266 59.2149 22.5573 59.6456 23.0886 59.6456C23.6199 59.6456 24.0506 59.2149 24.0506 58.6835V49.0633C24.0506 49.0311 24.0491 48.9994 24.046 48.968C26.2439 48.5241 27.8987 46.5819 27.8987 44.2532C27.8987 41.9244 26.2439 39.9822 24.046 39.5383C24.0491 39.507 24.0506 39.4752 24.0506 39.443V17.3165C24.0506 16.7851 23.6199 16.3544 23.0886 16.3544ZM23.0886 46.1772C24.1512 46.1772 25.0127 45.3158 25.0127 44.2532C25.0127 43.1905 24.1512 42.3291 23.0886 42.3291C22.026 42.3291 21.1646 43.1905 21.1646 44.2532C21.1646 45.3158 22.026 46.1772 23.0886 46.1772Z" fill="#22262B"/>
<path fill-rule="evenodd" clip-rule="evenodd" d="M42.3291 25.9747C42.3291 28.3034 40.6742 30.2457 38.4764 30.6895C38.4794 30.7209 38.481 30.7527 38.481 30.7848V58.6835C38.481 59.2149 38.0503 59.6456 37.519 59.6456C36.9877 59.6456 36.557 59.2149 36.557 58.6835V30.7848C36.557 30.7527 36.5585 30.7209 36.5616 30.6895C34.3637 30.2457 32.7089 28.3034 32.7089 25.9747C32.7089 23.6459 34.3637 21.7037 36.5616 21.2598C36.5585 21.2285 36.557 21.1967 36.557 21.1646V17.3165C36.557 16.7851 36.9877 16.3544 37.519 16.3544C38.0503 16.3544 38.481 16.7851 38.481 17.3165V21.1646C38.481 21.1967 38.4794 21.2285 38.4764 21.2598C40.6742 21.7037 42.3291 23.6459 42.3291 25.9747ZM37.519 27.8987C38.5816 27.8987 39.443 27.0373 39.443 25.9747C39.443 24.9121 38.5816 24.0506 37.519 24.0506C36.4564 24.0506 35.5949 24.9121 35.5949 25.9747C35.5949 27.0373 36.4564 27.8987 37.519 27.8987Z" fill="#22262B"/>
<path fill-rule="evenodd" clip-rule="evenodd" d="M56.7595 49.0633C56.7595 51.392 55.1046 53.3343 52.9067 53.7781C52.9098 53.8095 52.9114 53.8413 52.9114 53.8734V58.6835C52.9114 59.2149 52.4807 59.6456 51.9494 59.6456C51.4181 59.6456 50.9873 59.2149 50.9873 58.6835V53.8734C50.9873 53.8413 50.9889 53.8095 50.992 53.7781C48.7941 53.3343 47.1392 51.392 47.1392 49.0633C47.1392 46.7345 48.7941 44.7923 50.992 44.3484C50.9889 44.3171 50.9873 44.2853 50.9873 44.2532V17.3165C50.9873 16.7851 51.4181 16.3544 51.9494 16.3544C52.4807 16.3544 52.9114 16.7851 52.9114 17.3165V44.2532C52.9114 44.2853 52.9098 44.3171 52.9067 44.3484C55.1046 44.7923 56.7595 46.7345 56.7595 49.0633ZM51.9494 50.9873C53.012 50.9873 53.8734 50.1259 53.8734 49.0633C53.8734 48.0007 53.012 47.1392 51.9494 47.1392C50.8867 47.1392 50.0253 48.0007 50.0253 49.0633C50.0253 50.1259 50.8867 50.9873 51.9494 50.9873Z" fill="#22262B"/>
<path fill-rule="evenodd" clip-rule="evenodd" d="M76 38C76 58.9868 58.9868 76 38 76C17.0132 76 0 58.9868 0 38C0 17.0132 17.0132 0 38 0C58.9868 0 76 17.0132 76 38ZM71.1899 38C71.1899 56.3303 56.3303 71.1899 38 71.1899C19.6697 71.1899 4.81013 56.3303 4.81013 38C4.81013 19.6697 19.6697 4.81013 38 4.81013C56.3303 4.81013 71.1899 19.6697 71.1899 38Z" fill="#22262B"/>
</svg>
