<svg width="28" height="28" viewBox="0 0 28 28" fill="none" xmlns="http://www.w3.org/2000/svg">
<path d="M13.9918 2.0001C13.6738 2.00029 13.3675 2.11988 13.1333 2.33526L1.3837 12.7111L1.37278 12.721C0.994737 13.0713 0.906855 13.6429 1.09718 14.0601C1.2875 14.4775 1.73367 14.776 2.23964 14.7762H5.2692V24.8044C5.2692 25.4891 5.86409 25.9997 6.51644 26H11.5169L11.812 25.4025C10.2738 24.3838 9.06201 22.9234 8.37171 21.2016L6.40452 21.6392L5.79419 19.0508L7.76413 18.6121C7.74529 18.3764 7.7357 18.1383 7.7357 17.8981C7.7357 16.249 8.18746 14.7024 8.97467 13.3713L7.40423 12.15L9.09658 10.0895L10.6539 11.3003C12.0058 10.057 13.7393 9.20678 15.6617 8.93285V7H18.3384V8.92965C20.2649 9.19942 22.0027 10.0478 23.3585 11.2908L24.2357 10.6088L14.867 2.33526C14.6285 2.11593 14.3155 1.99605 13.9918 2.0001Z" fill="white"/>
<path d="M25.7604 14.7762H25.7215C25.5359 14.2821 25.3075 13.8083 25.0409 13.3591L26.269 12.4044L26.6163 12.7111L26.6272 12.721C27.0053 13.0713 27.0931 13.6431 26.9028 14.0603C26.7125 14.4778 26.2663 14.7762 25.7604 14.7762Z" fill="white"/>
<path fill-rule="evenodd" clip-rule="evenodd" d="M20.7003 25.9956C20.4502 25.4919 20.1999 24.9884 19.9496 24.485C19.0478 24.8604 18.0541 25.0683 17.0102 25.0683C15.9602 25.0683 14.9609 24.858 14.0549 24.4783L13.2997 26C13.208 25.9573 13.1167 25.9144 13.0256 25.8717C12.9347 25.829 12.8433 25.7862 12.7519 25.7435C13.0037 25.2365 13.2556 24.7295 13.5076 24.2227C11.7224 23.2999 10.3708 21.6936 9.82561 19.7646L8.13583 20.1382L8 19.5639C8.56295 19.4392 9.12604 19.3147 9.68922 19.1902C9.60573 18.7579 9.56207 18.312 9.56207 17.8562C9.56207 16.2686 10.0918 14.8009 10.9895 13.6096C10.5417 13.2636 10.0938 12.9174 9.64583 12.571L10.0262 12.1106C10.4734 12.4564 10.9208 12.802 11.3683 13.1476C12.6703 11.6862 14.5676 10.7361 16.6955 10.6504V9H17.3045V10.6496C19.4361 10.7298 21.3378 11.6775 22.6437 13.1383C23.0872 12.7958 23.5306 12.4533 23.9738 12.1106L24.3542 12.571C23.9106 12.9139 23.4669 13.2566 23.0232 13.5994C23.9255 14.7924 24.4583 16.2641 24.4583 17.8562C24.4583 18.3128 24.4145 18.7595 24.3307 19.1926L26 19.5617L25.8642 20.136C25.3076 20.0128 24.7509 19.8897 24.1942 19.7666C23.6471 21.7 22.2899 23.3091 20.4979 24.2304L21.2481 25.7391C21.1574 25.7814 21.0672 25.8237 20.9771 25.866L20.9742 25.8674C20.8833 25.91 20.7918 25.953 20.7003 25.9956ZM22.3144 19.3513C21.131 19.0898 19.9476 18.8284 18.7647 18.5665C18.6289 18.8953 18.3957 19.1803 18.0878 19.3841C18.6142 20.4431 19.1412 21.5026 19.6682 22.5621L19.8587 22.9451C21.2535 22.2115 22.313 20.956 22.7575 19.4491L22.3144 19.3513ZM19.3102 23.1994C18.6022 23.4855 17.8253 23.6435 17.0102 23.6435C16.1887 23.6435 15.4059 23.483 14.6934 23.1926L16.4578 19.6406C16.811 19.7436 17.1868 19.7436 17.5399 19.6406C17.9624 20.4904 18.3851 21.3401 18.808 22.19L19.3102 23.1994ZM14.6389 21.9484L14.1469 22.9373C12.7588 22.2023 11.7049 20.9496 11.2623 19.4472L11.6923 19.3522C12.8739 19.0912 14.0554 18.8302 15.2376 18.5687C15.3734 18.8975 15.6043 19.1825 15.9122 19.3885C15.4881 20.2417 15.0635 21.0951 14.6389 21.9484ZM11.9135 18.6988L11.1255 18.8729C11.0651 18.5428 11.0336 18.2031 11.0336 17.8562C11.0336 16.6047 11.4438 15.446 12.1412 14.4993C12.9332 15.111 13.7252 15.7225 14.5175 16.3342L15.3417 16.9706C15.1832 17.2424 15.095 17.5515 15.095 17.8759C15.095 17.9154 15.0972 17.9549 15.1017 17.9943C14.0389 18.2295 12.9761 18.4642 11.9135 18.6988ZM12.5199 14.0368C13.5506 12.9015 15.0332 12.1604 16.6955 12.0769V16.0543C16.4714 16.0872 16.2518 16.1617 16.048 16.2757C15.9281 16.3415 15.8194 16.4204 15.7198 16.5081C14.7721 15.7755 13.8239 15.0434 12.8756 14.3114L12.5199 14.0368ZM17.3045 16.0543V12.0759C18.9705 12.1541 20.4575 12.8929 21.492 14.0276L21.1268 14.3095C20.1778 15.0422 19.2287 15.7748 18.2802 16.5081C18.1806 16.4204 18.0719 16.3436 17.952 16.2757C17.7482 16.1617 17.5286 16.0872 17.3045 16.0543ZM21.8713 14.4887C22.5735 15.4374 22.9868 16.6001 22.9868 17.8562C22.9868 18.2039 22.9551 18.5445 22.8944 18.8753L22.4205 18.7706C21.2466 18.5113 20.0727 18.252 18.8983 17.9921C18.9028 17.9527 18.905 17.9132 18.905 17.8738C18.905 17.5515 18.819 17.2402 18.6605 16.9684C19.6076 16.2363 20.5553 15.5047 21.5029 14.7731L21.8713 14.4887ZM17.0102 16.5848C17.7354 16.5848 18.3232 17.154 18.3232 17.8562C18.3232 18.5584 17.7354 19.1277 17.0102 19.1277C16.285 19.1277 15.6971 18.5584 15.6971 17.8562C15.6971 17.154 16.285 16.5848 17.0102 16.5848Z" fill="white"/>
</svg>
