<svg width="24" height="24" viewBox="0 0 24 24" fill="none" xmlns="http://www.w3.org/2000/svg">
<path d="M11.9924 1.00009C11.6989 1.00027 11.4162 1.10989 11.1999 1.30732L0.354187 10.8185L0.344107 10.8276C-0.00485855 11.1487 -0.0859797 11.6726 0.0897029 12.0551C0.265386 12.4377 0.677231 12.7113 1.14428 12.7115H3.9408V21.904C3.9408 22.5316 4.48993 22.9998 5.0921 23H9.70791L9.98031 22.4523C8.56046 21.5185 7.44185 20.1798 6.80465 18.6014L4.98879 19.0026L4.42541 16.6299L6.24381 16.2278C6.22642 16.0117 6.21757 15.7934 6.21757 15.5733C6.21757 14.0616 6.63458 12.6439 7.36123 11.4237L5.91159 10.3041L7.47376 8.41537L8.91133 9.52526C10.1592 8.38559 11.7593 7.60621 13.5339 7.35511V5.58333H16.0047V7.35218C17.783 7.59947 19.3872 8.37714 20.6386 9.51653L21.4483 8.8914L12.8003 1.30732C12.5802 1.10627 12.2912 0.996379 11.9924 1.00009Z" fill="#D7D7D7"/>
<path d="M22.8557 12.7115H22.8199C22.6485 12.2586 22.4377 11.8243 22.1916 11.4125L23.3252 10.5373L23.6458 10.8185L23.6559 10.8276C24.0049 11.1487 24.086 11.6729 23.9103 12.0553C23.7346 12.438 23.3228 12.7115 22.8557 12.7115Z" fill="#D7D7D7"/>
<path fill-rule="evenodd" clip-rule="evenodd" d="M18.1849 22.996C17.954 22.5343 17.723 22.0727 17.4919 21.6112C16.6595 21.9554 15.7422 22.146 14.7786 22.146C13.8094 22.146 12.887 21.9531 12.0507 21.6051L11.3536 23C11.2689 22.9608 11.1847 22.9216 11.1006 22.8824C11.0167 22.8433 10.9323 22.804 10.8479 22.7649C11.0803 22.3001 11.3129 21.8354 11.5455 21.3708C9.89756 20.5249 8.64998 19.0524 8.14671 17.2842L6.58692 17.6267L6.46154 17.1002C6.98119 16.986 7.50096 16.8718 8.02082 16.7577C7.94375 16.3614 7.90345 15.9527 7.90345 15.5349C7.90345 14.0796 8.39245 12.7341 9.22107 11.6421C8.80771 11.3249 8.3943 11.0076 7.98077 10.6901L8.33184 10.2681C8.74471 10.585 9.1577 10.9019 9.57076 11.2186C10.7726 9.879 12.524 9.00805 14.4882 8.92955V7.41667H15.0503V8.92882C17.018 9.00234 18.7734 9.87104 19.9788 11.2101C20.3882 10.8962 20.7975 10.5822 21.2066 10.2681L21.5577 10.6901C21.1482 11.0044 20.7387 11.3186 20.3291 11.6327C21.162 12.7264 21.6538 14.0754 21.6538 15.5349C21.6538 15.9534 21.6134 16.3629 21.536 16.7599L23.0769 17.0982L22.9515 17.6247C22.4378 17.5117 21.924 17.3989 21.41 17.286C20.905 19.0583 19.6522 20.5333 17.9981 21.3778L18.6906 22.7609C18.6068 22.7997 18.5236 22.8384 18.4404 22.8772L18.4377 22.8784C18.3538 22.9175 18.2693 22.9569 18.1849 22.996ZM19.6749 16.9053C18.5825 16.6657 17.4901 16.4261 16.3982 16.1859C16.2728 16.4874 16.0575 16.7486 15.7733 16.9355C16.2593 17.9062 16.7457 18.8774 17.2322 19.8486L17.408 20.1997C18.6955 19.5272 19.6735 18.3763 20.0839 16.995L19.6749 16.9053ZM16.9017 20.4328C16.2482 20.695 15.531 20.8398 14.7786 20.8398C14.0203 20.8398 13.2977 20.6927 12.6401 20.4265L14.2687 17.1706C14.5947 17.265 14.9416 17.265 15.2676 17.1706C15.6576 17.9495 16.0478 18.7284 16.4382 19.5075L16.9017 20.4328ZM12.5898 19.286L12.1356 20.1925C10.8543 19.5188 9.88147 18.3704 9.47286 16.9933L9.86983 16.9062C10.9605 16.6669 12.0512 16.4277 13.1424 16.1879C13.2678 16.4894 13.4809 16.7506 13.7651 16.9395C13.3736 17.7215 12.9817 18.5038 12.5898 19.286ZM10.074 16.3073L9.34661 16.4668C9.29086 16.1642 9.26177 15.8528 9.26177 15.5349C9.26177 14.3877 9.64045 13.3255 10.2842 12.4577C11.0153 13.0185 11.7463 13.579 12.4776 14.1397L13.2385 14.723C13.0922 14.9722 13.0107 15.2556 13.0107 15.553C13.0107 15.5891 13.0128 15.6253 13.017 15.6615C12.0359 15.877 11.0549 16.0922 10.074 16.3073ZM10.6338 12.0337C11.5852 10.9931 12.9537 10.3137 14.4882 10.2371V13.8831C14.2813 13.9132 14.0786 13.9816 13.8905 14.0861C13.7797 14.1463 13.6794 14.2187 13.5875 14.2991C12.7127 13.6275 11.8374 12.9565 10.9621 12.2854L10.6338 12.0337ZM15.0503 13.8831V10.2362C16.5882 10.3079 17.9607 10.9851 18.9157 12.0253L18.5786 12.2837C17.7026 12.9553 16.8265 13.6269 15.951 14.2991C15.859 14.2187 15.7587 14.1483 15.648 14.0861C15.4599 13.9816 15.2572 13.9132 15.0503 13.8831ZM19.2659 12.448C19.914 13.3176 20.2955 14.3834 20.2955 15.5349C20.2955 15.8536 20.2663 16.1658 20.2102 16.469L19.7728 16.373C18.6892 16.1353 17.6056 15.8976 16.5215 15.6595C16.5256 15.6233 16.5277 15.5871 16.5277 15.5509C16.5277 15.2556 16.4483 14.9702 16.302 14.721C17.1763 14.0499 18.051 13.3793 18.9258 12.7087L19.2659 12.448ZM14.7786 14.3694C15.448 14.3694 15.9907 14.8912 15.9907 15.5349C15.9907 16.1785 15.448 16.7004 14.7786 16.7004C14.1092 16.7004 13.5666 16.1785 13.5666 15.5349C13.5666 14.8912 14.1092 14.3694 14.7786 14.3694Z" fill="#D7D7D7"/>
</svg>
