<svg width="104" height="16" viewBox="0 0 104 16" fill="none" xmlns="http://www.w3.org/2000/svg">
<path fill-rule="evenodd" clip-rule="evenodd" d="M95.496 16C100.294 16 104 12.4475 104 8V7.95434C104 3.50685 100.336 0 95.5423 0C90.7443 0 87.0337 3.55251 87.0337 8V8.04566C87.0337 12.4931 90.6981 16 95.496 16ZM95.5423 11.4612C93.5435 11.4612 92.2758 9.81735 92.2758 8V7.95434C92.2758 6.15982 93.5204 4.53881 95.496 4.53881C97.4948 4.53881 98.7625 6.18265 98.7625 8V8.04566C98.7625 9.84018 97.5179 11.4612 95.5423 11.4612Z" fill="#D7D7D7"/>
<path fill-rule="evenodd" clip-rule="evenodd" d="M71.7332 15.7819H76.9291V11.3984H78.0395L80.9729 15.7819H86.8997L83.2816 10.5673C85.1693 9.66776 86.3445 8.11069 86.3445 5.87324V5.83215C86.3445 4.25224 85.8587 3.11525 84.9241 2.19288C83.8368 1.11982 82.0833 0.439453 79.3304 0.439453H71.7332V15.7819ZM76.9291 7.73626V4.73626H79.1962C80.3945 4.73626 81.1718 5.21571 81.1718 6.20201V6.24767C81.1718 7.18831 80.4177 7.73626 79.1731 7.73626H76.9291Z" fill="#D7D7D7"/>
<path d="M66.2459 15.7819H61.0501V4.77735H56.4742V0.439453H70.8218V4.77735H66.2459V15.7819Z" fill="#D7D7D7"/>
<path d="M49.6594 15.9536C53.8327 15.9536 56.5209 13.981 56.5209 10.7618V10.7162C56.5209 7.62483 53.8559 6.48784 49.8815 5.76182C48.239 5.45588 47.8133 5.19561 47.8133 4.77552V4.73442C47.8133 4.35999 48.1696 4.09972 48.9469 4.09972C50.3904 4.09972 52.144 4.55634 53.6106 5.61113L56.1415 2.14538C54.3463 0.743552 52.1254 0.0449219 49.1273 0.0449219C44.8383 0.0449219 42.5296 2.30063 42.5296 5.21387V5.25953C42.5296 8.50154 45.5925 9.48784 49.081 10.191C50.7467 10.5198 51.2371 10.7618 51.2371 11.2002V11.2413C51.2371 11.6614 50.8346 11.8988 49.9046 11.8988C48.0817 11.8988 46.1477 11.3737 44.4635 10.1043L41.6875 13.3691C43.6631 15.0769 46.5039 15.9536 49.6594 15.9536Z" fill="#D7D7D7"/>
<path d="M35.5799 0.330078H40.7758V15.6725H35.5799V0.330078Z" fill="#D7D7D7"/>
<path d="M24.5127 11.1794L24.5173 4.8004H25.3825C27.7607 4.8004 29.2921 5.76387 29.2921 7.97848V8.02414C29.2921 10.2388 27.7607 11.2022 25.3825 11.2022H24.5404V15.6725H25.0957C31.3788 15.6725 34.5342 12.4488 34.5342 7.91455V7.86889C34.5342 3.33464 31.4482 0.330078 25.2715 0.330078H18.9559V5.13373L15.0325 0.330078H11.5855V11.2114H15.2407V6.19309L19.3307 11.2114L24.5127 11.1794Z" fill="#D7D7D7"/>
<path d="M10.896 6.32862C10.896 10.0455 8.70756 11.5067 5.4133 11.5067C2.12368 11.5067 0 10.0136 0 6.40625V0.40625H3.74767V6.36059C3.74767 7.71219 4.45557 8.28753 5.44569 8.28753C6.44044 8.28753 7.14834 7.75785 7.14834 6.43821V0.40625H10.896V6.32862Z" fill="#D7D7D7"/>
</svg>
