<svg width="127" height="19" viewBox="0 0 127 19" fill="none" xmlns="http://www.w3.org/2000/svg">
<path fill-rule="evenodd" clip-rule="evenodd" d="M116.894 13.6102C114.505 13.6102 112.99 11.6581 112.99 9.5V9.44578C112.99 7.31478 114.478 5.38984 116.838 5.38984C119.227 5.38984 120.742 7.3419 120.742 9.5V9.55422C120.742 11.6852 119.254 13.6102 116.894 13.6102ZM116.838 19C122.572 19 127 14.7814 127 9.5V9.44578C127 4.16438 122.621 0 116.894 0C111.16 0 106.726 4.21861 106.726 9.5V9.55422C106.726 14.8356 111.105 19 116.838 19Z" fill="#D7D7D7"/>
<path fill-rule="evenodd" clip-rule="evenodd" d="M74.6114 18.2192H80.8201V5.15125H86.288V0H69.1435V5.15125H74.6114V18.2192Z" fill="#D7D7D7"/>
<path fill-rule="evenodd" clip-rule="evenodd" d="M93.8098 8.66495V5.10245H96.5188C97.9508 5.10245 98.8796 5.6718 98.8796 6.84304V6.89726C98.8796 8.01427 97.9784 8.66495 96.4912 8.66495H93.8098ZM87.6011 18.2192H93.8098V13.0137H95.1366L98.6418 18.2192H105.724L101.401 12.0268C103.656 10.9586 105.061 9.10959 105.061 6.45263V6.40382C105.061 4.52768 104.48 3.17751 103.363 2.08219C102.064 0.807933 99.9687 0 96.6792 0H87.6011V18.2192Z" fill="#D7D7D7"/>
<path d="M49.2948 0H43.0861V18.2192H49.2948V0Z" fill="#D7D7D7"/>
<path fill-rule="evenodd" clip-rule="evenodd" d="M60.1286 18.8916C65.1155 18.8916 68.3276 16.5491 68.3276 12.7263V12.6721C68.3276 9.00114 65.1431 7.65097 60.394 6.78881C58.4313 6.42551 57.9226 6.11644 57.9226 5.61758V5.56878C57.9226 5.12414 58.3484 4.81507 59.2772 4.81507C61.0021 4.81507 63.0975 5.35731 64.8501 6.60987L67.8743 2.49429C65.7292 0.829624 63.0754 0 59.4928 0C54.3677 0 51.6089 2.67865 51.6089 6.13813V6.19235C51.6089 10.0422 55.2689 11.2135 59.4375 12.0485C61.4278 12.4389 62.0139 12.7263 62.0139 13.2469V13.2957C62.0139 13.7945 61.5329 14.0765 60.4216 14.0765C58.2433 14.0765 55.9323 13.4529 53.9199 11.9455L50.6027 15.8225C52.9634 17.8505 56.358 18.8916 60.1286 18.8916Z" fill="#D7D7D7"/>
<path fill-rule="evenodd" clip-rule="evenodd" d="M6.46856 13.1818C10.405 13.1818 13.0201 11.4466 13.0201 7.03282V0H8.54182V7.16296C8.54182 8.73002 7.69593 9.35902 6.50726 9.35902C5.32412 9.35902 4.47824 8.6758 4.47824 7.07078V0H0V7.125C0 11.4087 2.53767 13.1818 6.46856 13.1818Z" fill="#D7D7D7"/>
<path fill-rule="evenodd" clip-rule="evenodd" d="M116.894 13.6102C114.505 13.6102 112.99 11.6581 112.99 9.5V9.44578C112.99 7.31478 114.478 5.38984 116.838 5.38984C119.227 5.38984 120.742 7.3419 120.742 9.5V9.55422C120.742 11.6852 119.254 13.6102 116.894 13.6102ZM116.838 19C122.572 19 127 14.7814 127 9.5V9.44578C127 4.16438 122.621 0 116.894 0C111.16 0 106.726 4.21861 106.726 9.5V9.55422C106.726 14.8356 111.105 19 116.838 19Z" fill="#D7D7D7"/>
<path fill-rule="evenodd" clip-rule="evenodd" d="M74.6114 18.2192H80.8201V5.15125H86.288V0H69.1435V5.15125H74.6114V18.2192Z" fill="#D7D7D7"/>
<path fill-rule="evenodd" clip-rule="evenodd" d="M93.8098 8.66495V5.10245H96.5188C97.9508 5.10245 98.8796 5.6718 98.8796 6.84304V6.89726C98.8796 8.01427 97.9784 8.66495 96.4912 8.66495H93.8098ZM87.6011 18.2192H93.8098V13.0137H95.1366L98.6418 18.2192H105.724L101.401 12.0268C103.656 10.9586 105.061 9.10959 105.061 6.45263V6.40382C105.061 4.52768 104.48 3.17751 103.363 2.08219C102.064 0.807933 99.9687 0 96.6792 0H87.6011V18.2192Z" fill="#D7D7D7"/>
<path d="M49.2948 0H43.0861V18.2192H49.2948V0Z" fill="#D7D7D7"/>
<path fill-rule="evenodd" clip-rule="evenodd" d="M60.1286 18.8916C65.1155 18.8916 68.3276 16.5491 68.3276 12.7263V12.6721C68.3276 9.00114 65.1431 7.65097 60.394 6.78881C58.4313 6.42551 57.9226 6.11644 57.9226 5.61758V5.56878C57.9226 5.12414 58.3484 4.81507 59.2772 4.81507C61.0021 4.81507 63.0975 5.35731 64.8501 6.60987L67.8743 2.49429C65.7292 0.829624 63.0754 0 59.4928 0C54.3677 0 51.6089 2.67865 51.6089 6.13813V6.19235C51.6089 10.0422 55.2689 11.2135 59.4375 12.0485C61.4278 12.4389 62.0139 12.7263 62.0139 13.2469V13.2957C62.0139 13.7945 61.5329 14.0765 60.4216 14.0765C58.2433 14.0765 55.9323 13.4529 53.9199 11.9455L50.6027 15.8225C52.9634 17.8505 56.358 18.8916 60.1286 18.8916Z" fill="#D7D7D7"/>
<path fill-rule="evenodd" clip-rule="evenodd" d="M6.46856 13.1818C10.405 13.1818 13.0201 11.4466 13.0201 7.03282V0H8.54182V7.16296C8.54182 8.73002 7.69593 9.35902 6.50726 9.35902C5.32412 9.35902 4.47824 8.6758 4.47824 7.07078V0H0V7.125C0 11.4087 2.53767 13.1818 6.46856 13.1818Z" fill="#D7D7D7"/>
<path fill-rule="evenodd" clip-rule="evenodd" d="M116.894 13.6102C114.505 13.6102 112.99 11.6581 112.99 9.5V9.44578C112.99 7.31478 114.478 5.38984 116.838 5.38984C119.227 5.38984 120.742 7.3419 120.742 9.5V9.55422C120.742 11.6852 119.254 13.6102 116.894 13.6102ZM116.838 19C122.572 19 127 14.7814 127 9.5V9.44578C127 4.16438 122.621 0 116.894 0C111.16 0 106.726 4.21861 106.726 9.5V9.55422C106.726 14.8356 111.105 19 116.838 19Z" fill="#D7D7D7"/>
<path fill-rule="evenodd" clip-rule="evenodd" d="M74.6114 18.2192H80.8201V5.15125H86.288V0H69.1435V5.15125H74.6114V18.2192Z" fill="#D7D7D7"/>
<path fill-rule="evenodd" clip-rule="evenodd" d="M93.8098 8.66495V5.10245H96.5188C97.9508 5.10245 98.8796 5.6718 98.8796 6.84304V6.89726C98.8796 8.01427 97.9784 8.66495 96.4912 8.66495H93.8098ZM87.6011 18.2192H93.8098V13.0137H95.1366L98.6418 18.2192H105.724L101.401 12.0268C103.656 10.9586 105.061 9.10959 105.061 6.45263V6.40382C105.061 4.52768 104.48 3.17751 103.363 2.08219C102.064 0.807933 99.9687 0 96.6792 0H87.6011V18.2192Z" fill="#D7D7D7"/>
<path d="M49.2948 0H43.0861V18.2192H49.2948V0Z" fill="#D7D7D7"/>
<path fill-rule="evenodd" clip-rule="evenodd" d="M60.1286 18.8916C65.1155 18.8916 68.3276 16.5491 68.3276 12.7263V12.6721C68.3276 9.00114 65.1431 7.65097 60.394 6.78881C58.4313 6.42551 57.9226 6.11644 57.9226 5.61758V5.56878C57.9226 5.12414 58.3484 4.81507 59.2772 4.81507C61.0021 4.81507 63.0975 5.35731 64.8501 6.60987L67.8743 2.49429C65.7292 0.829624 63.0754 0 59.4928 0C54.3677 0 51.6089 2.67865 51.6089 6.13813V6.19235C51.6089 10.0422 55.2689 11.2135 59.4375 12.0485C61.4278 12.4389 62.0139 12.7263 62.0139 13.2469V13.2957C62.0139 13.7945 61.5329 14.0765 60.4216 14.0765C58.2433 14.0765 55.9323 13.4529 53.9199 11.9455L50.6027 15.8225C52.9634 17.8505 56.358 18.8916 60.1286 18.8916Z" fill="#D7D7D7"/>
<path fill-rule="evenodd" clip-rule="evenodd" d="M6.46856 13.1818C10.405 13.1818 13.0201 11.4466 13.0201 7.03282V0H8.54182V7.16296C8.54182 8.73002 7.69593 9.35902 6.50726 9.35902C5.32412 9.35902 4.47824 8.6758 4.47824 7.07078V0H0V7.125C0 11.4087 2.53767 13.1818 6.46856 13.1818Z" fill="#D7D7D7"/>
<path fill-rule="evenodd" clip-rule="evenodd" d="M29.4692 12.8836L29.4748 5.30851H30.5086C33.3504 5.30851 35.1804 6.45263 35.1804 9.08248V9.1367C35.1804 11.7666 33.3504 12.9107 30.5086 12.9107H29.5024V18.2192H30.1659C37.6738 18.2192 41.4444 14.391 41.4444 9.00656V8.95234C41.4444 3.56792 37.7567 0 30.376 0H22.8293V5.70434L18.141 0H14.0221V12.9215H18.3898V6.96233L23.2771 12.9215L29.4692 12.8836Z" fill="#D7D7D7"/>
</svg>
