<svg width="28" height="28" viewBox="0 0 28 28" fill="none" xmlns="http://www.w3.org/2000/svg">
<path fill-rule="evenodd" clip-rule="evenodd" d="M6.01313 2.625H3.4375C2.79103 2.625 2.17105 2.88181 1.71393 3.33893C1.25681 3.79605 1 4.41604 1 5.0625V24.5625C1 25.209 1.25681 25.829 1.71393 26.2861C2.17105 26.7432 2.79103 27 3.4375 27H14.5164L15.0554 25.933C14.0328 25.2081 13.2082 24.2319 12.6859 23.0922L11.1435 23.4276L10.5204 20.8453L12.0711 20.5078C12.068 20.4233 12.0664 20.3386 12.0664 20.2534C12.0664 20.1546 12.0685 20.0562 12.0728 19.9583H9.9375C9.72201 19.9583 9.51535 19.8727 9.36298 19.7204C9.2106 19.568 9.125 19.3613 9.125 19.1458C9.125 18.9303 9.2106 18.7237 9.36298 18.5713C9.51535 18.4189 9.72201 18.3333 9.9375 18.3333H12.3422C12.4803 17.8638 12.6676 17.4145 12.8982 16.9908L11.6591 16.0489L12.4705 15.0833H9.9375C9.72201 15.0833 9.51535 14.9977 9.36298 14.8454C9.2106 14.693 9.125 14.4863 9.125 14.2708C9.125 14.0553 9.2106 13.8487 9.36298 13.6963C9.51535 13.5439 9.72201 13.4583 9.9375 13.4583H15.625C15.8405 13.4583 16.0472 13.5439 16.1995 13.6963C16.2467 13.7435 16.2875 13.796 16.3214 13.8522C16.8735 13.6056 17.4622 13.423 18.077 13.3137V11.8333H20.5V5.0625C20.5 4.41604 20.2432 3.79605 19.7861 3.33893C19.329 2.88181 18.709 2.625 18.0625 2.625H15.4869C15.3188 2.14956 15.0074 1.73796 14.5955 1.44692C14.1837 1.15588 13.6918 0.999737 13.1875 1H8.3125C7.80822 0.999737 7.31627 1.15588 6.90445 1.44692C6.49263 1.73796 6.18122 2.14956 6.01313 2.625ZM8.3125 2.625H13.1875C13.403 2.625 13.6097 2.7106 13.762 2.86298C13.9144 3.01535 14 3.22201 14 3.4375C14 3.65299 13.9144 3.85965 13.762 4.01202C13.6097 4.1644 13.403 4.25 13.1875 4.25H8.3125C8.09701 4.25 7.89035 4.1644 7.73798 4.01202C7.5856 3.85965 7.5 3.65299 7.5 3.4375C7.5 3.22201 7.5856 3.01535 7.73798 2.86298C7.89035 2.7106 8.09701 2.625 8.3125 2.625ZM9.125 9.39583C9.125 9.18035 9.2106 8.97368 9.36298 8.82131C9.51535 8.66894 9.72201 8.58333 9.9375 8.58333H15.625C15.8405 8.58333 16.0472 8.66894 16.1995 8.82131C16.3519 8.97368 16.4375 9.18035 16.4375 9.39583C16.4375 9.61132 16.3519 9.81798 16.1995 9.97036C16.0472 10.1227 15.8405 10.2083 15.625 10.2083H9.9375C9.72201 10.2083 9.51535 10.1227 9.36298 9.97036C9.2106 9.81798 9.125 9.61132 9.125 9.39583ZM7.5 9.39583C7.5 9.71907 7.3716 10.0291 7.14304 10.2576C6.91448 10.4862 6.60448 10.6146 6.28125 10.6146C5.95802 10.6146 5.64802 10.4862 5.41946 10.2576C5.1909 10.0291 5.0625 9.71907 5.0625 9.39583C5.0625 9.0726 5.1909 8.76261 5.41946 8.53405C5.64802 8.30549 5.95802 8.17708 6.28125 8.17708C6.60448 8.17708 6.91448 8.30549 7.14304 8.53405C7.3716 8.76261 7.5 9.0726 7.5 9.39583ZM7.5 14.2708C7.5 14.5941 7.3716 14.9041 7.14304 15.1326C6.91448 15.3612 6.60448 15.4896 6.28125 15.4896C5.95802 15.4896 5.64802 15.3612 5.41946 15.1326C5.1909 14.9041 5.0625 14.5941 5.0625 14.2708C5.0625 13.9476 5.1909 13.6376 5.41946 13.409C5.64802 13.1805 5.95802 13.0521 6.28125 13.0521C6.60448 13.0521 6.91448 13.1805 7.14304 13.409C7.3716 13.6376 7.5 13.9476 7.5 14.2708ZM6.28125 20.3646C5.95802 20.3646 5.64802 20.2362 5.41946 20.0076C5.1909 19.7791 5.0625 19.4691 5.0625 19.1458C5.0625 18.8226 5.1909 18.5126 5.41946 18.284C5.64802 18.0555 5.95802 17.9271 6.28125 17.9271C6.60448 17.9271 6.91448 18.0555 7.14304 18.284C7.3716 18.5126 7.5 18.8226 7.5 19.1458C7.5 19.4691 7.3716 19.7791 7.14304 20.0076C6.91448 20.2362 6.60448 20.3646 6.28125 20.3646Z" fill="white"/>
<path fill-rule="evenodd" clip-rule="evenodd" d="M22.5345 26.9964C22.3238 26.5791 22.1129 26.162 21.902 25.7449C21.1421 26.0559 20.3048 26.2282 19.4253 26.2282C18.5405 26.2282 17.6986 26.0539 16.9352 25.7394L16.2988 27C16.2216 26.9646 16.1447 26.9291 16.0679 26.8937L16.0632 26.8915C15.988 26.8569 15.9129 26.8222 15.8372 26.7875C16.0494 26.3675 16.2617 25.9475 16.474 25.5276C14.9698 24.7631 13.831 23.4324 13.3716 21.8344L11.9478 22.1439L11.8333 21.6681L13.2567 21.3585C13.1863 21.0004 13.1495 20.631 13.1495 20.2534C13.1495 18.9382 13.5959 17.7223 14.3523 16.7354L13.2201 15.875L13.5406 15.4936C13.9174 15.7801 14.2944 16.0664 14.6715 16.3527C15.7685 15.142 17.3672 14.3549 19.1601 14.2839V12.9167H19.6732V14.2833C21.4693 14.3497 23.0717 15.1348 24.172 16.345C24.5457 16.0613 24.9193 15.7775 25.2928 15.4936L25.6132 15.875C25.2395 16.159 24.8656 16.443 24.4917 16.7269C25.2521 17.7153 25.701 18.9345 25.701 20.2534C25.701 20.6317 25.6641 21.0018 25.5935 21.3605L27 21.6663L26.8855 22.1421L25.4785 21.836C25.0175 23.4377 23.8739 24.7708 22.364 25.534L22.9961 26.7839C22.961 26.8 22.926 26.8161 22.8911 26.8322C22.8491 26.8515 22.8072 26.8708 22.7653 26.8901C22.6887 26.9255 22.6116 26.961 22.5345 26.9964ZM23.8897 21.4909C22.8942 21.2747 21.8987 21.0585 20.9036 20.8418C20.7891 21.1142 20.5927 21.3503 20.3332 21.5192C20.7768 22.3965 21.2208 23.2742 21.6649 24.1519L21.8254 24.4692C23.0006 23.8615 23.8933 22.8214 24.2679 21.5731L23.8897 21.4909ZM20.9446 23.8526L21.3632 24.6799C20.7667 24.9169 20.112 25.0478 19.4253 25.0478C18.7331 25.0478 18.0735 24.9148 17.4732 24.6743L18.9598 21.7317C19.2574 21.817 19.574 21.817 19.8716 21.7317C20.229 22.4386 20.5868 23.1455 20.9446 23.8526ZM17.0127 24.4628C15.8431 23.8539 14.9551 22.8161 14.5821 21.5715L14.9445 21.4928C15.94 21.2765 16.9356 21.0603 17.9317 20.8437C18.0461 21.1161 18.2407 21.3521 18.5001 21.5228C18.1442 22.2268 17.7878 22.9311 17.4314 23.6352L17.0127 24.4628ZM15.1308 20.9515L14.4669 21.0957C14.416 20.8222 14.3894 20.5408 14.3894 20.2534C14.3894 19.2167 14.7351 18.2568 15.3227 17.4725L18.0194 19.5198C17.8859 19.7449 17.8115 20.001 17.8115 20.2698C17.8115 20.3025 17.8134 20.3352 17.8172 20.3678C16.9218 20.5626 16.0261 20.7571 15.1308 20.9515ZM15.9392 17.315L15.6418 17.0893C16.5103 16.1488 17.7595 15.5348 19.1601 15.4656V18.7607C18.9713 18.7879 18.7862 18.8496 18.6146 18.9441C18.5135 18.9986 18.4219 19.0639 18.338 19.1366C17.5387 18.5291 16.7389 17.9221 15.9392 17.315ZM19.6732 18.7607V15.4648C21.077 15.5296 22.3299 16.1417 23.2016 17.0817L22.8947 17.3146C22.095 17.9216 21.2946 18.5292 20.4954 19.1366C20.4114 19.0639 20.3199 19.0004 20.2188 18.9441C20.0471 18.8496 19.8621 18.7879 19.6732 18.7607ZM23.2144 17.6966L23.5212 17.4637C24.1128 18.2496 24.4611 19.2128 24.4611 20.2534C24.4611 20.5415 24.4344 20.8236 24.3833 21.0977L23.9821 21.0105C22.9936 20.7959 22.0051 20.5812 21.0161 20.366C21.0199 20.3333 21.0218 20.3007 21.0218 20.268C21.0218 20.001 20.9494 19.7431 20.8158 19.5179C21.615 18.9105 22.4147 18.3036 23.2144 17.6966ZM19.4253 19.2001C20.0363 19.2001 20.5316 19.6717 20.5316 20.2534C20.5316 20.8352 20.0363 21.3067 19.4253 21.3067C18.8142 21.3067 18.3189 20.8352 18.3189 20.2534C18.3189 19.6717 18.8142 19.2001 19.4253 19.2001Z" fill="white"/>
</svg>
