<svg width="28" height="28" viewBox="0 0 28 28" fill="none" xmlns="http://www.w3.org/2000/svg">
<path fill-rule="evenodd" clip-rule="evenodd" d="M12.893 24.4565V3.5435L18.959 2V26L12.893 24.4565ZM14.355 21.9775C14.355 22.7475 14.9545 23.5035 15.7175 23.6715C16.508 23.846 17.1675 23.3265 17.1675 22.5055C17.1675 21.6845 16.508 20.9165 15.7175 20.7945C14.955 20.6775 14.355 21.2075 14.355 21.9775ZM13.2245 18.2805L18.53 18.8305V16.824L13.2245 16.5035V18.2805ZM13.2245 14.527L18.53 14.5945V12.5895L13.2245 12.75V14.527ZM13.2245 10.772L18.53 10.3585V8.35L13.2245 8.993V10.772ZM13.2245 7.0165L18.53 6.1225V4.1155L13.2245 5.238V7.0165Z" fill="#D7D7D7"/>
<path fill-rule="evenodd" clip-rule="evenodd" d="M19.326 26V2L26 4.4225V23.5775L19.326 26ZM24.2215 21.6055L25.536 21.274V6.726L24.2215 6.3945V21.6055Z" fill="#D7D7D7"/>
<path fill-rule="evenodd" clip-rule="evenodd" d="M2 6.171V21.809L6.53599 22.963V5.017L2 6.171ZM4.112 21.221C3.5415 21.0955 3.093 20.53 3.093 19.9545C3.093 19.379 3.543 18.9815 4.112 19.0695C4.7035 19.162 5.2 19.7365 5.2 20.35C5.2 20.9635 4.7035 21.3525 4.112 21.222V21.221ZM6.215 17.6025L2.25 17.1925V15.862L6.215 16.1V17.6025ZM6.215 14.4345L2.25 14.384V13.054L6.21699 12.9345L6.215 14.4345ZM6.215 11.267L2.25 11.576V10.246L6.21699 9.7665L6.215 11.267ZM6.215 8.0995L2.25 8.768V7.438L6.215 6.6V8.0995Z" fill="#D7D7D7"/>
<path fill-rule="evenodd" clip-rule="evenodd" d="M6.81049 22.963V5.017L11.7555 6.8285V21.15L6.81049 22.963ZM10.471 19.6795L11.454 19.4295V8.553L10.471 8.303V19.6795Z" fill="#D7D7D7"/>
</svg>
