<svg width="28" height="28" viewBox="0 0 28 28" fill="none" xmlns="http://www.w3.org/2000/svg">
<path d="M20.9091 16.6949C19.3705 16.3511 17.8321 16.0073 16.2943 15.6627C16.1177 16.0952 15.8146 16.47 15.4144 16.7382C16.0941 18.1215 16.7744 19.5055 17.4548 20.8896L17.7166 21.4219C19.5299 20.457 20.9072 18.8056 21.4851 16.8237L20.9091 16.6949Z" fill="white"/>
<path d="M17.0034 21.7564C16.0832 22.1326 15.0731 22.3404 14.0134 22.3404C12.9455 22.3404 11.9278 22.1293 11.0017 21.7474L13.2953 17.0755C13.7544 17.2111 14.2431 17.2111 14.7021 17.0755C15.0948 17.8748 15.4879 18.6741 15.8809 19.4734L17.0034 21.7564Z" fill="white"/>
<path d="M10.9308 20.1109L10.2911 21.4117C8.48655 20.445 7.11645 18.7972 6.54109 16.8211L7.10007 16.6962C8.63623 16.3529 10.1723 16.0096 11.709 15.6656C11.8856 16.0981 12.1858 16.4729 12.5861 16.744C12.0347 17.8661 11.4827 18.9886 10.9308 20.1109Z" fill="white"/>
<path d="M7.38762 15.8368L6.36322 16.0657C6.28477 15.6316 6.24376 15.1847 6.24376 14.7285C6.24376 13.0825 6.7771 11.5584 7.68368 10.3132C8.71329 11.1178 9.74289 11.9221 10.7729 12.7266L11.8444 13.5637C11.6383 13.9212 11.5236 14.3278 11.5236 14.7545C11.5236 14.7885 11.5248 14.8226 11.5274 14.8566C11.5288 14.8745 11.5304 14.8923 11.5325 14.9102C10.1508 15.2195 8.76915 15.5282 7.38762 15.8368Z" fill="white"/>
<path d="M8.63483 10.0633L8.17601 9.70487C9.5159 8.21167 11.4433 7.23681 13.6044 7.12699V12.3585C13.313 12.4017 13.0275 12.4997 12.7626 12.6497C12.6066 12.7362 12.4654 12.84 12.3359 12.9553C11.1027 11.9908 9.86883 11.027 8.63483 10.0633Z" fill="white"/>
<path d="M14.396 12.3585V7.12569C16.5619 7.22858 18.495 8.20029 19.8399 9.69271L19.3665 10.0626L19.3652 10.0635C18.1313 11.0272 16.8976 11.9909 15.6645 12.9553C15.535 12.84 15.3938 12.7391 15.2378 12.6497C14.9729 12.4997 14.6874 12.4017 14.396 12.3585Z" fill="white"/>
<path d="M20.3331 10.2993C21.2458 11.547 21.7832 13.0763 21.7832 14.7285C21.7832 15.1859 21.742 15.6338 21.6631 16.0689L20.8497 15.8871C19.3894 15.5608 17.9291 15.2344 16.468 14.9073C16.4738 14.8554 16.4768 14.8035 16.4768 14.7516C16.4768 14.3278 16.365 13.9183 16.1589 13.5608C16.8049 13.0556 17.451 12.5507 18.097 12.0458L20.3331 10.2993Z" fill="white"/>
<path d="M14.0134 13.0562C14.9562 13.0562 15.7204 13.8049 15.7204 14.7285C15.7204 15.6521 14.9562 16.4008 14.0134 16.4008C13.0708 16.4008 12.3065 15.6521 12.3065 14.7285C12.3065 13.8049 13.0708 13.0562 14.0134 13.0562Z" fill="white"/>
<path fill-rule="evenodd" clip-rule="evenodd" d="M13.3785 1.15819L4.19407 6.15726C3.87478 6.33104 3.64296 6.63055 3.5546 6.98315L1.03899 17.0242C0.940216 17.4184 1.0315 17.8362 1.28579 18.1533L7.98774 26.5131C8.23454 26.8209 8.60766 27 9.00211 27H18.9979C19.3924 27 19.7655 26.8209 20.0122 26.5131L26.7142 18.1533C26.9684 17.8362 27.0598 17.4184 26.961 17.0242L24.4454 6.98315C24.3571 6.63055 24.1251 6.33104 23.8058 6.15726L14.6215 1.15819C14.2341 0.947271 13.766 0.947271 13.3785 1.15819ZM18.8107 25.4342C18.4855 24.7717 18.1601 24.1094 17.8347 23.4473C16.6623 23.9411 15.3706 24.2146 14.0134 24.2146C12.6484 24.2146 11.3494 23.9379 10.1715 23.4385L9.18975 25.44C9.07054 25.3838 8.95184 25.3274 8.83339 25.2712C8.71507 25.215 8.59662 25.1588 8.47753 25.1026C8.80482 24.4357 9.13237 23.769 9.46004 23.1023C7.13917 21.8885 5.38212 19.7758 4.67333 17.2386L2.47663 17.73L2.30003 16.9746C3.03193 16.8106 3.76395 16.6468 4.4961 16.4831C4.38755 15.9145 4.3308 15.328 4.3308 14.7285C4.3308 12.6404 5.01941 10.7098 6.18638 9.14297L4.4396 7.77689L4.93409 7.1714L6.67896 8.53534C8.37153 6.61313 10.838 5.36343 13.6044 5.25079V3.08H14.396V5.24974C17.1672 5.35524 19.6395 6.60169 21.3372 8.52308C21.9137 8.07263 22.4901 7.62209 23.0663 7.1714L23.5608 7.77689C22.9842 8.2279 22.4073 8.67874 21.8304 9.1295C23.0035 10.6988 23.6961 12.6344 23.6961 14.7285C23.6961 15.3291 23.6391 15.9167 23.5302 16.4863L25.7004 16.9717L25.6132 17.345L25.6121 17.3494L25.5238 17.7272C24.8003 17.5651 24.0766 17.4031 23.3528 17.2412C22.6416 19.7842 20.8772 21.9006 18.5476 23.1124L19.5229 25.0969C19.4049 25.1525 19.2877 25.2081 19.1706 25.2637L19.1668 25.2655L18.9641 25.3617L18.8107 25.4342Z" fill="white"/>
</svg>
