<svg width="28" height="28" viewBox="0 0 28 28" fill="none" xmlns="http://www.w3.org/2000/svg">
<path fill-rule="evenodd" clip-rule="evenodd" d="M4.19407 6.15726L13.3785 1.15819C13.766 0.947271 14.234 0.947271 14.6215 1.15819L23.8058 6.15726C24.1251 6.33104 24.3571 6.63055 24.4454 6.98315L26.961 17.0242C27.0598 17.4184 26.9684 17.8362 26.7142 18.1533L20.0121 26.5131C19.7655 26.8209 19.3924 27 18.9979 27H9.00211C8.60766 27 8.23454 26.8209 7.98774 26.5131L1.28579 18.1533C1.0315 17.8362 0.940216 17.4184 1.03899 17.0242L3.5546 6.98315C3.64296 6.63055 3.87478 6.33104 4.19407 6.15726ZM18.3333 9.58322C18.3333 11.2298 17.4149 12.6619 16.0624 13.3952L18.3333 23.7497H9.66667L11.9376 13.3952C10.5851 12.6619 9.66667 11.2298 9.66667 9.58322C9.66667 7.19002 11.6068 5.24995 14 5.24995C16.3932 5.24995 18.3333 7.19002 18.3333 9.58322Z" fill="white"/>
</svg>
