<svg width="28" height="28" viewBox="0 0 28 28" fill="none" xmlns="http://www.w3.org/2000/svg">
<path fill-rule="evenodd" clip-rule="evenodd" d="M12.8008 25.3279V2.67213L19.3723 1V27L12.8008 25.3279ZM14.3846 22.6423C14.3846 23.4765 15.034 24.2955 15.8606 24.4775C16.717 24.6665 17.4315 24.1037 17.4315 23.2143C17.4315 22.3249 16.717 21.4929 15.8606 21.3607C15.0346 21.234 14.3846 21.8081 14.3846 22.6423ZM13.1599 18.6372L18.9075 19.2331V17.0594L13.1599 16.7121V18.6372ZM13.1599 14.5709L18.9075 14.6441V12.472L13.1599 12.6458V14.5709ZM13.1599 10.503L18.9075 10.0551V7.87917L13.1599 8.57576V10.503ZM13.1599 6.43455L18.9075 5.46605V3.29179L13.1599 4.50784V6.43455Z" fill="white"/>
<path fill-rule="evenodd" clip-rule="evenodd" d="M19.7698 27V1L27 3.62438V24.3757L19.7698 27ZM25.0733 22.2393L26.4973 21.8802V6.11984L25.0733 5.76071V22.2393Z" fill="white"/>
<path fill-rule="evenodd" clip-rule="evenodd" d="M1 5.51859V22.4598L5.914 23.7099V4.26842L1 5.51859ZM3.288 21.8228C2.66996 21.6868 2.18408 21.0742 2.18408 20.4507C2.18408 19.8273 2.67158 19.3966 3.288 19.492C3.92879 19.5922 4.46667 20.2146 4.46667 20.8792C4.46667 21.5438 3.92879 21.9652 3.288 21.8239V21.8228ZM5.56625 17.9027L1.27083 17.4586V16.0172L5.56625 16.275V17.9027ZM5.56625 14.4707L1.27083 14.416V12.9752L5.56842 12.8457L5.56625 14.4707ZM5.56625 11.0393L1.27083 11.374V9.93318L5.56842 9.41372L5.56625 11.0393ZM5.56625 7.6078L1.27083 8.33201V6.89117L5.56625 5.98334V7.6078Z" fill="white"/>
<path fill-rule="evenodd" clip-rule="evenodd" d="M6.21137 23.7099V4.26842L11.5685 6.23088V21.7459L6.21137 23.7099ZM10.1769 20.1528L11.2418 19.882V8.09909L10.1769 7.82826V20.1528Z" fill="white"/>
</svg>
