<svg width="28" height="28" viewBox="0 0 28 28" fill="none" xmlns="http://www.w3.org/2000/svg">
<path fill-rule="evenodd" clip-rule="evenodd" d="M14 26C14 26 3 21.2 3 12.8V5.6L14 2L25 5.6V12.8C25 21.2 14 26 14 26ZM15.2875 5.64548C16.8592 5.88917 18.2817 6.57507 19.4115 7.57026L20.7404 6.54666L22.3769 8.5206L21.035 9.55422C21.6768 10.6727 22.0439 11.9624 22.0439 13.3353C22.0439 13.4955 22.0389 13.6547 22.029 13.8127L23.7084 14.1829L23.1165 16.6694L21.4412 16.2998C20.8505 17.69 19.8593 18.8729 18.6129 19.7189L19.3659 21.2282L17.0336 22.3127L16.283 20.8067C15.5611 21.0128 14.7978 21.1231 14.0095 21.1231C13.2157 21.1231 12.4472 21.0113 11.7208 20.8024L10.9666 22.317L8.63437 21.2325L9.39314 19.71C8.15229 18.8643 7.16561 17.6841 6.57715 16.2979L4.8833 16.6713L4.2915 14.1851L5.98994 13.8104C5.98016 13.6531 5.97521 13.4947 5.97521 13.3353C5.97521 11.9666 6.34006 10.6806 6.97816 9.56455L5.62307 8.52048L7.25946 6.54666L8.59861 7.57817C9.72529 6.58278 11.1441 5.89543 12.7123 5.64849V4H15.2875V5.64548ZM17.0835 20.3796C16.875 19.9475 16.6665 19.5155 16.4579 19.0836C15.7064 19.4057 14.8783 19.5841 14.0084 19.5841C13.1334 19.5841 12.3007 19.4036 11.5457 19.078L10.9163 20.3833C10.8401 20.3467 10.7642 20.3101 10.6884 20.2735L10.6879 20.2732C10.612 20.2366 10.5361 20.1999 10.4598 20.1633C10.6696 19.7283 10.8796 19.2935 11.0896 18.8587C9.60186 18.067 8.47557 16.6891 8.02124 15.0343L6.61309 15.3548L6.5565 15.1085L6.4999 14.8622C6.96903 14.7552 7.43826 14.6484 7.90758 14.5416C7.83801 14.1707 7.80162 13.7882 7.80162 13.3972C7.80162 12.0353 8.24308 10.7762 8.99114 9.7543L7.87142 8.86333L8.18837 8.46843C8.5611 8.76504 8.93394 9.06154 9.30683 9.35799C10.3918 8.10432 11.9729 7.28925 13.7462 7.21579V5.79999H13.9999H14.2536V7.21511C16.03 7.28391 17.6148 8.09686 18.703 9.35C19.0726 9.05622 19.442 8.76237 19.8114 8.46843L20.1284 8.86333C19.7587 9.15748 19.389 9.45152 19.0192 9.74551C19.7712 10.769 20.2152 12.0314 20.2152 13.3972C20.2152 13.7889 20.1786 14.1721 20.1088 14.5436L21.4999 14.8603L21.444 15.1037L21.4433 15.1066L21.3867 15.353C20.9229 15.2472 20.459 15.1416 19.9951 15.036C19.5392 16.6946 18.4082 18.0749 16.9148 18.8652L17.54 20.1595C17.4647 20.1957 17.3892 20.2321 17.3143 20.2683L17.3112 20.2698C17.2354 20.3064 17.1597 20.343 17.0835 20.3796ZM18.4264 14.6792C17.4409 14.4552 16.4555 14.2311 15.4705 14.0065C15.3573 14.2886 15.163 14.5331 14.9064 14.7079C15.3426 15.6112 15.7792 16.5149 16.2159 17.4186L16.2234 17.4341L16.2293 17.4464L16.3822 17.7627C17.5445 17.1334 18.4274 16.0563 18.7978 14.7637L18.4313 14.6804L18.4286 14.6797L18.4264 14.6792ZM15.511 17.1242L15.9251 17.9808C15.3351 18.2262 14.6876 18.3618 14.0084 18.3618C13.3238 18.3618 12.6715 18.2241 12.0778 17.975L12.671 16.7456L13.5481 14.928C13.8424 15.0164 14.1555 15.0164 14.4498 14.928C14.8033 15.66 15.1572 16.392 15.511 17.1242ZM12.0323 16.9077L11.6223 17.756C10.4656 17.1255 9.58734 16.0508 9.21845 14.7621L9.57219 14.6816L9.57683 14.6806C10.5615 14.4567 11.5461 14.2328 12.5312 14.0084C12.6444 14.2905 12.8368 14.5349 13.0934 14.7117C12.74 15.4436 12.3861 16.1757 12.0323 16.9077ZM9.76117 14.1201L9.10448 14.2694C9.05414 13.9862 9.02788 13.6948 9.02788 13.3972C9.02788 12.3237 9.36975 11.3297 9.9509 10.5175C10.6055 11.038 11.2601 11.5583 11.9149 12.0787L11.9311 12.0916L12.618 12.6375C12.4859 12.8707 12.4124 13.1358 12.4124 13.4142C12.4124 13.448 12.4142 13.4819 12.418 13.5157C11.5323 13.7174 10.6467 13.9188 9.76117 14.1201ZM10.5606 10.3545L10.2665 10.1208C11.1254 9.1469 12.3609 8.51109 13.7462 8.43946V11.8515C13.5594 11.8797 13.3764 11.9436 13.2066 12.0414C13.1066 12.0978 13.0161 12.1655 12.9331 12.2407C12.1431 11.6121 11.3527 10.9839 10.5622 10.3558L10.5606 10.3545ZM14.2536 11.8515V8.43861C15.642 8.50572 16.8811 9.13948 17.7433 10.1128L17.4389 10.3547C16.648 10.9832 15.8572 11.6117 15.0667 12.2407C14.9837 12.1655 14.8932 12.0997 14.7932 12.0414C14.6234 11.9436 14.4404 11.8797 14.2536 11.8515ZM17.7559 10.7496L18.0593 10.5084C18.6445 11.3222 18.9889 12.3196 18.9889 13.3972C18.9889 13.6955 18.9625 13.9876 18.9119 14.2714L18.5407 14.187L18.5361 14.186L18.5189 14.1821C17.54 13.9595 16.5611 13.7369 15.5818 13.5138C15.5855 13.48 15.5874 13.4461 15.5874 13.4123C15.5874 13.1358 15.5157 12.8688 15.3837 12.6356C16.1741 12.0066 16.965 11.3781 17.7559 10.7496ZM14.0084 12.3065C14.6127 12.3065 15.1026 12.7949 15.1026 13.3972C15.1026 13.9996 14.6127 14.4879 14.0084 14.4879C13.4041 14.4879 12.9142 13.9996 12.9142 13.3972C12.9142 12.7949 13.4041 12.3065 14.0084 12.3065Z" fill="#6C6C6C"/>
</svg>
