<svg width="28" height="28" viewBox="0 0 28 28" fill="none" xmlns="http://www.w3.org/2000/svg">
<path fill-rule="evenodd" clip-rule="evenodd" d="M4.94837 6.76062L13.4263 2.14602C13.784 1.95133 14.216 1.95133 14.5737 2.14602L23.0515 6.76062C23.3463 6.92103 23.5604 7.19751 23.6419 7.52299L25.964 16.7918C26.0552 17.1557 25.9708 17.5413 25.7362 17.834L19.5497 25.5509C19.322 25.835 18.9776 26.0004 18.6135 26.0004H9.38656C9.02246 26.0004 8.67804 25.835 8.45022 25.5509L2.2638 17.834C2.02907 17.5413 1.94481 17.1557 2.03599 16.7918L4.35809 7.52299C4.43966 7.19751 4.65364 6.92103 4.94837 6.76062ZM18 10C18 11.52 17.1522 12.8419 15.9038 13.5188L18 23H10L12.0962 13.5188C10.8478 12.8419 10 11.52 10 10C10 7.79086 11.7909 6 14 6C16.2091 6 18 7.79086 18 10Z" fill="#6C6C6C"/>
</svg>
