<svg width="28" height="28" viewBox="0 0 28 28" fill="none" xmlns="http://www.w3.org/2000/svg">
<path d="M20.3776 16.4879C18.9574 16.1705 17.5373 15.8531 16.1178 15.535C15.9548 15.9343 15.6751 16.2803 15.3056 16.5278C15.933 17.8047 16.561 19.0823 17.189 20.3599L17.4307 20.8513C19.1045 19.9606 20.3759 18.4362 20.9093 16.6067L20.3776 16.4879Z" fill="#6C6C6C"/>
<path d="M16.7724 21.16C15.9229 21.5073 14.9906 21.6992 14.0124 21.6992C13.0266 21.6992 12.0872 21.5043 11.2323 21.1518L13.3496 16.8392C13.7733 16.9643 14.2244 16.9643 14.6481 16.8392C15.0106 17.577 15.3734 18.3148 15.7362 19.0526L16.7724 21.16Z" fill="#6C6C6C"/>
<path d="M11.1669 19.6411L10.5764 20.8418C8.91066 19.9495 7.64595 18.4284 7.11485 16.6044L7.63084 16.489C9.04882 16.1721 10.4667 15.8552 11.8853 15.5377C12.0483 15.9369 12.3253 16.2829 12.6948 16.5331C12.1859 17.5689 11.6763 18.6051 11.1669 19.6411Z" fill="#6C6C6C"/>
<path d="M7.89627 15.6957L6.95067 15.907C6.87825 15.5063 6.84039 15.0938 6.84039 14.6727C6.84039 13.1532 7.33271 11.7464 8.16955 10.5969C9.11996 11.3397 10.0704 12.0821 11.0211 12.8247L12.0102 13.5974C11.82 13.9274 11.7141 14.3027 11.7141 14.6966C11.7141 14.7281 11.7152 14.7595 11.7176 14.7909C11.7189 14.8074 11.7204 14.8239 11.7223 14.8404C10.4469 15.1259 9.17152 15.4108 7.89627 15.6957Z" fill="#6C6C6C"/>
<path d="M9.04753 10.3662L8.62401 10.0354C9.86083 8.65702 11.64 7.75714 13.6348 7.65577V12.4849C13.3658 12.5248 13.1023 12.6153 12.8578 12.7537C12.7138 12.8335 12.5835 12.9294 12.464 13.0358C11.3256 12.1455 10.1866 11.2559 9.04753 10.3662Z" fill="#6C6C6C"/>
<path d="M14.3656 12.4849V7.65457C16.3648 7.74954 18.1493 8.64652 19.3907 10.0242L18.9537 10.3656L18.9525 10.3665C17.8135 11.256 16.6747 12.1456 15.5364 13.0358C15.4169 12.9294 15.2866 12.8362 15.1425 12.7537C14.8981 12.6153 14.6345 12.5248 14.3656 12.4849Z" fill="#6C6C6C"/>
<path d="M19.8459 10.5841C20.6884 11.7359 21.1845 13.1475 21.1845 14.6727C21.1845 15.0948 21.1465 15.5083 21.0736 15.91L20.3228 15.7422C18.9749 15.4409 17.6268 15.1396 16.2781 14.8377C16.2835 14.7898 16.2863 14.7419 16.2863 14.694C16.2863 14.3027 16.1831 13.9248 15.9929 13.5948C16.5891 13.1284 17.1855 12.6623 17.7819 12.1963L19.8459 10.5841Z" fill="#6C6C6C"/>
<path d="M14.0124 13.129C14.8826 13.129 15.5881 13.8201 15.5881 14.6727C15.5881 15.5252 14.8826 16.2164 14.0124 16.2164C13.1422 16.2164 12.4368 15.5252 12.4368 14.6727C12.4368 13.8201 13.1422 13.129 14.0124 13.129Z" fill="#6C6C6C"/>
<path fill-rule="evenodd" clip-rule="evenodd" d="M13.4263 2.14602L4.94837 6.76062C4.65364 6.92103 4.43966 7.19751 4.35809 7.52299L2.03599 16.7918C1.94481 17.1557 2.02907 17.5413 2.2638 17.834L8.45022 25.5509C8.67804 25.835 9.02246 26.0004 9.38656 26.0004H18.6135C18.9776 26.0004 19.322 25.835 19.5497 25.5509L25.7362 17.834C25.9708 17.5413 26.0552 17.1557 25.964 16.7918L23.6419 7.52299C23.5604 7.19751 23.3463 6.92103 23.0515 6.76062L14.5737 2.14602C14.216 1.95133 13.784 1.95133 13.4263 2.14602ZM18.4406 24.555C18.1405 23.9435 17.8401 23.3321 17.5398 22.7209C16.4575 23.1767 15.2651 23.4292 14.0124 23.4292C12.7524 23.4292 11.5533 23.1737 10.466 22.7128L9.55977 24.5603C9.44973 24.5084 9.34016 24.4564 9.23082 24.4045C9.1216 24.3527 9.01226 24.3008 8.90234 24.2489C9.20445 23.6333 9.5068 23.0178 9.80926 22.4025C7.66693 21.282 6.04503 19.3317 5.39076 16.9897L3.36304 17.4433L3.20003 16.746C3.87562 16.5947 4.55134 16.4434 5.22717 16.2923C5.12697 15.7674 5.07459 15.226 5.07459 14.6727C5.07459 12.7451 5.71022 10.9631 6.78742 9.5167L5.17502 8.25569L5.63147 7.69676L7.24212 8.9558C8.80448 7.18143 11.0812 6.02784 13.6348 5.92386V3.92003H14.3656V5.9229C16.9236 6.02028 19.2057 7.17087 20.7728 8.94449C21.3049 8.52868 21.837 8.11279 22.3689 7.69676L22.8254 8.25569C22.2931 8.67201 21.7606 9.08817 21.2281 9.50427C22.3109 10.9528 22.9503 12.7396 22.9503 14.6727C22.9503 15.2271 22.8977 15.7694 22.7971 16.2952L24.8003 16.7434L24.7198 17.0879L24.7189 17.092L24.6373 17.4407C23.9695 17.291 23.3015 17.1415 22.6334 16.9921C21.9769 19.3395 20.3482 21.2932 18.1978 22.4117L19.098 24.2436C18.9892 24.2949 18.881 24.3463 18.7728 24.3976L18.7693 24.3993L18.5823 24.488L18.4406 24.555Z" fill="#6C6C6C"/>
</svg>
