<svg width="28" height="28" viewBox="0 0 28 28" fill="none" xmlns="http://www.w3.org/2000/svg">
<path fill-rule="evenodd" clip-rule="evenodd" d="M6.6275 3.5H4.25C3.65326 3.5 3.08097 3.73705 2.65901 4.15901C2.23705 4.58097 2 5.15326 2 5.75V23.75C2 24.3467 2.23705 24.919 2.65901 25.341C3.08097 25.7629 3.65326 26 4.25 26H14.4767L14.9742 25.0151C14.0303 24.346 13.2691 23.4449 12.787 22.3928L11.3632 22.7024L10.7881 20.3188L12.2195 20.0072C12.2166 19.9292 12.2152 19.851 12.2152 19.7724C12.2152 19.6811 12.2171 19.5903 12.221 19.5H10.25C10.0511 19.5 9.86032 19.421 9.71967 19.2803C9.57902 19.1397 9.5 18.9489 9.5 18.75C9.5 18.5511 9.57902 18.3603 9.71967 18.2197C9.86032 18.079 10.0511 18 10.25 18H12.4697C12.5972 17.5666 12.7701 17.1518 12.9829 16.7608L11.8392 15.8913L12.5882 15H10.25C10.0511 15 9.86032 14.921 9.71967 14.7803C9.57902 14.6397 9.5 14.4489 9.5 14.25C9.5 14.0511 9.57902 13.8603 9.71967 13.7197C9.86032 13.579 10.0511 13.5 10.25 13.5H15.5C15.6989 13.5 15.8897 13.579 16.0303 13.7197C16.0739 13.7633 16.1116 13.8116 16.1428 13.8636C16.6524 13.636 17.1959 13.4674 17.7634 13.3665V12H20V5.75C20 5.15326 19.7629 4.58097 19.341 4.15901C18.919 3.73705 18.3467 3.5 17.75 3.5H15.3725C15.2173 3.06113 14.9299 2.68119 14.5497 2.41254C14.1696 2.14389 13.7155 1.99976 13.25 2H8.75C8.28451 1.99976 7.8304 2.14389 7.45026 2.41254C7.07012 2.68119 6.78266 3.06113 6.6275 3.5ZM8.75 3.5H13.25C13.4489 3.5 13.6397 3.57902 13.7803 3.71967C13.921 3.86032 14 4.05109 14 4.25C14 4.44891 13.921 4.63968 13.7803 4.78033C13.6397 4.92098 13.4489 5 13.25 5H8.75C8.55109 5 8.36032 4.92098 8.21967 4.78033C8.07902 4.63968 8 4.44891 8 4.25C8 4.05109 8.07902 3.86032 8.21967 3.71967C8.36032 3.57902 8.55109 3.5 8.75 3.5ZM9.5 9.75C9.5 9.55109 9.57902 9.36032 9.71967 9.21967C9.86032 9.07902 10.0511 9 10.25 9H15.5C15.6989 9 15.8897 9.07902 16.0303 9.21967C16.171 9.36032 16.25 9.55109 16.25 9.75C16.25 9.94891 16.171 10.1397 16.0303 10.2803C15.8897 10.421 15.6989 10.5 15.5 10.5H10.25C10.0511 10.5 9.86032 10.421 9.71967 10.2803C9.57902 10.1397 9.5 9.94891 9.5 9.75ZM8 9.75C8 10.0484 7.88147 10.3345 7.6705 10.5455C7.45952 10.7565 7.17337 10.875 6.875 10.875C6.57663 10.875 6.29048 10.7565 6.0795 10.5455C5.86853 10.3345 5.75 10.0484 5.75 9.75C5.75 9.45163 5.86853 9.16548 6.0795 8.95451C6.29048 8.74353 6.57663 8.625 6.875 8.625C7.17337 8.625 7.45952 8.74353 7.6705 8.95451C7.88147 9.16548 8 9.45163 8 9.75ZM8 14.25C8 14.5484 7.88147 14.8345 7.6705 15.0455C7.45952 15.2565 7.17337 15.375 6.875 15.375C6.57663 15.375 6.29048 15.2565 6.0795 15.0455C5.86853 14.8345 5.75 14.5484 5.75 14.25C5.75 13.9516 5.86853 13.6655 6.0795 13.4545C6.29048 13.2435 6.57663 13.125 6.875 13.125C7.17337 13.125 7.45952 13.2435 7.6705 13.4545C7.88147 13.6655 8 13.9516 8 14.25ZM6.875 19.875C6.57663 19.875 6.29048 19.7565 6.0795 19.5455C5.86853 19.3345 5.75 19.0484 5.75 18.75C5.75 18.4516 5.86853 18.1655 6.0795 17.9545C6.29048 17.7435 6.57663 17.625 6.875 17.625C7.17337 17.625 7.45952 17.7435 7.6705 17.9545C7.88147 18.1655 8 18.4516 8 18.75C8 19.0484 7.88147 19.3345 7.6705 19.5455C7.45952 19.7565 7.17337 19.875 6.875 19.875Z" fill="#D7D7D7"/>
<path fill-rule="evenodd" clip-rule="evenodd" d="M21.878 25.9966C21.6835 25.6115 21.4888 25.2264 21.2941 24.8414C20.5927 25.1285 19.8198 25.2876 19.0079 25.2876C18.1913 25.2876 17.4141 25.1267 16.7094 24.8364L16.122 26C16.0507 25.9673 15.9797 25.9346 15.9088 25.9019L15.9045 25.8999C15.8351 25.8679 15.7657 25.8359 15.6959 25.8039C15.8917 25.4161 16.0877 25.0285 16.2837 24.6409C14.8952 23.9352 13.844 22.7068 13.4199 21.2318L12.1056 21.5175L12 21.0783L13.3138 20.7925C13.2489 20.4619 13.2149 20.1209 13.2149 19.7724C13.2149 18.5584 13.627 17.436 14.3252 16.525L13.2801 15.7308L13.5759 15.3787C13.9238 15.6431 14.2718 15.9074 14.6198 16.1717C15.6325 15.0541 17.1081 14.3276 18.7632 14.2621V13H19.2368V14.2615C20.8948 14.3228 22.3739 15.0475 23.3896 16.1646C23.7345 15.9027 24.0793 15.6408 24.4241 15.3787L24.7199 15.7308C24.3749 15.993 24.0298 16.2551 23.6847 16.5172C24.3865 17.4295 24.8009 18.5549 24.8009 19.7724C24.8009 20.1216 24.7668 20.4632 24.7016 20.7943L26 21.0766L25.8944 21.5158L24.5955 21.2333C24.17 22.7118 23.1144 23.9422 21.7206 24.6467L22.3041 25.8005C22.2717 25.8154 22.2394 25.8302 22.2071 25.8451C22.1684 25.8629 22.1297 25.8807 22.0911 25.8986C22.0204 25.9312 21.9491 25.964 21.878 25.9966ZM23.129 20.9147C22.21 20.7151 21.2911 20.5155 20.3725 20.3155C20.2669 20.567 20.0855 20.7849 19.8461 20.9408C20.2555 21.7506 20.6654 22.5608 21.0753 23.371L21.2234 23.6639C22.3083 23.1029 23.1323 22.1428 23.4781 20.9905L23.129 20.9147ZM20.4104 23.0947L20.7968 23.8584C20.2462 24.0771 19.6419 24.1979 19.0079 24.1979C18.369 24.1979 17.7601 24.0752 17.206 23.8532L18.5783 21.1369C18.853 21.2157 19.1453 21.2157 19.4199 21.1369C19.7499 21.7895 20.0801 22.442 20.4104 23.0947ZM16.7809 23.658C15.7013 23.0959 14.8816 22.1379 14.5373 20.989L14.8718 20.9164C15.7908 20.7168 16.7098 20.5172 17.6292 20.3172C17.7349 20.5687 17.9145 20.7866 18.1539 20.9442C17.8254 21.594 17.4964 22.2441 17.1675 22.894L16.7809 23.658ZM15.0439 20.4168L14.4309 20.5498C14.384 20.2974 14.3595 20.0376 14.3595 19.7724C14.3595 18.8154 14.6785 17.9293 15.2209 17.2054L17.7102 19.0952C17.587 19.303 17.5183 19.5394 17.5183 19.7875C17.5183 19.8177 17.5201 19.8478 17.5236 19.878C16.6971 20.0578 15.8702 20.2373 15.0439 20.4168ZM15.79 17.06L15.5155 16.8517C16.3172 15.9835 17.4703 15.4168 18.7632 15.3529V18.3945C18.5889 18.4196 18.4181 18.4766 18.2596 18.5638C18.1663 18.6141 18.0818 18.6744 18.0043 18.7415C17.2665 18.1807 16.5282 17.6204 15.79 17.06ZM19.2368 18.3945V15.3521C20.5326 15.412 21.6891 15.9769 22.4938 16.8446L22.2105 17.0596C21.4723 17.6199 20.7334 18.1808 19.9957 18.7415C19.9182 18.6744 19.8337 18.6157 19.7404 18.5638C19.5819 18.4766 19.4111 18.4196 19.2368 18.3945ZM22.5056 17.4122L22.7888 17.1972C23.3349 17.9227 23.6564 18.8118 23.6564 19.7724C23.6564 20.0383 23.6318 20.2987 23.5846 20.5517L23.2143 20.4713C22.3018 20.2731 21.3893 20.0749 20.4764 19.8763C20.4799 19.8462 20.4817 19.816 20.4817 19.7858C20.4817 19.5394 20.4148 19.3014 20.2915 19.0935C21.0293 18.5328 21.7674 17.9725 22.5056 17.4122ZM19.0079 18.8001C19.5719 18.8001 20.0292 19.2354 20.0292 19.7724C20.0292 20.3094 19.5719 20.7447 19.0079 20.7447C18.4439 20.7447 17.9867 20.3094 17.9867 19.7724C17.9867 19.2354 18.4439 18.8001 19.0079 18.8001Z" fill="#D7D7D7"/>
</svg>
