<svg width="60" height="60" viewBox="0 0 60 60" fill="none" xmlns="http://www.w3.org/2000/svg">
<rect width="60" height="60" fill="#111214"/>
<path d="M30 53.9997L8.77533 26.3164L6.08957 34.7292C5.97016 35.1032 5.97014 35.5061 6.08953 35.8801C6.20891 36.2541 6.44158 36.5801 6.75417 36.8112L30 53.9997Z" fill="#FCA326"/>
<path d="M30 53.9997L51.2247 26.3166L53.9105 34.7292C54.0299 35.1033 54.0299 35.5061 53.9104 35.8801C53.791 36.2542 53.5583 36.5801 53.2457 36.8112L30 53.9997Z" fill="#FCA326"/>
<path d="M29.9998 53.9985L8.77539 26.3164H21.1617L29.9998 53.9985L38.8374 26.3164H51.2239L29.9998 53.9985Z" fill="#FC6D26"/>
<path d="M8.77539 26.3169H21.1617L15.8388 9.64341C15.5648 8.78544 14.3723 8.78563 14.0985 9.64341L8.77539 26.3169Z" fill="#E24329"/>
<path d="M30.0005 54.0005L38.8387 26.3174L21.1617 26.3169L30.0005 54.0005Z" fill="#E24329"/>
<path d="M38.8387 26.3174L51.2244 26.3169L45.9013 9.64341C45.6275 8.78563 44.4349 8.78544 44.161 9.64341L38.8387 26.3174Z" fill="#E24329"/>
</svg>
