<svg width="60" height="60" viewBox="0 0 60 60" fill="none" xmlns="http://www.w3.org/2000/svg">
<rect width="60" height="60" fill="#111214"/>
<path d="M52.7219 41.0574C46.7038 45.502 37.9676 47.8679 30.5083 47.8679C20.4435 47.9342 10.7179 44.2334 3.24337 37.4928C2.68221 36.9866 3.1772 36.2931 3.85953 36.679C12.151 41.4219 21.5388 43.914 31.091 43.9079C38.2243 43.8697 45.2798 42.4226 51.8523 39.6498C52.8646 39.2201 53.7231 40.3201 52.7219 41.0574ZM55.2304 38.1966C54.4604 37.2066 50.1361 37.7343 48.2 37.9654C47.6165 38.0316 47.5176 37.5254 48.0462 37.1516C51.4896 34.7308 57.1451 35.4243 57.7947 36.2381C58.4436 37.0519 57.6186 42.7186 54.3951 45.4256C53.9001 45.8441 53.4266 45.6232 53.6466 45.0732C54.3719 43.2471 56.0004 39.1875 55.2304 38.1966Z" fill="#A9A9A9"/>
<path d="M18.5037 24.9648C18.4418 26.9112 19.4146 27.7732 19.4387 28.3206C19.4272 28.432 19.3892 28.5391 19.3279 28.6328C19.2667 28.7265 19.1838 28.8043 19.0863 28.8594L17.9863 29.6294C17.844 29.7292 17.6762 29.7864 17.5025 29.7944C17.4656 29.7927 16.7987 29.9517 15.7426 27.5936C15.0982 28.3979 14.2783 29.0441 13.3457 29.4828C12.4132 29.9215 11.3926 30.1409 10.3621 30.1244C8.96306 30.2009 5.17156 29.3303 5.36663 25.2939C5.22999 22.0043 8.29361 19.9607 11.4621 20.1335C12.0722 20.1352 13.3183 20.1653 15.5002 20.6723V19.33C15.7314 17.0561 14.237 15.2918 11.6494 15.5565C11.4432 15.5574 9.98226 15.5135 7.71011 16.4253C7.07762 16.7158 6.99684 16.6677 6.78629 16.6677C6.14951 16.6677 6.41161 14.8218 6.53364 14.588C6.98137 14.038 9.61531 13.0111 12.2003 13.0257C13.9287 12.8728 15.6478 13.4063 16.986 14.5107C17.5301 15.1192 17.9451 15.8316 18.2061 16.605C18.4671 17.3783 18.5686 18.1966 18.5045 19.0103L18.5037 24.9648ZM11.0771 27.7483C13.864 27.7079 15.0439 26.0321 15.3129 25.1298C15.5243 24.2661 15.489 23.7196 15.489 22.7751C14.658 22.5758 13.4618 22.3584 12.0894 22.3566C10.7875 22.2587 8.40963 22.8405 8.50244 25.1289C8.39588 26.5718 9.45805 27.8273 11.0771 27.7483ZM25.7653 29.7291C25.0898 29.791 24.7753 29.3114 24.6756 28.8379L20.396 14.6886C20.3126 14.4497 20.2576 14.203 20.231 13.9512C20.2152 13.8474 20.2413 13.7416 20.3035 13.657C20.3657 13.5724 20.4589 13.516 20.5627 13.5001C20.5833 13.4966 20.3797 13.5001 22.4748 13.5001C23.2293 13.4244 23.4751 14.0183 23.5533 14.3912L26.6229 26.4936L29.4726 14.3912C29.5181 14.1145 29.7252 13.4399 30.5725 13.5112H32.0472C32.2337 13.4958 33.002 13.4683 33.1369 14.4024L36.0089 26.6595L39.1773 14.4024C39.2186 14.2151 39.4111 13.4253 40.267 13.5112H41.9617C42.0347 13.5001 42.4902 13.4416 42.4128 14.2486C42.3759 14.4075 42.7059 13.3325 37.8797 28.8491C37.7809 29.3226 37.4655 29.8021 36.79 29.7403H35.1839C34.2437 29.8391 34.1088 28.9101 34.0942 28.8165L31.2446 17.032L28.4276 28.8044C28.4138 28.8981 28.2789 29.8271 27.3379 29.7282L25.7653 29.7291ZM49.2671 30.2129C48.7618 30.2138 46.3521 30.1871 44.3378 29.1568C44.1371 29.0718 43.9662 28.9292 43.8467 28.747C43.7272 28.5647 43.6646 28.3511 43.6666 28.1333V27.2094C43.6666 26.4833 44.1994 26.6165 44.4254 26.7033C45.2882 27.0522 45.8417 27.3169 46.9013 27.5283C50.0508 28.1754 51.4361 27.3306 51.7756 27.1433C52.9056 26.4721 52.995 24.9364 52.2267 24.1398C51.3261 23.3844 50.8964 23.3561 47.6609 22.3352C47.2622 22.2243 43.9055 21.1656 43.8978 17.8355C43.8454 15.4087 46.0505 13.0076 49.8721 13.0274C50.9609 13.0266 53.8621 13.3823 54.6475 14.3697C54.7635 14.5493 54.8211 14.7607 54.8125 14.9747V15.8435C54.8125 16.2251 54.6733 16.4159 54.394 16.4159C53.7315 16.342 52.5559 15.456 50.1694 15.4921C49.5773 15.4611 46.7414 15.5703 46.8686 17.6379C46.8316 19.2672 49.1554 19.8782 49.4209 19.9487C52.5541 20.8914 53.6017 21.0478 54.8452 22.4907C56.3181 24.4028 55.5241 26.6414 55.219 27.255C53.5794 30.4767 49.3393 30.2146 49.2671 30.2129Z" fill="#A9A9A9"/>
</svg>
