<svg width="60" height="60" viewBox="0 0 60 60" fill="none" xmlns="http://www.w3.org/2000/svg">
<rect width="60" height="60" fill="#111214"/>
<path d="M52.5624 26.0934H50.75V26H30.5V35H43.2159C41.3608 40.2391 36.3759 44 30.5 44C23.0446 44 17 37.9554 17 30.5C17 23.0446 23.0446 17 30.5 17C33.9414 17 37.0723 18.2982 39.4561 20.4189L45.8203 14.0547C41.8018 10.3096 36.4265 8 30.5 8C18.0744 8 8 18.0744 8 30.5C8 42.9256 18.0744 53 30.5 53C42.9256 53 53 42.9256 53 30.5C53 28.9914 52.8447 27.5187 52.5624 26.0934Z" fill="#A9A9A9"/>
<path d="M10.5938 20.0274L17.9861 25.4487C19.9864 20.4965 24.8306 17 30.4995 17C33.9409 17 37.0718 18.2982 39.4556 20.4189L45.8198 14.0547C41.8013 10.3096 36.426 8 30.4995 8C21.8573 8 14.3625 12.8791 10.5938 20.0274Z" fill="#A9A9A9"/>
<path d="M30.5004 52.9998C36.3121 52.9998 41.5929 50.7757 45.5855 47.1588L38.6217 41.266C36.2868 43.0417 33.4337 44.0021 30.5004 43.9998C24.6481 43.9998 19.679 40.2682 17.807 35.0605L10.4697 40.7137C14.1935 48.0003 21.7557 52.9998 30.5004 52.9998Z" fill="#A9A9A9"/>
<path d="M52.5624 26.0934H50.75V26H30.5V35H43.2159C42.3285 37.4935 40.73 39.6723 38.618 41.2674L38.6214 41.2651L45.5851 47.1579C45.0924 47.6056 53 41.75 53 30.5C53 28.9914 52.8447 27.5188 52.5624 26.0934Z" fill="#A9A9A9"/>
</svg>
