<svg width="28" height="28" viewBox="0 0 28 28" fill="none" xmlns="http://www.w3.org/2000/svg">
<path fill-rule="evenodd" clip-rule="evenodd" d="M15.1392 16.6523C12.6323 18.4389 9.12934 18.2077 6.88019 15.9585C4.37327 13.4516 4.37327 9.3871 6.88019 6.88019C9.3871 4.37327 13.4516 4.37327 15.9585 6.88019C18.2077 9.12934 18.4389 12.6323 16.6523 15.1392L23 21.4869L21.4869 23L15.1392 16.6523ZM14.4455 14.4455C12.7742 16.1167 10.0645 16.1167 8.39324 14.4455C6.72197 12.7742 6.72197 10.0645 8.39324 8.39324C10.0645 6.72197 12.7742 6.72197 14.4455 8.39324C16.1167 10.0645 16.1167 12.7742 14.4455 14.4455Z" fill="#6C6C6C"/>
</svg>
