<svg width="32" height="28" viewBox="0 0 32 28" fill="none" xmlns="http://www.w3.org/2000/svg">
<path fill-rule="evenodd" clip-rule="evenodd" d="M9.58579 4H12.5858H31V27H1V4H9.58579ZM13 3L10 0H0V28H32V3H13ZM7.86684 18V15.8743L10.2959 12H8.87597L7.20599 14.6657L5.53602 12H4L6.42012 15.8571V18H7.86684ZM10.3384 16.7143H13.2408L13.7945 18H15.3126L12.5174 12H11.0886L8.30231 18H9.78474L10.3384 16.7143ZM21.3842 18L21.3753 14.4L19.5356 17.3657H18.8837L17.053 14.4771V18H15.6956V12H16.8923L19.232 15.7286L21.536 12H22.7238L22.7416 18H21.3842ZM24.8654 12H23.4187V18H28V16.8686H24.8654V12ZM12.7853 15.66L11.7941 13.3629L10.8028 15.66H12.7853Z" fill="white"/>
</svg>
