<svg width="32" height="28" viewBox="0 0 32 28" fill="none" xmlns="http://www.w3.org/2000/svg">
<path fill-rule="evenodd" clip-rule="evenodd" d="M10.3876 5.42857H13.0126H29.125V25.1429H2.875V5.42857H10.3876ZM13.375 4.57143L10.75 2H2V26H30V4.57143H13.375ZM8.88349 17.4286V15.6065L11.0089 12.2857H9.76647L8.30525 14.5706L6.84402 12.2857H5.5L7.61761 15.5918V17.4286H8.88349ZM11.0461 16.3265H13.5857L14.0702 17.4286H15.3986L12.9528 12.2857H11.7025L9.26452 17.4286H10.5616L11.0461 16.3265ZM20.7112 17.4286L20.7034 14.3429L19.0937 16.8849H18.5233L16.9214 14.409V17.4286H15.7336V12.2857H16.7807L18.828 15.4816L20.844 12.2857H21.8833L21.8989 17.4286H20.7112ZM23.7573 12.2857H22.4914V17.4286H26.5V16.4588H23.7573V12.2857ZM13.1872 15.4229L12.3198 13.4539L11.4525 15.4229H13.1872Z" fill="#D7D7D7"/>
</svg>
