<svg width="103" height="17" viewBox="0 0 103 17" fill="none" xmlns="http://www.w3.org/2000/svg">
<path fill-rule="evenodd" clip-rule="evenodd" d="M94.4215 12.4466C92.4462 12.4466 91.1933 10.8006 91.1933 8.98071V8.93498C91.1933 7.138 92.4233 5.51477 94.3758 5.51477C96.3511 5.51477 97.6039 7.16086 97.6039 8.98071V9.02643C97.6039 10.8234 96.3739 12.4466 94.4215 12.4466ZM94.3758 16.9917C99.1174 16.9917 102.78 13.4343 102.78 8.98071V8.93498C102.78 4.48139 99.1586 0.969727 94.4215 0.969727C89.6798 0.969727 86.0127 4.52711 86.0127 8.98071V9.02643C86.0127 13.48 89.6341 16.9917 94.3758 16.9917Z" fill="#D7D7D7"/>
<path fill-rule="evenodd" clip-rule="evenodd" d="M60.3337 16.7722H65.4686V5.75254H69.9908V1.40869H55.8115V5.75254H60.3337V16.7722Z" fill="#D7D7D7"/>
<path fill-rule="evenodd" clip-rule="evenodd" d="M76.0265 8.71551V5.71139H78.267C79.4513 5.71139 80.2195 6.1915 80.2195 7.17916V7.22488C80.2195 8.16681 79.4741 8.71551 78.2441 8.71551H76.0265ZM70.8916 16.7722H76.0265V12.3826H77.0827H77.1239L80.0228 16.7722H85.8802L82.3045 11.5504C84.1701 10.6497 85.3315 9.09045 85.3315 6.84994V6.80879C85.3315 5.22671 84.8514 4.08816 83.9277 3.16452C82.8532 2.08999 81.1202 1.40869 78.3996 1.40869H70.8916V16.7722Z" fill="#D7D7D7"/>
<path d="M40.2975 1.29883H35.1626V16.6624H40.2975V1.29883Z" fill="#D7D7D7"/>
<path fill-rule="evenodd" clip-rule="evenodd" d="M49.0766 16.9459C53.201 16.9459 55.8576 14.9706 55.8576 11.747V11.7013C55.8576 8.6057 53.2239 7.46715 49.2961 6.74012C47.6729 6.43377 47.2522 6.17314 47.2522 5.75247V5.71132C47.2522 5.33637 47.6043 5.07574 48.3725 5.07574C49.7991 5.07574 51.532 5.53299 52.9815 6.58923L55.4827 3.11872C53.7085 1.71497 51.5138 1.01538 48.5508 1.01538C44.3121 1.01538 42.0304 3.27419 42.0304 6.19143V6.23715C42.0304 9.48361 45.0574 10.4713 48.5051 11.1754C50.1512 11.5046 50.6358 11.747 50.6358 12.1859V12.2271C50.6358 12.6478 50.238 12.8855 49.319 12.8855C47.5174 12.8855 45.6061 12.3597 43.9417 11.0886L41.1982 14.3579C43.1507 16.068 45.9582 16.9459 49.0766 16.9459Z" fill="#D7D7D7"/>
<path fill-rule="evenodd" clip-rule="evenodd" d="M5.3498 12.4924C8.6054 12.4924 10.7682 11.0292 10.7682 7.30721V1.37671H7.06448V7.41695C7.06448 8.7384 6.36489 9.26881 5.38181 9.26881C4.4033 9.26881 3.70371 8.69267 3.70371 7.33922V1.37671H0V7.38494C0 10.9972 2.09877 12.4924 5.3498 12.4924Z" fill="#D7D7D7"/>
<path fill-rule="evenodd" clip-rule="evenodd" d="M94.4215 12.4466C92.4462 12.4466 91.1933 10.8006 91.1933 8.98071V8.93498C91.1933 7.138 92.4233 5.51477 94.3758 5.51477C96.3511 5.51477 97.6039 7.16086 97.6039 8.98071V9.02643C97.6039 10.8234 96.3739 12.4466 94.4215 12.4466ZM94.3758 16.9917C99.1174 16.9917 102.78 13.4343 102.78 8.98071V8.93498C102.78 4.48139 99.1586 0.969727 94.4215 0.969727C89.6798 0.969727 86.0127 4.52711 86.0127 8.98071V9.02643C86.0127 13.48 89.6341 16.9917 94.3758 16.9917Z" fill="#D7D7D7"/>
<path fill-rule="evenodd" clip-rule="evenodd" d="M60.3337 16.7722H65.4686V5.75254H69.9908V1.40869H55.8115V5.75254H60.3337V16.7722Z" fill="#D7D7D7"/>
<path fill-rule="evenodd" clip-rule="evenodd" d="M76.0265 8.71551V5.71139H78.267C79.4513 5.71139 80.2195 6.1915 80.2195 7.17916V7.22488C80.2195 8.16681 79.4741 8.71551 78.2441 8.71551H76.0265ZM70.8916 16.7722H76.0265V12.3826H77.0827H77.1239L80.0228 16.7722H85.8802L82.3045 11.5504C84.1701 10.6497 85.3315 9.09045 85.3315 6.84994V6.80879C85.3315 5.22671 84.8514 4.08816 83.9277 3.16452C82.8532 2.08999 81.1202 1.40869 78.3996 1.40869H70.8916V16.7722Z" fill="#D7D7D7"/>
<path d="M40.2975 1.29883H35.1626V16.6624H40.2975V1.29883Z" fill="#D7D7D7"/>
<path fill-rule="evenodd" clip-rule="evenodd" d="M49.0766 16.9459C53.201 16.9459 55.8576 14.9706 55.8576 11.747V11.7013C55.8576 8.6057 53.2239 7.46715 49.2961 6.74012C47.6729 6.43377 47.2522 6.17314 47.2522 5.75247V5.71132C47.2522 5.33637 47.6043 5.07574 48.3725 5.07574C49.7991 5.07574 51.532 5.53299 52.9815 6.58923L55.4827 3.11872C53.7085 1.71497 51.5138 1.01538 48.5508 1.01538C44.3121 1.01538 42.0304 3.27419 42.0304 6.19143V6.23715C42.0304 9.48361 45.0574 10.4713 48.5051 11.1754C50.1512 11.5046 50.6358 11.747 50.6358 12.1859V12.2271C50.6358 12.6478 50.238 12.8855 49.319 12.8855C47.5174 12.8855 45.6061 12.3597 43.9417 11.0886L41.1982 14.3579C43.1507 16.068 45.9582 16.9459 49.0766 16.9459Z" fill="#D7D7D7"/>
<path fill-rule="evenodd" clip-rule="evenodd" d="M5.3498 12.4924C8.6054 12.4924 10.7682 11.0292 10.7682 7.30721V1.37671H7.06448V7.41695C7.06448 8.7384 6.36489 9.26881 5.38181 9.26881C4.4033 9.26881 3.70371 8.69267 3.70371 7.33922V1.37671H0V7.38494C0 10.9972 2.09877 12.4924 5.3498 12.4924Z" fill="#D7D7D7"/>
<path fill-rule="evenodd" clip-rule="evenodd" d="M94.4215 12.4466C92.4462 12.4466 91.1933 10.8006 91.1933 8.98071V8.93498C91.1933 7.138 92.4233 5.51477 94.3758 5.51477C96.3511 5.51477 97.6039 7.16086 97.6039 8.98071V9.02643C97.6039 10.8234 96.3739 12.4466 94.4215 12.4466ZM94.3758 16.9917C99.1174 16.9917 102.78 13.4343 102.78 8.98071V8.93498C102.78 4.48139 99.1586 0.969727 94.4215 0.969727C89.6798 0.969727 86.0127 4.52711 86.0127 8.98071V9.02643C86.0127 13.48 89.6341 16.9917 94.3758 16.9917Z" fill="#D7D7D7"/>
<path fill-rule="evenodd" clip-rule="evenodd" d="M60.3337 16.7722H65.4686V5.75254H69.9908V1.40869H55.8115V5.75254H60.3337V16.7722Z" fill="#D7D7D7"/>
<path fill-rule="evenodd" clip-rule="evenodd" d="M76.0265 8.71551V5.71139H78.267C79.4513 5.71139 80.2195 6.1915 80.2195 7.17916V7.22488C80.2195 8.16681 79.4741 8.71551 78.2441 8.71551H76.0265ZM70.8916 16.7722H76.0265V12.3826H77.0827H77.1239L80.0228 16.7722H85.8802L82.3045 11.5504C84.1701 10.6497 85.3315 9.09045 85.3315 6.84994V6.80879C85.3315 5.22671 84.8514 4.08816 83.9277 3.16452C82.8532 2.08999 81.1202 1.40869 78.3996 1.40869H70.8916V16.7722Z" fill="#D7D7D7"/>
<path d="M40.2975 1.29883H35.1626V16.6624H40.2975V1.29883Z" fill="#D7D7D7"/>
<path fill-rule="evenodd" clip-rule="evenodd" d="M49.0766 16.9459C53.201 16.9459 55.8576 14.9706 55.8576 11.747V11.7013C55.8576 8.6057 53.2239 7.46715 49.2961 6.74012C47.6729 6.43377 47.2522 6.17314 47.2522 5.75247V5.71132C47.2522 5.33637 47.6043 5.07574 48.3725 5.07574C49.7991 5.07574 51.532 5.53299 52.9815 6.58923L55.4827 3.11872C53.7085 1.71497 51.5138 1.01538 48.5508 1.01538C44.3121 1.01538 42.0304 3.27419 42.0304 6.19143V6.23715C42.0304 9.48361 45.0574 10.4713 48.5051 11.1754C50.1512 11.5046 50.6358 11.747 50.6358 12.1859V12.2271C50.6358 12.6478 50.238 12.8855 49.319 12.8855C47.5174 12.8855 45.6061 12.3597 43.9417 11.0886L41.1982 14.3579C43.1507 16.068 45.9582 16.9459 49.0766 16.9459Z" fill="#D7D7D7"/>
<path fill-rule="evenodd" clip-rule="evenodd" d="M5.3498 12.4924C8.6054 12.4924 10.7682 11.0292 10.7682 7.30721V1.37671H7.06448V7.41695C7.06448 8.7384 6.36489 9.26881 5.38181 9.26881C4.4033 9.26881 3.70371 8.69267 3.70371 7.33922V1.37671H0V7.38494C0 10.9972 2.09877 12.4924 5.3498 12.4924Z" fill="#D7D7D7"/>
<path fill-rule="evenodd" clip-rule="evenodd" d="M24.2252 12.163L24.2298 5.77528H25.0848C27.4351 5.77528 28.9486 6.74008 28.9486 8.95773V9.00345C28.9486 11.2211 27.4351 12.1859 25.0848 12.1859H24.2526V16.6624H24.8013C31.0108 16.6624 34.1292 13.4342 34.1292 8.89371V8.84799C34.1292 4.30752 31.0794 1.29883 24.9751 1.29883H22.4968H19.0949H18.7337V6.10908L14.8562 1.29883H11.4497V12.195H15.062V7.16989L19.104 12.195L24.2252 12.163Z" fill="#D7D7D7"/>
</svg>
