<?xml version="1.0" encoding="utf-8"?>
<!-- Generator: Adobe Illustrator 25.1.0, SVG Export Plug-In . SVG Version: 6.00 Build 0)  -->
<svg version="1.1" id="Camada_1" xmlns="http://www.w3.org/2000/svg" xmlns:xlink="http://www.w3.org/1999/xlink" x="0px" y="0px"
	 viewBox="0 0 244.97 53.95" style="enable-background:new 0 0 244.97 53.95;" xml:space="preserve">
<style type="text/css">
	.st0{fill-rule:evenodd;clip-rule:evenodd;fill:#3BB8BC;}
</style>
<g>
	<path class="st0" d="M216.3,35.28c-4.32,0-7.06-3.6-7.06-7.58v-0.1c0-3.93,2.69-7.48,6.96-7.48c4.32,0,7.06,3.6,7.06,7.58v0.1
		C223.26,31.73,220.57,35.28,216.3,35.28z M216.2,45.22c10.37,0,18.38-7.78,18.38-17.52v-0.1c0-9.74-7.92-17.42-18.28-17.42
		c-10.37,0-18.39,7.78-18.39,17.52v0.1C197.91,37.54,205.83,45.22,216.2,45.22z"/>
	<polygon class="st0" points="141.75,44.74 152.98,44.74 152.98,20.64 162.87,20.64 162.87,11.14 131.86,11.14 131.86,20.64 
		141.75,20.64 	"/>
	<path class="st0" d="M176.07,27.12v-6.57h4.9c2.59,0,4.27,1.05,4.27,3.21v0.1c0,2.06-1.63,3.26-4.32,3.26H176.07z M164.84,44.74
		h11.23v-9.6h2.31h0.09l6.34,9.6h12.81l-7.82-11.42c4.08-1.97,6.62-5.38,6.62-10.28v-0.09c0-3.46-1.05-5.95-3.07-7.97
		c-2.35-2.35-6.14-3.84-12.09-3.84h-16.42V44.74z"/>
	<rect x="86.7" y="10.9" class="st0" width="11.23" height="33.6"/>
	<path class="st0" d="M117.13,45.12c9.02,0,14.83-4.32,14.83-11.37v-0.1c0-6.77-5.76-9.26-14.35-10.85
		c-3.55-0.67-4.47-1.24-4.47-2.16v-0.09c0-0.82,0.77-1.39,2.45-1.39c3.12,0,6.91,1,10.08,3.31l5.47-7.59
		c-3.88-3.07-8.68-4.6-15.16-4.6c-9.27,0-14.26,4.94-14.26,11.32v0.1c0,7.1,6.62,9.26,14.16,10.8c3.6,0.72,4.66,1.25,4.66,2.21v0.09
		c0,0.92-0.87,1.44-2.88,1.44c-3.94,0-8.12-1.15-11.76-3.93l-6,7.15C104.17,43.2,110.31,45.12,117.13,45.12z"/>
	<path class="st0" d="M21.5,35.38c7.12,0,11.85-3.2,11.85-11.34V11.07h-8.1v13.21c0,2.89-1.53,4.05-3.68,4.05
		c-2.14,0-3.67-1.26-3.67-4.22V11.07H9.8v13.14C9.8,32.11,14.39,35.38,21.5,35.38z"/>
	<path class="st0" d="M216.3,35.28c-4.32,0-7.06-3.6-7.06-7.58v-0.1c0-3.93,2.69-7.48,6.96-7.48c4.32,0,7.06,3.6,7.06,7.58v0.1
		C223.26,31.73,220.57,35.28,216.3,35.28z M216.2,45.22c10.37,0,18.38-7.78,18.38-17.52v-0.1c0-9.74-7.92-17.42-18.28-17.42
		c-10.37,0-18.39,7.78-18.39,17.52v0.1C197.91,37.54,205.83,45.22,216.2,45.22z"/>
	<polygon class="st0" points="141.75,44.74 152.98,44.74 152.98,20.64 162.87,20.64 162.87,11.14 131.86,11.14 131.86,20.64 
		141.75,20.64 	"/>
	<path class="st0" d="M176.07,27.12v-6.57h4.9c2.59,0,4.27,1.05,4.27,3.21v0.1c0,2.06-1.63,3.26-4.32,3.26H176.07z M164.84,44.74
		h11.23v-9.6h2.31h0.09l6.34,9.6h12.81l-7.82-11.42c4.08-1.97,6.62-5.38,6.62-10.28v-0.09c0-3.46-1.05-5.95-3.07-7.97
		c-2.35-2.35-6.14-3.84-12.09-3.84h-16.42V44.74z"/>
	<rect x="86.7" y="10.9" class="st0" width="11.23" height="33.6"/>
	<path class="st0" d="M117.13,45.12c9.02,0,14.83-4.32,14.83-11.37v-0.1c0-6.77-5.76-9.26-14.35-10.85
		c-3.55-0.67-4.47-1.24-4.47-2.16v-0.09c0-0.82,0.77-1.39,2.45-1.39c3.12,0,6.91,1,10.08,3.31l5.47-7.59
		c-3.88-3.07-8.68-4.6-15.16-4.6c-9.27,0-14.26,4.94-14.26,11.32v0.1c0,7.1,6.62,9.26,14.16,10.8c3.6,0.72,4.66,1.25,4.66,2.21v0.09
		c0,0.92-0.87,1.44-2.88,1.44c-3.94,0-8.12-1.15-11.76-3.93l-6,7.15C104.17,43.2,110.31,45.12,117.13,45.12z"/>
	<path class="st0" d="M21.5,35.38c7.12,0,11.85-3.2,11.85-11.34V11.07h-8.1v13.21c0,2.89-1.53,4.05-3.68,4.05
		c-2.14,0-3.67-1.26-3.67-4.22V11.07H9.8v13.14C9.8,32.11,14.39,35.38,21.5,35.38z"/>
	<path class="st0" d="M216.3,35.28c-4.32,0-7.06-3.6-7.06-7.58v-0.1c0-3.93,2.69-7.48,6.96-7.48c4.32,0,7.06,3.6,7.06,7.58v0.1
		C223.26,31.73,220.57,35.28,216.3,35.28z M216.2,45.22c10.37,0,18.38-7.78,18.38-17.52v-0.1c0-9.74-7.92-17.42-18.28-17.42
		c-10.37,0-18.39,7.78-18.39,17.52v0.1C197.91,37.54,205.83,45.22,216.2,45.22z"/>
	<polygon class="st0" points="141.75,44.74 152.98,44.74 152.98,20.64 162.87,20.64 162.87,11.14 131.86,11.14 131.86,20.64 
		141.75,20.64 	"/>
	<path class="st0" d="M176.07,27.12v-6.57h4.9c2.59,0,4.27,1.05,4.27,3.21v0.1c0,2.06-1.63,3.26-4.32,3.26H176.07z M164.84,44.74
		h11.23v-9.6h2.31h0.09l6.34,9.6h12.81l-7.82-11.42c4.08-1.97,6.62-5.38,6.62-10.28v-0.09c0-3.46-1.05-5.95-3.07-7.97
		c-2.35-2.35-6.14-3.84-12.09-3.84h-16.42V44.74z"/>
	<rect x="86.7" y="10.9" class="st0" width="11.23" height="33.6"/>
	<path class="st0" d="M117.13,45.12c9.02,0,14.83-4.32,14.83-11.37v-0.1c0-6.77-5.76-9.26-14.35-10.85
		c-3.55-0.67-4.47-1.24-4.47-2.16v-0.09c0-0.82,0.77-1.39,2.45-1.39c3.12,0,6.91,1,10.08,3.31l5.47-7.59
		c-3.88-3.07-8.68-4.6-15.16-4.6c-9.27,0-14.26,4.94-14.26,11.32v0.1c0,7.1,6.62,9.26,14.16,10.8c3.6,0.72,4.66,1.25,4.66,2.21v0.09
		c0,0.92-0.87,1.44-2.88,1.44c-3.94,0-8.12-1.15-11.76-3.93l-6,7.15C104.17,43.2,110.31,45.12,117.13,45.12z"/>
	<path class="st0" d="M21.5,35.38c7.12,0,11.85-3.2,11.85-11.34V11.07h-8.1v13.21c0,2.89-1.53,4.05-3.68,4.05
		c-2.14,0-3.67-1.26-3.67-4.22V11.07H9.8v13.14C9.8,32.11,14.39,35.38,21.5,35.38z"/>
	<path class="st0" d="M62.78,34.66l0.01-13.97h1.87c5.14,0,8.45,2.11,8.45,6.96v0.1c0,4.85-3.31,6.96-8.45,6.96h-1.82v9.79h1.2
		c13.58,0,20.4-7.06,20.4-16.99v-0.1c0-9.93-6.67-16.51-20.02-16.51H59h-7.44h-0.79v10.52L42.29,10.9h-7.45v23.83h7.9V23.74
		l8.84,10.99L62.78,34.66z"/>
</g>
</svg>
