<svg width="80" height="80" viewBox="0 0 80 80" fill="none" xmlns="http://www.w3.org/2000/svg">
<mask id="path-1-inside-1" fill="white">
<path d="M80 40C80 47.5905 77.8403 55.0242 73.7731 61.4331C69.7059 67.8419 63.8992 72.9612 57.0312 76.1931L40 40H80Z"/>
</mask>
<path d="M80 40C80 47.5905 77.8403 55.0242 73.7731 61.4331C69.7059 67.8419 63.8992 72.9612 57.0312 76.1931L40 40H80Z" stroke="#F8F8F8" stroke-width="12" mask="url(#path-1-inside-1)"/>
<mask id="path-2-inside-2" fill="white">
<path d="M40 80C32.4095 80 24.9757 77.8403 18.5669 73.7731C12.1581 69.7059 7.03874 63.8992 3.80689 57.0311L40 40V80Z"/>
</mask>
<path d="M40 80C32.4095 80 24.9757 77.8403 18.5669 73.7731C12.1581 69.7059 7.03874 63.8992 3.80689 57.0311L40 40V80Z" stroke="#E5E5E5" stroke-width="12" mask="url(#path-2-inside-2)"/>
<mask id="path-3-inside-3" fill="white">
<path d="M0 40C6.63579e-07 32.4095 2.15972 24.9757 6.22689 18.5669C10.2941 12.1581 16.1008 7.03876 22.9689 3.8069L40 40L0 40Z"/>
</mask>
<path d="M0 40C6.63579e-07 32.4095 2.15972 24.9757 6.22689 18.5669C10.2941 12.1581 16.1008 7.03876 22.9689 3.8069L40 40L0 40Z" stroke="#F8F8F8" stroke-width="12" mask="url(#path-3-inside-3)"/>
<mask id="path-4-inside-4" fill="white">
<path d="M40 0C47.5905 9.05154e-08 55.0243 2.15972 61.4331 6.22689C67.8419 10.2941 72.9612 16.1008 76.1931 22.9689L40 40V0Z"/>
</mask>
<path d="M40 0C47.5905 9.05154e-08 55.0243 2.15972 61.4331 6.22689C67.8419 10.2941 72.9612 16.1008 76.1931 22.9689L40 40V0Z" stroke="#F8F8F8" stroke-width="12" mask="url(#path-4-inside-4)"/>
<circle cx="40" cy="40" r="34" fill="#191A1D"/>
</svg>
