<svg width="28" height="28" viewBox="0 0 28 28" fill="none" xmlns="http://www.w3.org/2000/svg">
<path fill-rule="evenodd" clip-rule="evenodd" d="M14 27C14 27 2 21.8 2 12.7V4.9L14 1L26 4.9V12.7C26 21.8 14 27 14 27ZM15.4045 4.94927C17.1192 5.21326 18.6709 5.95633 19.9035 7.03445L21.3531 5.92555L23.1384 8.06399L21.6745 9.18374C22.3747 10.3954 22.7751 11.7926 22.7751 13.2799C22.7751 13.4534 22.7697 13.6259 22.7589 13.7971L24.591 14.1981L23.9453 16.8919L22.1176 16.4914C21.4733 17.9975 20.392 19.279 19.0323 20.1954L19.8537 21.8305L17.3094 23.0055L16.4905 21.374C15.703 21.5972 14.8704 21.7167 14.0104 21.7167C13.1444 21.7167 12.3061 21.5956 11.5136 21.3692L10.6909 23.0101L8.14658 21.8352L8.97433 20.1858C7.62068 19.2697 6.5443 17.9911 5.90235 16.4894L4.05451 16.8939L3.40891 14.2005L5.26175 13.7946C5.25109 13.6242 5.24568 13.4526 5.24568 13.2799C5.24568 11.7972 5.6437 10.404 6.33981 9.19493L4.86153 8.06386L6.64668 5.92555L8.10758 7.04302C9.33668 5.96468 10.8844 5.22005 12.5953 4.95253V3.16667H15.4045V4.94927ZM17.3636 20.9112C17.1362 20.4431 16.9087 19.9752 16.6812 19.5073C15.8614 19.8562 14.958 20.0494 14.009 20.0494C13.0544 20.0494 12.146 19.8539 11.3224 19.5011L10.6358 20.9153C10.5532 20.8759 10.4709 20.8364 10.3888 20.7971L10.3866 20.796L10.3825 20.794C10.3011 20.755 10.2197 20.7159 10.1378 20.6769C10.3667 20.2057 10.5957 19.7346 10.8248 19.2636C9.20187 18.406 7.97319 16.9132 7.47755 15.1205L5.94139 15.4677L5.87965 15.2009L5.81791 14.934C6.32968 14.8181 6.84158 14.7024 7.35356 14.5867C7.27766 14.1849 7.23797 13.7706 7.23797 13.347C7.23797 11.8716 7.71956 10.5076 8.53562 9.40049L7.31412 8.43528L7.65987 8.00746C8.06649 8.32879 8.47322 8.65 8.88001 8.97116C10.0636 7.61301 11.7885 6.73003 13.7229 6.65044V5.11665H13.9997H14.2765V6.6497C16.2144 6.72424 17.9432 7.60493 19.1304 8.9625C19.5335 8.64423 19.9366 8.3259 20.3396 8.00746L20.6853 8.43528C20.2821 8.75394 19.8787 9.07248 19.4753 9.39097C20.2956 10.4997 20.78 11.8674 20.78 13.347C20.78 13.7714 20.7402 14.1865 20.664 14.5889L22.1815 14.932L22.1205 15.1957L22.1198 15.1988L22.0581 15.4657C21.5521 15.3512 21.046 15.2367 20.5399 15.1224C20.0426 16.9191 18.8087 18.4145 17.1797 19.2707L17.8617 20.6728C17.7789 20.7123 17.6961 20.752 17.6138 20.7914L17.612 20.7923C17.5294 20.8319 17.4468 20.8716 17.3636 20.9112ZM18.831 14.7364C17.7552 14.4935 16.6793 14.2505 15.604 14.0071C15.4805 14.3126 15.2685 14.5775 14.9886 14.7669C15.4655 15.7476 15.9429 16.7287 16.4203 17.7099L16.4254 17.7203L16.4318 17.7336L16.5986 18.0763C17.8665 17.3945 18.8297 16.2277 19.2339 14.8274L18.8339 14.737L18.831 14.7364ZM15.6482 17.3845L16.0999 18.3126C15.4563 18.5784 14.75 18.7253 14.009 18.7253C13.2622 18.7253 12.5505 18.5761 11.9028 18.3063L12.55 16.9744L13.5068 15.0053C13.8279 15.101 14.1695 15.101 14.4906 15.0053C14.876 15.7979 15.2618 16.5906 15.6477 17.3834L15.6482 17.3845ZM11.8533 17.15L11.406 18.069C10.1441 17.386 9.18602 16.2217 8.7836 14.8256L9.16949 14.7384L9.17456 14.7373C10.2487 14.4947 11.3229 14.2522 12.3975 14.0091C12.521 14.3147 12.7309 14.5795 13.0108 14.771C12.6253 15.5639 12.2392 16.357 11.8533 17.15ZM9.37566 14.1301L8.65927 14.2918C8.60436 13.9851 8.57571 13.6693 8.57571 13.347C8.57571 12.184 8.94866 11.1071 9.58263 10.2273C10.3027 10.7958 11.0226 11.3641 11.7429 11.9325L12.4922 12.524C12.3481 12.7766 12.2679 13.0638 12.2679 13.3653C12.2679 13.402 12.2699 13.4387 12.274 13.4754C11.3082 13.6938 10.3423 13.9119 9.37656 14.1299L9.37566 14.1301ZM10.2478 10.0507L9.92693 9.7975C10.8639 8.74247 12.2117 8.05368 13.7229 7.97608V11.6724C13.5192 11.703 13.3195 11.7722 13.1343 11.8782C13.0252 11.9393 12.9264 12.0126 12.8359 12.0941C11.9737 11.4128 11.111 10.732 10.2484 10.0512L10.2478 10.0507ZM14.2765 11.6724V7.97516C15.7911 8.04786 17.1429 8.73443 18.0834 9.78892L17.7514 10.0509C16.8886 10.7318 16.0258 11.4127 15.1636 12.0941C15.073 12.0126 14.9742 11.9413 14.8651 11.8782C14.6799 11.7722 14.4803 11.703 14.2765 11.6724ZM18.0971 10.4787L18.4282 10.2175C19.0665 11.0991 19.4423 12.1796 19.4423 13.347C19.4423 13.6701 19.4135 13.9866 19.3583 14.2941L18.9533 14.2026L18.9483 14.2015L18.9388 14.1993C17.8678 13.9575 16.7969 13.7157 15.7254 13.4733C15.7295 13.4366 15.7316 13.4 15.7316 13.3633C15.7316 13.0638 15.6534 12.7745 15.5093 12.5219C16.3716 11.8405 17.2344 11.1596 18.0971 10.4787ZM14.009 12.1654C14.6682 12.1654 15.2027 12.6944 15.2027 13.347C15.2027 13.9996 14.6682 14.5286 14.009 14.5286C13.3497 14.5286 12.8153 13.9996 12.8153 13.347C12.8153 12.6944 13.3497 12.1654 14.009 12.1654Z" fill="white"/>
</svg>
