<svg width="85" height="85" viewBox="0 0 85 85" fill="none" xmlns="http://www.w3.org/2000/svg">
<path d="M38.6364 38.6364V15.4545H46.3636V38.6364H69.5455V46.3636H46.3636V69.5455H38.6364V46.3636H15.4545V38.6364H38.6364Z" fill="#D7D7D7"/>
<path fill-rule="evenodd" clip-rule="evenodd" d="M42.5 85C65.9721 85 85 65.9721 85 42.5C85 19.0279 65.9721 0 42.5 0C19.0279 0 0 19.0279 0 42.5C0 65.9721 19.0279 85 42.5 85ZM77.2727 42.5C77.2727 61.7044 61.7044 77.2727 42.5 77.2727C23.2956 77.2727 7.72727 61.7044 7.72727 42.5C7.72727 23.2956 23.2956 7.72727 42.5 7.72727C61.7044 7.72727 77.2727 23.2956 77.2727 42.5Z" fill="#D7D7D7"/>
</svg>
