<svg width="796" height="776" viewBox="0 0 796 776" fill="none" xmlns="http://www.w3.org/2000/svg">
<circle cx="398" cy="404" r="296.5" stroke="black" stroke-width="65"/>
<circle cx="398" cy="404" r="177.5" stroke="black" stroke-width="25"/>
<path fill-rule="evenodd" clip-rule="evenodd" d="M632.3 472.2C580.025 460.275 527.75 448.35 475.5 436.4C469.5 451.4 459.2 464.4 445.6 473.7C468.853 522.007 492.132 570.339 515.41 618.671C538.682 666.989 561.953 715.307 585.2 763.6C581.15 765.55 577.125 767.5 573.1 769.45C569.075 771.4 565.05 773.35 561 775.3C533.238 717.567 505.441 659.87 477.65 602.187C458.892 563.254 440.138 524.327 421.4 485.4C405.8 490.1 389.2 490.1 373.6 485.4C358.103 517.627 342.606 549.842 327.109 582.058C296.106 646.509 265.103 710.96 234.1 775.5C230.05 773.55 226.025 771.6 222 769.65C217.975 767.7 213.95 765.75 209.9 763.8C237.664 706.063 265.464 648.361 293.256 590.674C312.012 551.745 330.764 512.823 349.5 473.9C335.9 464.5 325.7 451.5 319.7 436.5C267.401 448.45 215.126 460.375 162.852 472.3C110.576 484.225 58.3006 496.15 6 508.1C5 503.75 4 499.375 3 495C2 490.625 1 486.25 0 481.9C57.5982 468.727 115.227 455.584 172.869 442.438C219.807 431.734 266.753 421.027 313.7 410.3C313.5 408.5 313.4 406.7 313.4 404.9C313.4 390.1 317.3 376 324.3 363.6C312.203 353.954 300.107 344.31 288.013 334.667C216.232 277.432 144.503 220.239 72.7 162.9L89.5 141.9C131.399 175.349 173.322 208.773 215.246 242.197C257.172 275.623 299.099 309.049 341 342.5C345.4 338.5 350.2 334.9 355.5 331.9C364.5 326.7 374.2 323.3 384.1 321.8V0H411V321.8C420.9 323.3 430.6 326.7 439.6 331.9C444.9 335 449.7 338.5 454.1 342.5C495.997 309.052 537.919 275.63 579.841 242.207C621.769 208.78 663.697 175.352 705.6 141.9L722.4 162.9C680.497 196.352 638.569 229.78 596.641 263.207C554.719 296.63 512.797 330.052 470.9 363.5C477.9 375.9 481.7 390.1 481.7 404.8C481.7 406.6 481.6 408.4 481.4 410.2C533.698 422.149 585.97 434.074 638.243 445.998C690.52 457.924 742.798 469.849 795.1 481.8C794.1 486.15 793.1 490.525 792.1 494.9C791.1 499.275 790.1 503.65 789.1 508C736.85 496.05 684.575 484.125 632.3 472.2ZM398 346C430.033 346 456 371.967 456 404C456 436.033 430.033 462 398 462C365.967 462 340 436.033 340 404C340 371.967 365.967 346 398 346Z" fill="black"/>
</svg>
