<?xml version="1.0" encoding="utf-8"?>
<!-- Generator: Adobe Illustrator 22.0.1, SVG Export Plug-In . SVG Version: 6.00 Build 0)  -->
<svg version="1.1" id="Camada_1" xmlns="http://www.w3.org/2000/svg" xmlns:xlink="http://www.w3.org/1999/xlink" x="0px" y="0px"
	 viewBox="0 0 126 119" style="enable-background:new 0 0 126 119;" xml:space="preserve">
<style type="text/css">
	.st0{fill:#A9A9A9;}
</style>
<g>
	<path class="st0" d="M104.7,68.1c-2.9-0.3-5.1-0.3-7.3-1c-0.5-0.2-0.9-0.8-1.1-1l-1-0.3c1.2-7.9-0.6-14.7-5.3-21.6l0.9-0.8
		c0-0.4,0-0.9,0.5-1.4c2.8-2.3,4.8-2.8,6.4-4.1c3.1-2.8-0.9-6.1-3.7-3.3c-1.9,1.9-3.8,3.8-5.1,4.6c-0.5,0.3-1.2,0.2-1.5,0.2l-1,0.7
		c-5.5-5.5-12.9-8.9-20.9-9.6l-0.1-1.1c-0.3-0.3-0.7-0.6-0.8-1.2c-0.1-4.1,0.7-5.2,0.6-7.3c-0.1-3.6-5-3.5-5,0
		c0,1.9,0.9,4.8,0.6,7.3c-0.1,0.5-0.5,0.9-0.8,1.2l-0.1,1c-9.2,0.8-16.3,4.9-21,9.6l-0.9-0.6c-0.5,0.1-0.9,0.2-1.5-0.1
		c-2.9-2.1-3.9-3.7-5.6-5c-2.9-2.2-6,1.6-3.1,3.8c1.9,1.5,3.2,1.5,6.4,4.1c0.4,0.4,0.5,1.1,0.5,1.4l0.8,0.7
		c-4.3,6.2-6.3,13.9-5.1,21.7l-1.1,0.3c-0.9,1.5-2.3,2-5.6,1.7c-8.6-0.5-6.1,8,1,4c1.5-0.9,3.1-1,4.4-1.2c0.6,0,1.2,0.2,1.4,0.5
		l1.1-0.2c2.5,7.5,7.8,13.5,14.5,17.3l-0.5,1c0.2,0.3,0.3,1,0.2,1.4c-1.6,3.5-3,4.5-4,6.5c-1.5,3.1,2.8,5.3,4.6,2
		c0.8-1.7,1.8-5.7,3-7.1c0.3-0.3,0.7-0.4,1.1-0.5l0.6-1c7.7,2.7,15.4,2.8,23.3,0.1l0.5,0.9c0.4,0.1,0.9,0.2,1.3,0.7
		c1,1.6,1.8,4.4,2.6,6.7c2.2,3.6,6.7,1.1,4.4-2.5c-1.2-1.8-2.6-3.5-3.6-5.7c-0.2-0.6,0-1,0.2-1.4l-0.4-1c7-3.9,12.1-10.2,14.5-17.4
		l1.1,0.2c0.4-0.2,0.7-0.5,1.4-0.5c2.2,0.3,5.6,1.7,6.7,2.1C107.4,74,109.1,68.6,104.7,68.1z M81.1,43.7L70.3,51
		c-1.6,0.8-3.3,0.5-3.6-1.6L66,36.8C71.7,37.5,77,40,81.1,43.7z M60.8,57.5h4.1l2.5,3l-0.9,3.7l-3.6,1.7l-3.7-1.7l-0.9-3.7
		L60.8,57.5z M59.7,36.8l-0.7,12.6c-0.1,1.6-1.8,2.7-3.6,1.7l-6-4.1l-4.8-3.2C48.5,39.9,53.7,37.6,59.7,36.8z M40.5,48.4l9.9,8.4
		c1.4,1.4,0.8,3.1-0.9,3.7l-12.7,3.5C36.2,58.6,37.5,53.1,40.5,48.4z M53.8,70.8l-5,11.6C44,79.6,40.3,75.3,38.3,70l13-2.1
		C53.1,67.7,54.3,69.1,53.8,70.8z M54.4,85.1l6.4-11c0.9-1.4,2.8-1.6,4,0l6.4,11C65.7,86.9,60.1,86.8,54.4,85.1z M76.9,82.5
		l-5.1-11.7c-0.6-1.6,0.6-3.1,2.5-3l13.1,2.1C85.5,75.1,81.8,79.5,76.9,82.5z M88.8,64.1l-12.8-3.5c-2-0.8-2-2.4-0.9-3.7l9.8-8.4
		C88,53.3,89.4,58.5,88.8,64.1z"/>
</g>
<path class="st0" d="M0.7,72.3l10.7-45.4c0.6-2.3,2.2-4.4,4.5-5.4L59.2,1.3c2.2-1.1,4.6-1,7.2,0l43.3,20.2c2.2,1,3.9,3.1,4.5,5.4
	l10.7,45.4c0.6,2.3-0.1,4.9-1.6,6.8l-30,36.4c-1.5,1.9-4,3-6.5,3l-48.1,0c-2.5,0-4.9-1.1-6.5-3l-30-36.4C0.6,77,0.2,74.7,0.7,72.3z
	 M17.2,30.8l-9.5,40c-0.4,2.2-0.1,4.2,1.4,6l26.7,32.1c1.4,1.7,3.6,2.7,5.8,2.7l42.8,0c2.2,0,4.4-1,5.8-2.7l26.7-32.1
	c1.4-1.7,1.9-3.9,1.4-6l-9.5-40c-0.5-2.1-2-3.9-4-4.8L66.2,8.2c-2.3-0.9-4.4-0.9-6.4,0L21.2,26C19.2,26.9,17.7,28.7,17.2,30.8z"/>
</svg>
