<svg width="30" height="29" viewBox="0 0 30 29" fill="none" xmlns="http://www.w3.org/2000/svg">
<path fill-rule="evenodd" clip-rule="evenodd" d="M19.916 26.4155C20.3332 27.2743 20.7503 28.1333 21.1671 28.9925C21.3196 28.9198 21.4711 28.847 21.6226 28.7743L21.6237 28.7738C21.7756 28.7008 21.9274 28.6279 22.0802 28.555C21.6636 27.6972 21.2468 26.8393 20.8299 25.9812C23.8165 24.4096 26.0786 21.6647 26.9903 18.3665C27.9182 18.5765 28.846 18.7865 29.7736 18.9968C29.8113 18.8341 29.8491 18.6705 29.8868 18.5069L29.8881 18.5012C29.9254 18.3395 29.9627 18.1778 30 18.017C29.0724 17.807 28.1451 17.5971 27.2178 17.3874C27.3575 16.6486 27.4305 15.8866 27.4305 15.1077C27.4305 12.3917 26.5425 9.88123 25.0386 7.84596C25.7782 7.26134 26.5177 6.67662 27.2569 6.09168L26.6231 5.30638C25.8843 5.89091 25.1453 6.47524 24.4062 7.05946C22.2297 4.56749 19.0602 2.95089 15.5075 2.81407V0H14.4925V2.81542C10.946 2.96151 7.78384 4.58232 5.61386 7.07535C4.86808 6.48584 4.1224 5.89621 3.37693 5.30638L2.74305 6.09168C3.4897 6.68263 4.23615 7.27316 4.98248 7.86342C3.48636 9.89558 2.60345 12.3994 2.60345 15.1077C2.60345 15.8852 2.67621 16.6458 2.81536 17.3833C1.87673 17.5956 0.938258 17.8081 0 18.0208C0.0377311 18.1834 0.0754622 18.347 0.113193 18.5106C0.150877 18.674 0.188703 18.8381 0.226387 19.0005C1.16533 18.7879 2.10406 18.5755 3.04268 18.3632C3.95135 21.6537 6.20392 24.3939 9.17932 25.9682C8.75932 26.8328 8.33943 27.6975 7.91976 28.5625C8.07248 28.6354 8.22425 28.7082 8.37603 28.7811C8.52789 28.854 8.68004 28.9271 8.83285 29C9.25242 28.1344 9.67198 27.2691 10.0915 26.4042C11.6015 27.0518 13.267 27.4107 15.017 27.4107C16.7568 27.4107 18.413 27.056 19.916 26.4155ZM17.9411 16.3193C19.9126 16.7662 21.885 17.2121 23.8574 17.658L23.8627 17.6592C24.1071 17.7145 24.3515 17.7697 24.5959 17.825C23.855 20.3954 22.0892 22.5373 19.7645 23.7887C19.6626 23.5791 19.5607 23.3694 19.4588 23.1597L19.447 23.1353C18.5687 21.3279 17.6904 19.5206 16.813 17.7141C17.3261 17.3663 17.7148 16.8802 17.9411 16.3193ZM18.8503 24.2225C18.5743 23.6546 18.2983 23.0867 18.0223 22.5189C17.3145 21.063 16.6069 19.6073 15.8999 18.1516C15.3113 18.3274 14.6849 18.3274 14.0963 18.1516C13.5116 19.3568 12.9269 20.5615 12.3422 21.7662C11.9467 22.5811 11.5512 23.3959 11.1557 24.2109C12.3432 24.7062 13.6478 24.98 15.017 24.98C16.3754 24.98 17.6704 24.7105 18.8503 24.2225ZM10.2448 23.7754C10.5182 23.213 10.7915 22.6507 11.0649 22.0884C11.7725 20.6328 12.4802 19.1769 13.187 17.7216C12.6739 17.3701 12.289 16.8839 12.0626 16.323C10.0924 16.7692 8.12314 17.2144 6.15386 17.6597L6.14458 17.6618C5.90875 17.7151 5.67293 17.7684 5.43711 17.8217C6.17488 20.3845 7.93135 22.5216 10.2448 23.7754ZM5.20916 16.8419C5.64693 16.743 6.08473 16.644 6.52254 16.5451C8.29355 16.1448 10.0649 15.7444 11.8362 15.3433C11.8287 15.276 11.8249 15.2086 11.8249 15.1413C11.8249 14.5879 11.9721 14.0606 12.2362 13.5969L10.8624 12.5113C9.542 11.4678 8.22204 10.4247 6.902 9.38118C5.73971 10.9962 5.05597 12.9728 5.05597 15.1077C5.05597 15.6994 5.10849 16.2789 5.20916 16.8419ZM7.53321 8.59219C7.7293 8.74712 7.92538 8.90206 8.12146 9.057C9.70339 10.307 11.2853 11.557 12.8663 12.8079C13.0323 12.6583 13.2134 12.5237 13.4134 12.4115C13.753 12.217 14.119 12.0899 14.4925 12.0338V5.24878C11.722 5.39121 9.25105 6.65557 7.53321 8.59219ZM15.5075 5.24709V12.0338C15.881 12.0899 16.247 12.217 16.5866 12.4115C16.7866 12.5274 16.9677 12.6583 17.1337 12.8079C18.7145 11.5571 20.2963 10.3072 21.8781 9.05738L21.8797 9.05611C22.082 8.89622 22.2844 8.73632 22.4867 8.57643C20.7625 6.64081 18.2842 5.38054 15.5075 5.24709ZM23.1189 9.36308C22.9166 9.52295 22.7143 9.68281 22.5119 9.84268C20.9302 11.0925 19.3484 12.3424 17.7676 13.5932C18.0317 14.0569 18.1751 14.5879 18.1751 15.1376C18.1751 15.2049 18.1713 15.2722 18.1638 15.3395C20.1339 15.7857 22.1031 16.2309 24.0723 16.6761L24.0816 16.6782C24.3291 16.7342 24.5766 16.7901 24.8241 16.8461C24.9252 16.2817 24.978 15.7008 24.978 15.1077C24.978 12.9648 24.2891 10.9814 23.1189 9.36308ZM17.2054 15.1077C17.2054 13.9098 16.2256 12.9388 15.017 12.9388C13.8084 12.9388 12.8286 13.9098 12.8286 15.1077C12.8286 16.3055 13.8084 17.2766 15.017 17.2766C16.2256 17.2766 17.2054 16.3055 17.2054 15.1077Z" fill="#A9A9A9"/>
</svg>
