<svg width="112" height="118" viewBox="0 0 112 118" fill="none" xmlns="http://www.w3.org/2000/svg">
<path fill-rule="evenodd" clip-rule="evenodd" d="M60.008 90.7695H51.4354V99.8458H43.8632C43.3109 99.8458 42.8632 100.294 42.8632 100.846V104.385H12.8583V113.461H42.8632V116.999C42.8632 117.552 43.3109 117.999 43.8632 117.999H67.5812C68.1335 117.999 68.5812 117.552 68.5812 116.999V113.461H98.5848V104.385H68.5812V100.846C68.5812 100.294 68.1335 99.8458 67.5812 99.8458H60.008V90.7695Z" fill="#A9A9A9"/>
<path d="M0 58.9979H111.444V31.7678H0V58.9979ZM27.8611 41.9791H76.6181V48.7866H27.8611V41.9791ZM13.9306 41.9791H20.8958V48.7866H13.9306V41.9791Z" fill="#A9A9A9"/>
<path d="M104.479 0H6.96528C5.11797 0 3.34633 0.717219 2.04008 1.99388C0.733839 3.27053 0 5.00205 0 6.80752V27.2301H111.444V6.80752C111.444 5.00205 110.711 3.27053 109.404 1.99388C108.098 0.717219 106.326 0 104.479 0V0ZM20.8958 17.0188H13.9306V10.2113H20.8958V17.0188ZM76.6181 17.0188H27.8611V10.2113H76.6181V17.0188Z" fill="#A9A9A9"/>
<path d="M0 83.9599C0 85.7654 0.733839 87.4969 2.04008 88.7736C3.34633 90.0502 5.11797 90.7674 6.96528 90.7674H104.479C106.326 90.7674 108.098 90.0502 109.404 88.7736C110.711 87.4969 111.444 85.7654 111.444 83.9599V63.5374H0V83.9599ZM27.8611 73.7486H76.6181V80.5562H27.8611V73.7486ZM13.9306 73.7486H20.8958V80.5562H13.9306V73.7486Z" fill="#A9A9A9"/>
</svg>
