<svg width="230" height="230" viewBox="0 0 230 230" fill="none" xmlns="http://www.w3.org/2000/svg">
<path fill-rule="evenodd" clip-rule="evenodd" d="M191 15.8621C191 7.10169 183.874 0 175.083 0H15.9167C7.12613 0 0 7.10169 0 15.8621V39.6552C0 48.4156 7.12614 55.5172 15.9167 55.5172H74.7605L64.2546 47.3621L79.1235 29.2938L92.8875 39.9741C104.852 28.9757 120.207 21.4577 137.239 19.0488V2H160.761V19.0207C171.675 20.5376 181.905 24.152 191 29.4363V15.8621ZM15.9167 27.7586C15.9167 34.3289 21.2613 39.6552 27.8542 39.6552C34.4471 39.6552 39.7917 34.3289 39.7917 27.7586C39.7917 21.1883 34.4471 15.8621 27.8542 15.8621C21.2613 15.8621 15.9167 21.1883 15.9167 27.7586ZM59.6875 39.6552C53.0946 39.6552 47.75 34.3289 47.75 27.7586C47.75 21.1883 53.0946 15.8621 59.6875 15.8621C66.2804 15.8621 71.625 21.1883 71.625 27.7586C71.625 34.3289 66.2804 39.6552 59.6875 39.6552Z" fill="white"/>
<path fill-rule="evenodd" clip-rule="evenodd" d="M75.2459 63.4483C70.0632 73.9277 67.1519 85.687 67.1519 98.1055C67.1519 100.246 67.2384 102.368 67.4084 104.468L50 108.337L52.5109 118.966H15.9167C7.12614 118.966 0 111.864 0 103.103V79.3103C0 70.55 7.12613 63.4483 15.9167 63.4483H75.2459ZM27.8542 103.103C21.2613 103.103 15.9167 97.7772 15.9167 91.2069C15.9167 84.6366 21.2613 79.3103 27.8542 79.3103C34.4471 79.3103 39.7917 84.6366 39.7917 91.2069C39.7917 97.7772 34.4471 103.103 27.8542 103.103Z" fill="white"/>
<path fill-rule="evenodd" clip-rule="evenodd" d="M55.3617 131.032L54.3846 126.897H15.9167C7.12613 126.897 0 133.998 0 142.759V166.552C0 175.312 7.12614 182.414 15.9167 182.414H87.5417V198.276C83.1464 198.276 79.5833 201.827 79.5833 206.207H7.95833V222.069H79.5833C79.5833 226.449 83.1464 230 87.5417 230H103.458C107.854 230 111.417 226.449 111.417 222.069H183.042V206.207H111.417C111.417 201.827 107.854 198.276 103.458 198.276V183.793L95.4392 180.035L103.22 164.308C89.5857 155.312 78.8489 142.399 72.7465 127.171L55.3617 131.032ZM27.8542 166.552C21.2613 166.552 15.9167 161.225 15.9167 154.655C15.9167 148.085 21.2613 142.759 27.8542 142.759C34.4471 142.759 39.7917 148.085 39.7917 154.655C39.7917 161.225 34.4471 166.552 27.8542 166.552ZM47.75 154.655C47.75 161.225 53.0946 166.552 59.6875 166.552C66.2804 166.552 71.625 161.225 71.625 154.655C71.625 148.085 66.2804 142.759 59.6875 142.759C53.0946 142.759 47.75 148.085 47.75 154.655ZM87.5417 214.138C87.5417 209.758 91.1047 206.207 95.5 206.207C99.8953 206.207 103.458 209.758 103.458 214.138C103.458 218.518 99.8953 222.069 95.5 222.069C91.1047 222.069 87.5417 218.518 87.5417 214.138Z" fill="white"/>
<path fill-rule="evenodd" clip-rule="evenodd" d="M182.008 171.96C179.743 167.398 177.477 162.836 175.21 158.275C167.044 161.677 158.045 163.56 148.592 163.56C139.084 163.56 130.035 161.654 121.831 158.215C119.551 162.809 117.271 167.403 114.992 172C114.162 171.613 113.336 171.226 112.511 170.838L112.51 170.838C111.685 170.451 110.86 170.064 110.031 169.677C112.311 165.083 114.592 160.491 116.874 155.9C100.708 147.54 88.469 132.989 83.5319 115.515C78.4321 116.642 73.3316 117.77 68.23 118.899C68.0253 118.037 67.8205 117.169 67.6158 116.301L67.6111 116.281C67.4074 115.418 67.2037 114.555 67 113.696C72.0979 112.567 77.1969 111.439 82.2968 110.311C81.5408 106.395 81.1454 102.356 81.1454 98.227C81.1454 83.8453 85.9426 70.549 94.0715 59.7575C90.0164 56.623 85.9607 53.4871 81.9039 50.3489L85.348 46.1787C89.3984 49.3109 93.4499 52.442 97.502 55.5725C109.292 42.3337 126.473 33.7267 145.743 32.9509V18H151.257V32.9437C170.56 33.6702 187.782 42.255 199.607 55.4882C203.623 52.3858 207.638 49.2828 211.652 46.1787L215.096 50.3489C211.079 53.4551 207.061 56.5602 203.043 59.6648C211.214 70.4727 216.039 83.8041 216.039 98.227C216.039 102.363 215.642 106.41 214.883 110.333C219.922 111.447 224.96 112.561 230 113.677C229.797 114.53 229.595 115.389 229.392 116.248L229.385 116.278C229.18 117.147 228.975 118.016 228.77 118.879C223.73 117.763 218.689 116.647 213.648 115.533C208.693 133.047 196.403 147.623 180.176 155.969C182.441 160.526 184.706 165.082 186.969 169.637C186.149 170.019 185.334 170.402 184.519 170.785L184.483 170.801C183.66 171.188 182.836 171.574 182.008 171.96ZM196.607 111.766C185.897 109.4 175.186 107.033 164.48 104.661C163.25 107.64 161.139 110.221 158.351 112.068C163.118 121.661 167.89 131.259 172.662 140.857L174.387 144.326C187.018 137.681 196.612 126.307 200.638 112.657L196.607 111.766ZM164.921 137.583C166.421 140.599 167.92 143.614 169.42 146.63C163.009 149.221 155.973 150.652 148.592 150.652C141.153 150.652 134.064 149.199 127.613 146.568C129.762 142.24 131.91 137.913 134.059 133.586L134.157 133.389C137.301 127.057 140.446 120.725 143.59 114.391C146.788 115.325 150.191 115.325 153.389 114.391C157.222 122.103 161.057 129.815 164.893 137.528L164.921 137.583ZM127.119 135.297C125.634 138.283 124.149 141.269 122.664 144.256C110.094 137.598 100.55 126.249 96.5416 112.639L100.45 111.776C111.145 109.412 121.84 107.049 132.54 104.681C133.77 107.66 135.861 110.241 138.649 112.108C134.809 119.836 130.965 127.565 127.121 135.294L127.119 135.297ZM102.439 105.86L95.3031 107.437C94.7561 104.447 94.4708 101.369 94.4708 98.227C94.4708 86.8899 98.1857 76.3934 104.501 67.8173C111.611 73.3106 118.72 78.8015 125.832 84.2943L133.483 90.2043C132.048 92.6667 131.249 95.4667 131.249 98.4057C131.249 98.7631 131.269 99.1206 131.31 99.478C121.686 101.608 112.062 103.734 102.439 105.86ZM111.127 66.0958L107.93 63.6275C117.264 53.3434 130.69 46.6292 145.743 45.8728V81.9035C143.713 82.2014 141.725 82.8766 139.88 83.9092C138.793 84.505 137.809 85.2199 136.907 86.0142C128.317 79.3714 119.722 72.7336 111.127 66.0958ZM151.257 81.9035V45.8639C166.344 46.5725 179.809 53.265 189.178 63.5438L185.871 66.0978C177.277 72.7349 168.682 79.3721 160.093 86.0142C159.191 85.2199 158.207 84.5248 157.12 83.9092C155.275 82.8766 153.287 82.2014 151.257 81.9035ZM189.315 70.268L192.613 67.7212C198.971 76.3149 202.714 86.8475 202.714 98.227C202.714 101.377 202.427 104.462 201.877 107.458L197.729 106.542C187.051 104.182 176.373 101.823 165.69 99.4582C165.731 99.1007 165.751 98.7433 165.751 98.3858C165.751 95.4667 164.972 92.6468 163.537 90.1844C172.126 83.5423 180.721 76.9052 189.315 70.268ZM148.592 86.7092C155.159 86.7092 160.483 91.8659 160.483 98.227C160.483 104.588 155.159 109.745 148.592 109.745C142.025 109.745 136.702 104.588 136.702 98.227C136.702 91.8659 142.025 86.7092 148.592 86.7092Z" fill="white"/>
</svg>
