<svg width="18" height="18" viewBox="0 0 18 18" fill="none" xmlns="http://www.w3.org/2000/svg">
<path fill-rule="evenodd" clip-rule="evenodd" d="M7.55012 16V12.9368C7.0574 12.7638 6.59783 12.5131 6.19014 12.1948L3.44988 13.704L2 11.296L4.71997 9.7644C4.62727 9.25779 4.62727 8.73941 4.71997 8.2328L2 6.704L3.44988 4.296L6.19014 5.808C6.628 5.472 7.08327 5.2228 7.55303 5.0632V2H10.4528V5.0632C10.9481 5.22877 11.408 5.48022 11.8099 5.8052L14.5501 4.296L16 6.704L13.2829 8.2356C13.3759 8.74125 13.3759 9.25875 13.2829 9.7644L16 11.296L14.5501 13.704L11.8099 12.192C11.3977 12.5046 10.9392 12.7556 10.4499 12.9368V16H7.55012ZM6.82519 9C6.82519 9.5824 7.03687 10.078 7.46023 10.4868C7.65989 10.6852 7.89952 10.8419 8.16434 10.9474C8.42917 11.0528 8.71357 11.1048 9 11.1C9.28642 11.1048 9.57083 11.0528 9.83565 10.9474C10.1005 10.8419 10.3401 10.6852 10.5398 10.4868C10.7457 10.2943 10.9086 10.063 11.0183 9.80724C11.1281 9.55151 11.1823 9.27677 11.1777 9C11.1823 8.72323 11.1281 8.44849 11.0183 8.19276C10.9086 7.93703 10.7457 7.70574 10.5398 7.5132C10.3405 7.31518 10.1013 7.15863 9.83699 7.05317C9.57269 6.94772 9.28884 6.89559 9.0029 6.9C8.71599 6.89483 8.43104 6.94658 8.16568 7.05206C7.90032 7.15753 7.66022 7.31449 7.46023 7.5132C7.2548 7.70598 7.09246 7.93738 6.98324 8.19309C6.87402 8.44881 6.82023 8.72343 6.82519 9Z" fill="#7B7F86"/>
</svg>
