<svg width="131" height="117" viewBox="0 0 131 117" fill="none" xmlns="http://www.w3.org/2000/svg">
<path fill-rule="evenodd" clip-rule="evenodd" d="M4.67017 0H126.095L130.765 4.5V63H121.424V36H9.34034V99H74.7227V108H4.67017L0 103.5V4.5L4.67017 0ZM9.34034 27H121.424V9H9.34034V27ZM56.042 90V80.154C54.4549 79.5982 52.9745 78.7922 51.6614 77.769L42.8348 82.62L38.1646 74.88L46.9165 69.957C46.6175 68.3286 46.6175 66.6624 46.9165 65.034L38.1646 60.12L42.8348 52.38L51.6614 57.24C53.0718 56.16 54.5382 55.359 56.042 54.846V45H65.3824V54.846C66.9817 55.3761 68.4665 56.1845 69.763 57.231L78.5896 52.38L83.2598 60.12L74.5079 65.043C74.8057 66.6684 74.8057 68.3316 74.5079 69.957L83.2598 74.88L78.5896 82.62L69.763 77.76C68.4352 78.7646 66.9586 79.5716 65.3824 80.154V90H56.042ZM53.7069 67.5C53.7069 69.372 54.3888 70.965 55.7525 72.279C56.3956 72.9166 57.1674 73.4204 58.0205 73.7594C58.8735 74.0984 59.7896 74.2654 60.7122 74.25C61.6348 74.2654 62.5509 74.0984 63.4039 73.7594C64.2569 73.4204 65.0288 72.9166 65.6719 72.279C66.3336 71.6593 66.8565 70.9156 67.2083 70.0936C67.5602 69.2717 67.7334 68.389 67.7174 67.5C67.7334 66.611 67.5602 65.7283 67.2083 64.9064C66.8565 64.0844 66.3336 63.3407 65.6719 62.721C65.0288 62.0834 64.2569 61.5796 63.4039 61.2406C62.5509 60.9016 61.6348 60.7346 60.7122 60.75C59.7896 60.7346 58.8735 60.9016 58.0205 61.2406C57.1674 61.5796 56.3956 62.0834 55.7525 62.721C55.0908 63.3407 54.5679 64.0844 54.216 64.9064C53.8642 65.7283 53.691 66.611 53.7069 67.5V67.5ZM103.528 117V107.154C101.941 106.598 100.461 105.792 99.1477 104.769L90.3211 109.62L85.6509 101.88L94.4121 96.957C94.1135 95.3286 94.1135 93.6624 94.4121 92.034L85.6509 87.12L90.3211 79.38L99.1477 84.24C100.558 83.16 102.024 82.359 103.538 81.846V72H112.878V81.846C114.473 82.3782 115.955 83.1864 117.249 84.231L126.076 79.38L130.746 87.12L121.994 92.043C122.294 93.6683 122.294 95.3317 121.994 96.957L130.746 101.88L126.076 109.62L117.249 104.76C115.922 105.765 114.445 106.572 112.869 107.154V117H103.528V117ZM101.193 94.5C101.193 96.372 101.875 97.965 103.239 99.279C103.882 99.9166 104.654 100.42 105.507 100.759C106.36 101.098 107.276 101.265 108.198 101.25C109.121 101.265 110.037 101.098 110.89 100.759C111.743 100.42 112.515 99.9166 113.158 99.279C113.822 98.6601 114.346 97.9167 114.7 97.0947C115.053 96.2727 115.228 95.3896 115.213 94.5C115.228 93.6104 115.053 92.7273 114.7 91.9053C114.346 91.0833 113.822 90.3399 113.158 89.721C112.516 89.0845 111.746 88.5813 110.894 88.2424C110.043 87.9034 109.129 87.7358 108.208 87.75C107.284 87.7334 106.366 87.8997 105.511 88.2388C104.656 88.5778 103.883 89.0823 103.239 89.721C102.577 90.3407 102.054 91.0844 101.702 91.9064C101.35 92.7283 101.177 93.611 101.193 94.5V94.5Z" fill="#A9A9A9"/>
</svg>
